<svg id="Layer_1" data-name="Layer 1" xmlns="http://www.w3.org/2000/svg" viewBox="0 0 1066.98 85.01"><defs><style>.cls-1{fill:#bddaff;}.cls-1,.cls-10,.cls-11,.cls-12,.cls-13,.cls-14,.cls-15,.cls-16,.cls-17,.cls-18,.cls-19,.cls-2,.cls-20,.cls-21,.cls-22,.cls-3,.cls-4,.cls-5,.cls-6,.cls-7,.cls-8,.cls-9{fill-rule:evenodd;}.cls-2{fill:#5f5fc9;}.cls-3{fill:#1d459e;}.cls-4{fill:#6b6bc9;}.cls-5{fill:#147783;}.cls-6{fill:#5a8bff;}.cls-7{fill:#4469c1;}.cls-8{fill:#580abe;}.cls-9{fill:#46cee1;}.cls-10{fill:#4971d0;}.cls-11{fill:#b540ff;}.cls-12{fill:#1fb7c9;}.cls-13{fill:#365398;}.cls-14{fill:#5246eb;}.cls-15{fill:#750bff;}.cls-16{fill:#7aa9ff;}.cls-18{fill:#fffefe;}.cls-19{fill:#fdfeff;}.cls-20{fill:#59b783;}.cls-21{fill:#b24fb7;}.cls-22{fill:#fefeff;}</style></defs><path class="cls-1" d="M32.71,50.6c0,7.7,7,13.95,15.58,14s15.59-6.24,15.59-13.94v0c0-7.7-7-14-15.58-14S32.71,42.89,32.71,50.59h0" transform="translate(-8.57 -8.81)"/><path class="cls-2" d="M65.93,24.76l3.15-4.62L72.22,22l1.47-3.36-9.44-5.24-1.89,3.36,2.52,1.68L63,22.66Z" transform="translate(-8.57 -8.81)"/><path class="cls-3" d="M70.26,78.22l2.3-.42.84,4.41,2.94-1,.21,2.1L69.21,86l-.84-2.73,3.15-.42Z" transform="translate(-8.57 -8.81)"/><path class="cls-4" d="M60.31,82.76l3.36-.42.21,5.88H66.4V91l-8.81.21-.42-2.94h3.56Z" transform="translate(-8.57 -8.81)"/><path class="cls-5" d="M41,75.52l2.51,1.26-4,5.87,2.73,1.68-1,2.31-8.82-4,1.47-2.93,2.94,1.47Z" transform="translate(-8.57 -8.81)"/><path class="cls-2" d="M38.27,28.21l2.94-1.05-1.68-5,2.73-.84L40,17.93l-9.23,5,1.05,2.52L36.17,24Zm50.9,28.9-1.26,3.15,4.61,1.26-1.47,3.15,3.36,1.26,3.78-9.66L94.2,55l-1.26,3.57ZM22.41,32.81l-4,5.25,1.68,1.25,1.68-1.67,2.73,2.72,2.31-1.67L23.67,36l1.89-1.89Z" transform="translate(-8.57 -8.81)"/><path class="cls-6" d="M20.4,52.76c0,17.85,15.7,32.32,35.06,32.32S90.51,70.61,90.51,52.76h0c0-17.86-15.69-32.33-35.05-32.33S20.4,34.9,20.4,52.76h0" transform="translate(-8.57 -8.81)"/><path class="cls-7" d="M44.87,8.81v4.83h4.62l.21,14.69,4.19-.42-.84-14.06,4.83.21V9.44Z" transform="translate(-8.57 -8.81)"/><path class="cls-8" d="M73.58,32.25l3.57,2.52,7.77-9.66,3.57,3.57,3.35-3.57L82.4,16.5l-3.15,4.62L82,23Z" transform="translate(-8.57 -8.81)"/><path class="cls-9" d="M83.47,41.32l.84,3.35,8.81-3.56,1.26,4.82,3.78-1L94.38,31.66l-4,.84.84,4.83Z" transform="translate(-8.57 -8.81)"/><path class="cls-10" d="M83,66,81.54,69l7.56,5.25L87.21,78l3.57,1.68L96.66,70l-3.78-2.73-2.31,3.57Z" transform="translate(-8.57 -8.81)"/><path class="cls-11" d="M76.72,72.37l-2.31,1.47L79.24,82,76.09,83.7l2.31,2.94,8-4-2.1-3.77-2.73,1.47Z" transform="translate(-8.57 -8.81)"/><path class="cls-12" d="M25.22,56.37l.41,3.57L17.87,61.2l.63,3.15H15.77l-1-11.55h2.73l.63,3.36Zm23.2,23.06,3-.3-1.89,9.65,3.36.63L52,93.82l-9.87-2.31,1.26-4.41,3.15.84Z" transform="translate(-8.57 -8.81)"/><path class="cls-13" d="M31.77,69.68l3.36,2.52-9.86,8.6,2.51,2.52-2.72,2.94-7.35-7.14,3.78-2.94,2.1,1.89Z" transform="translate(-8.57 -8.81)"/><path class="cls-14" d="M26.41,45l.21,5.25-13-2.31-.21,3.78-4.83-.42.84-12.39,5,.63L14,42.87Z" transform="translate(-8.57 -8.81)"/><path class="cls-15" d="M33.23,34,26.3,25l4.41-2.73-3.15-2.94L17.49,26l1.89,2.31,3.36-1.89,7.55,10.29Z" transform="translate(-8.57 -8.81)"/><path class="cls-16" d="M27,52.24C27,67.65,39.09,80.14,54,80.14s27.07-12.49,27.07-27.9S69,24.35,54,24.35,27,36.84,27,52.24" transform="translate(-8.57 -8.81)"/><path class="cls-17" d="M42.87,66q12.77-5.61,30.61,2.78-.63-14.07-19.94-13.64Q38.42,56.42,37,70.06Z" transform="translate(-8.57 -8.81)"/><path class="cls-18" d="M59.94,55.26l1.52,4.65,4.69-3.63L62,54.6" transform="translate(-8.57 -8.81)"/><path class="cls-19" d="M48.87,55.57l4.31,3.57,3-4.48-3.7-.6ZM40.56,60.8l4.54,1.52,1.21-6.21L42.4,57.45m16.65,7.4,3.93-3,5.27,4.83" transform="translate(-8.57 -8.81)"/><path class="cls-20" d="M56.94,43.57c0,5.07,5.2,9.17,11.61,9.17s11.61-4.1,11.61-9.16h0c0-5.06-5.19-9.16-11.6-9.16s-11.62,4.1-11.62,9.16h0M29.57,45.11c0,5.07,5.19,9.17,11.61,9.17s11.61-4.1,11.61-9.17h0c0-5.06-5.2-9.16-11.61-9.16s-11.61,4.1-11.61,9.16h0" transform="translate(-8.57 -8.81)"/><path class="cls-21" d="M61.23,45.42c0,3.54,3.55,6.42,7.94,6.42s7.94-2.88,7.94-6.42S73.56,39,69.18,39s-8,2.87-8,6.41h0M32,43.88c0,3.55,3.55,6.42,7.94,6.42s8-2.87,8-6.41h0c0-3.54-3.55-6.42-7.94-6.42s-8,2.87-8,6.41h0" transform="translate(-8.57 -8.81)"/><path class="cls-22" d="M64.13,44.81c0,2.53,2.67,4.58,6,4.58s6-2,6-4.58h0c0-2.54-2.66-4.59-6-4.59s-6,2.05-6,4.58h0m-29.83,0c0,2.53,2.66,4.58,6,4.58s6-2,6-4.58h0c0-2.54-2.66-4.59-6-4.59s-6,2.05-6,4.58h0" transform="translate(-8.57 -8.81)"/><path class="cls-17" d="M67.06,45.73c0,2.11,1.08,3.82,2.42,3.82s2.41-1.71,2.41-3.82h0c0-2.11-1.08-3.82-2.41-3.82s-2.42,1.71-2.42,3.82m-30-.62a2.93,2.93,0,0,0,3.16,2.6,2.93,2.93,0,0,0,3.17-2.59h0a2.92,2.92,0,0,0-3.16-2.59,2.93,2.93,0,0,0-3.17,2.59h0" transform="translate(-8.57 -8.81)"/><path class="cls-2" d="M310.17,24.76l3.15-4.62L316.47,22l1.46-3.36-9.44-5.24-1.89,3.36,2.52,1.68-1.89,4.19Z" transform="translate(-8.57 -8.81)"/><path class="cls-3" d="M314.5,78.22l2.31-.42.84,4.41,2.93-1,.21,2.1L313.45,86l-.84-2.73,3.15-.42Z" transform="translate(-8.57 -8.81)"/><path class="cls-4" d="M304.56,82.76l3.35-.42.21,5.88h2.52V91l-8.81.21-.42-2.94H305Z" transform="translate(-8.57 -8.81)"/><path class="cls-5" d="M285.21,75.52l2.52,1.26-4,5.87,2.73,1.68-1.05,2.31-8.82-4,1.47-2.93L281,81.19Z" transform="translate(-8.57 -8.81)"/><path class="cls-2" d="M282.51,28.21l2.94-1.05-1.68-5,2.73-.84-2.31-3.35L275,23,276,25.48,280.42,24Zm50.9,28.9-1.26,3.15,4.62,1.26-1.47,3.15,3.35,1.26,3.78-9.66-4-1.26-1.25,3.57Zm-66.76-24.3-4,5.25,1.68,1.25L266,37.64l2.73,2.72,2.31-1.67L267.91,36l1.89-1.89Z" transform="translate(-8.57 -8.81)"/><path class="cls-6" d="M264.64,52.76c0,17.85,15.7,32.32,35.06,32.32s35.05-14.47,35.05-32.32h0c0-17.86-15.69-32.33-35.05-32.33S264.64,34.9,264.64,52.76h0" transform="translate(-8.57 -8.81)"/><path class="cls-7" d="M289.11,8.81v4.83h4.62l.21,14.69,4.19-.42-.84-14.06,4.83.21V9.44Z" transform="translate(-8.57 -8.81)"/><path class="cls-8" d="M317.82,32.25l3.57,2.52,7.77-9.66,3.57,3.57,3.35-3.57-9.44-8.61-3.15,4.62L326.22,23Z" transform="translate(-8.57 -8.81)"/><path class="cls-9" d="M327.71,41.32l.84,3.35,8.82-3.56,1.26,4.82,3.77-1-3.77-13.22-4,.84.84,4.83Z" transform="translate(-8.57 -8.81)"/><path class="cls-10" d="M327.25,66,325.78,69l7.56,5.25L331.45,78,335,79.68,340.9,70l-3.78-2.73-2.31,3.57Z" transform="translate(-8.57 -8.81)"/><path class="cls-11" d="M321,72.37l-2.31,1.47L323.48,82l-3.15,1.68,2.31,2.94,8-4-2.1-3.77-2.73,1.47Z" transform="translate(-8.57 -8.81)"/><path class="cls-12" d="M269.46,56.37l.42,3.57-7.77,1.26.63,3.15H260L259,52.8h2.73l.63,3.36Zm23.2,23.06,3-.3-1.89,9.65,3.36.63-.84,4.41-9.87-2.31,1.26-4.41,3.15.84Z" transform="translate(-8.57 -8.81)"/><path class="cls-13" d="M276,69.68l3.36,2.52-9.86,8.6L272,83.32l-2.73,2.94L262,79.12l3.78-2.94,2.1,1.89Z" transform="translate(-8.57 -8.81)"/><path class="cls-14" d="M270.65,45l.21,5.25-13-2.31-.21,3.78-4.83-.42.84-12.39,5,.63-.42,3.36Z" transform="translate(-8.57 -8.81)"/><path class="cls-15" d="M277.47,34l-6.92-9,4.4-2.73-3.14-2.94L261.73,26l1.89,2.31L267,26.46l7.55,10.29Z" transform="translate(-8.57 -8.81)"/><path class="cls-16" d="M271.21,52.24c0,15.41,12.12,27.9,27.07,27.9s27.07-12.49,27.07-27.9-12.12-27.89-27.07-27.89-27.07,12.49-27.07,27.89" transform="translate(-8.57 -8.81)"/><path class="cls-17" d="M290.14,66q8.49,4.45,29-8.08Q308.71,79.19,294.75,75.3,284,71.57,280.07,59.47Z" transform="translate(-8.57 -8.81)"/><path class="cls-18" d="M303.17,70.79l1.52,4.65,4.69-3.63-4.13-1.69" transform="translate(-8.57 -8.81)"/><path class="cls-19" d="M284.39,61.92l2.3,6.62L290.58,66,288,62.5M292.76,67l4.32,3.57L300,66.12l-3.7-.6Zm10.91-1.37,7.05-3.45v6.33" transform="translate(-8.57 -8.81)"/><path class="cls-20" d="M273.81,45.11c0,5.07,5.19,9.17,11.61,9.17S297,50.18,297,45.11h0c0-5.06-5.2-9.16-11.61-9.16s-11.61,4.1-11.61,9.16h0m27.25-1.54c0,3.94,5.25,7.13,11.74,7.13s11.73-3.19,11.73-7.13-5.25-7.12-11.73-7.12-11.74,3.19-11.74,7.12" transform="translate(-8.57 -8.81)"/><path class="cls-21" d="M276.24,43.88c0,3.55,3.56,6.42,7.95,6.42s7.94-2.87,7.94-6.42-3.55-6.42-7.94-6.42-7.94,2.87-7.95,6.41h0m28.93,1.54c0,1.33,3.68,2.4,8.24,2.4s8.24-1.07,8.25-2.4h0c0-1.32-3.69-2.4-8.24-2.4s-8.25,1.07-8.25,2.4h0" transform="translate(-8.57 -8.81)"/><path class="cls-22" d="M278.54,44.81c0,2.53,2.66,4.58,5.95,4.58s6-2,6-4.58h0c0-2.54-2.66-4.59-5.95-4.59s-6,2.05-6,4.58h0m30.95,0c0,.25,2.16.46,4.84.46s4.85-.21,4.85-.46h0c0-.26-2.17-.47-4.84-.47s-4.85.21-4.85.46h0" transform="translate(-8.57 -8.81)"/><path class="cls-17" d="M281.33,45.11a3.23,3.23,0,0,0,6.33,0h0a3.23,3.23,0,0,0-6.33,0h0m30.25,0c0,.47,1,.86,2.3.86s2.31-.39,2.31-.86h0c0-.48-1-.87-2.3-.87s-2.31.39-2.31.86h0" transform="translate(-8.57 -8.81)"/><path class="cls-2" d="M188.18,24.76l3.15-4.62L194.47,22l1.47-3.36-9.44-5.24-1.89,3.36,2.52,1.68-1.89,4.19Z" transform="translate(-8.57 -8.81)"/><path class="cls-3" d="M192.51,78.22l2.3-.42.84,4.41,2.94-1,.21,2.1L191.46,86l-.84-2.73,3.15-.42Z" transform="translate(-8.57 -8.81)"/><path class="cls-4" d="M182.56,82.76l3.36-.42.21,5.88h2.52V91l-8.81.21-.42-2.94H183Z" transform="translate(-8.57 -8.81)"/><path class="cls-5" d="M163.22,75.52l2.52,1.26-4,5.87,2.73,1.68-1,2.31-8.82-4,1.47-2.93L159,81.19Z" transform="translate(-8.57 -8.81)"/><path class="cls-2" d="M160.52,28.21l2.94-1.05-1.68-5,2.73-.84-2.31-3.35L153,23,154,25.48l4.4-1.47Zm50.9,28.9-1.26,3.15,4.61,1.26-1.46,3.15,3.35,1.26,3.78-9.66-4-1.26-1.26,3.57Zm-66.76-24.3-4,5.25,1.68,1.25L144,37.64l2.73,2.72,2.31-1.67L145.92,36l1.89-1.89Z" transform="translate(-8.57 -8.81)"/><path class="cls-6" d="M142.65,52.76c0,17.85,15.7,32.32,35.06,32.32s35-14.47,35-32.32h0c0-17.86-15.69-32.33-35-32.33S142.65,34.9,142.65,52.76h0" transform="translate(-8.57 -8.81)"/><path class="cls-7" d="M167.12,8.81v4.83h4.62L172,28.33l4.19-.42-.84-14.06,4.83.21V9.44Z" transform="translate(-8.57 -8.81)"/><path class="cls-8" d="M195.83,32.25l3.57,2.52,7.77-9.66,3.57,3.57,3.35-3.57-9.44-8.61-3.15,4.62L204.23,23Z" transform="translate(-8.57 -8.81)"/><path class="cls-9" d="M205.72,41.32l.84,3.35,8.82-3.56,1.25,4.82,3.78-1-3.78-13.22-4,.84.84,4.83Z" transform="translate(-8.57 -8.81)"/><path class="cls-10" d="M205.26,66,203.79,69l7.56,5.25L209.46,78,213,79.68,218.91,70l-3.78-2.73-2.31,3.57Z" transform="translate(-8.57 -8.81)"/><path class="cls-11" d="M199,72.37l-2.31,1.47L201.49,82l-3.15,1.68,2.31,2.94,8-4-2.1-3.77-2.73,1.47Z" transform="translate(-8.57 -8.81)"/><path class="cls-12" d="M147.47,56.37l.42,3.57-7.77,1.26.63,3.15H138L137,52.8h2.73l.63,3.36Zm23.2,23.06,3-.3-1.89,9.65,3.36.63-.84,4.41-9.87-2.31,1.26-4.41,3.15.84Z" transform="translate(-8.57 -8.81)"/><path class="cls-13" d="M154,69.68l3.36,2.52-9.86,8.6L150,83.32l-2.73,2.94L140,79.12l3.78-2.94,2.1,1.89Z" transform="translate(-8.57 -8.81)"/><path class="cls-14" d="M148.66,45l.21,5.25-13-2.31-.21,3.78-4.83-.42.84-12.39,5,.63-.41,3.36Z" transform="translate(-8.57 -8.81)"/><path class="cls-15" d="M155.48,34l-6.93-9L153,22.26l-3.15-2.94L139.74,26l1.89,2.31L145,26.46l7.55,10.29Z" transform="translate(-8.57 -8.81)"/><path class="cls-16" d="M149.22,52.24c0,15.41,12.12,27.9,27.07,27.9s27.07-12.49,27.07-27.9-12.12-27.89-27.07-27.89-27.07,12.49-27.07,27.89" transform="translate(-8.57 -8.81)"/><path class="cls-20" d="M151.82,45.11c0,5.07,5.19,9.17,11.61,9.17S175,50.18,175,45.11h0c0-5.06-5.2-9.16-11.61-9.16s-11.61,4.1-11.61,9.16h0m26-1.54c0,5.69,5.83,10.29,13,10.3s13-4.6,13-10.28v0c0-5.68-5.84-10.28-13-10.28s-13,4.6-13,10.28h0" transform="translate(-8.57 -8.81)"/><path class="cls-21" d="M154.25,43.88c0,3.55,3.56,6.42,7.95,6.42s7.94-2.87,7.94-6.42-3.55-6.42-7.94-6.42-7.95,2.87-7.95,6.41h0M182,45.42c0,3.87,4.21,7,9.4,7s9.4-3.13,9.4-7h0c0-3.87-4.21-7-9.4-7s-9.4,3.13-9.4,7" transform="translate(-8.57 -8.81)"/><path class="cls-22" d="M156.55,44.81c0,2.53,2.66,4.58,5.95,4.58s6-2,6-4.58h0c0-2.54-2.66-4.59-6-4.59s-6,2.05-6,4.58h0m30,0c0,1.9,2.57,3.44,5.74,3.44s5.74-1.54,5.74-3.44h0c0-1.91-2.56-3.45-5.73-3.45s-5.74,1.54-5.75,3.44h0" transform="translate(-8.57 -8.81)"/><path class="cls-17" d="M159.34,45.11a3.23,3.23,0,0,0,6.33,0h0a3.23,3.23,0,0,0-6.33,0h0m28.67,0c0,1.66,1.74,3,3.88,3s3.89-1.35,3.89-3h0c0-1.67-1.74-3-3.88-3s-3.89,1.35-3.89,3h0" transform="translate(-8.57 -8.81)"/><path class="cls-17" d="M164.41,54.87q12.09-6,32.78,3Q186.72,79.19,172.76,75.3,162,71.57,158.08,59.47Z" transform="translate(-8.57 -8.81)"/><path class="cls-19" d="M183.69,53.43l7.63,1.73-6.76,6.18m-21-5.61L168,61.49l2.45-8.63-4,.43m6-.58,4.63,4.94,3-4.48-3.55-1.9Z" transform="translate(-8.57 -8.81)"/><path class="cls-18" d="M163.69,69.4l6.05-4L169,73.72m12.16-2.93.21,4.51,6-3.49-4-5.43" transform="translate(-8.57 -8.81)"/><path class="cls-1" d="M399.1,50.6c0,7.7,7,13.95,15.58,14s15.59-6.24,15.6-13.94v0c0-7.7-7-14-15.58-14s-15.59,6.24-15.6,13.94h0" transform="translate(-8.57 -8.81)"/><path class="cls-2" d="M432.32,24.76l3.15-4.62L438.62,22l1.47-3.36-9.45-5.24-1.89,3.36,2.52,1.68-1.89,4.19Z" transform="translate(-8.57 -8.81)"/><path class="cls-3" d="M436.65,78.22,439,77.8l.84,4.41,2.94-1,.21,2.1L435.6,86l-.84-2.73,3.15-.42Z" transform="translate(-8.57 -8.81)"/><path class="cls-4" d="M426.71,82.76l3.36-.42.21,5.88h2.51V91l-8.81.21-.42-2.94h3.57Z" transform="translate(-8.57 -8.81)"/><path class="cls-5" d="M407.36,75.52l2.52,1.26-4,5.87,2.73,1.68-1.05,2.31-8.82-4,1.47-2.93,2.94,1.47Z" transform="translate(-8.57 -8.81)"/><path class="cls-2" d="M404.67,28.21l2.94-1.05-1.68-5,2.72-.84-2.3-3.35-9.24,5,1.05,2.52L402.57,24Zm50.89,28.9-1.26,3.15,4.62,1.26-1.47,3.15,3.36,1.26,3.78-9.66-4-1.26-1.26,3.57ZM388.8,32.81l-4,5.25,1.68,1.25,1.67-1.67,2.73,2.72,2.31-1.67L390.06,36,392,34.07Z" transform="translate(-8.57 -8.81)"/><path class="cls-6" d="M386.79,52.76c0,17.85,15.7,32.32,35.06,32.32s35-14.47,35-32.32h0c0-17.86-15.69-32.33-35-32.33S386.79,34.9,386.79,52.76h0" transform="translate(-8.57 -8.81)"/><path class="cls-7" d="M411.26,8.81v4.83h4.62l.21,14.69,4.2-.42-.84-14.06,4.83.21V9.44Z" transform="translate(-8.57 -8.81)"/><path class="cls-8" d="M440,32.25l3.56,2.52,7.77-9.66,3.57,3.57,3.36-3.57-9.45-8.61-3.15,4.62L448.37,23Z" transform="translate(-8.57 -8.81)"/><path class="cls-9" d="M449.86,41.32l.84,3.35,8.82-3.56,1.26,4.82,3.78-1-3.78-13.22-4,.84.84,4.83Z" transform="translate(-8.57 -8.81)"/><path class="cls-10" d="M449.41,66,447.94,69l7.55,5.25L453.6,78l3.57,1.68L463.05,70l-3.78-2.73L457,70.86Z" transform="translate(-8.57 -8.81)"/><path class="cls-11" d="M443.11,72.37l-2.31,1.47L445.63,82l-3.15,1.68,2.31,2.94,8-4-2.1-3.77-2.73,1.47Z" transform="translate(-8.57 -8.81)"/><path class="cls-12" d="M391.61,56.37l.42,3.57-7.77,1.26.63,3.15h-2.73L381.11,52.8h2.73l.63,3.36Zm23.21,23.06,3-.3-1.89,9.65,3.36.63-.84,4.41-9.87-2.31,1.26-4.41,3.15.84Z" transform="translate(-8.57 -8.81)"/><path class="cls-13" d="M398.17,69.68l3.36,2.52-9.87,8.6,2.52,2.52-2.73,2.94-7.35-7.14,3.78-2.94,2.1,1.89Z" transform="translate(-8.57 -8.81)"/><path class="cls-14" d="M392.8,45l.21,5.25-13-2.31-.21,3.78L375,51.27l.84-12.39,5,.63-.42,3.36Z" transform="translate(-8.57 -8.81)"/><path class="cls-15" d="M399.63,34l-6.93-9,4.41-2.73L394,19.32,383.88,26l1.89,2.31,3.36-1.89,7.56,10.29Z" transform="translate(-8.57 -8.81)"/><path class="cls-16" d="M393.36,52.24c0,15.41,12.12,27.9,27.07,27.9s27.08-12.49,27.08-27.9-12.12-27.89-27.08-27.89-27.07,12.49-27.07,27.89" transform="translate(-8.57 -8.81)"/><path class="cls-17" d="M409.27,66q12.75-5.61,30.6,2.78-.63-14.07-19.94-13.64-15.12,1.26-16.58,14.9Z" transform="translate(-8.57 -8.81)"/><path class="cls-18" d="M426.33,55.26l1.53,4.65,4.69-3.63-4.13-1.68" transform="translate(-8.57 -8.81)"/><path class="cls-19" d="M415.26,55.57l4.32,3.57,2.95-4.48-3.7-.6ZM407,60.8l4.55,1.52,1.21-6.21-3.92,1.34m16.65,7.4,3.94-3,5.26,4.83" transform="translate(-8.57 -8.81)"/><path class="cls-20" d="M423.34,43.57c0,5.07,5.2,9.17,11.61,9.17s11.61-4.1,11.61-9.16h0c0-5.06-5.2-9.16-11.61-9.16s-11.61,4.1-11.61,9.16h0M396,45.11c0,5.07,5.2,9.17,11.61,9.17s11.61-4.1,11.61-9.17h0c0-5.06-5.2-9.16-11.61-9.16S396,40.05,396,45.11h0" transform="translate(-8.57 -8.81)"/><path class="cls-21" d="M427.62,45.42c0,3.54,3.56,6.42,7.94,6.42s7.95-2.88,7.95-6.42S440,39,435.57,39s-7.95,2.87-7.95,6.41h0M398.4,43.88c0,3.55,3.55,6.42,7.93,6.42s7.95-2.87,7.95-6.41h0c0-3.54-3.55-6.42-7.94-6.42s-7.94,2.87-7.94,6.41h0" transform="translate(-8.57 -8.81)"/><path class="cls-22" d="M430.53,44.81c0,2.53,2.66,4.58,6,4.58s6-2,6-4.58h0c0-2.54-2.66-4.59-5.95-4.59s-6,2.05-6,4.58h0m-29.84,0c0,2.53,2.66,4.58,5.95,4.58s6-2,6-4.58h0c0-2.54-2.66-4.59-6-4.59s-6,2.05-6,4.58h0" transform="translate(-8.57 -8.81)"/><path class="cls-17" d="M433.46,45.73c0,2.11,1.08,3.82,2.41,3.82s2.42-1.71,2.42-3.82h0c0-2.11-1.08-3.82-2.42-3.82s-2.41,1.71-2.41,3.82m-30-.62a3.23,3.23,0,0,0,6.33,0h0a3.23,3.23,0,0,0-6.33,0h0" transform="translate(-8.57 -8.81)"/><path class="cls-2" d="M676.56,24.76l3.15-4.62L682.86,22l1.47-3.36-9.45-5.24L673,16.79l2.52,1.68-1.89,4.19Z" transform="translate(-8.57 -8.81)"/><path class="cls-3" d="M680.89,78.22l2.31-.42.84,4.41,2.94-1,.21,2.1L679.84,86,679,83.26l3.15-.42Z" transform="translate(-8.57 -8.81)"/><path class="cls-4" d="M671,82.76l3.36-.42.21,5.88H677V91l-8.82.21-.42-2.94h3.57Z" transform="translate(-8.57 -8.81)"/><path class="cls-5" d="M651.6,75.52l2.52,1.26-4,5.87,2.73,1.68-1.05,2.31-8.82-4,1.47-2.93,2.94,1.47Z" transform="translate(-8.57 -8.81)"/><path class="cls-2" d="M648.91,28.21l2.94-1.05-1.68-5,2.73-.84-2.31-3.35-9.24,5,1,2.52L646.81,24Zm50.89,28.9-1.26,3.15,4.62,1.26-1.47,3.15,3.36,1.26,3.78-9.66-4-1.26-1.26,3.57Zm-66.75-24.3-4,5.25,1.68,1.25,1.68-1.67,2.72,2.72,2.31-1.67L634.3,36l1.89-1.89Z" transform="translate(-8.57 -8.81)"/><path class="cls-6" d="M631,52.76c0,17.85,15.69,32.32,35.05,32.32s35-14.47,35-32.32h0c0-17.86-15.69-32.33-35-32.33S631,34.9,631,52.76h0" transform="translate(-8.57 -8.81)"/><path class="cls-7" d="M655.5,8.81v4.83h4.62l.21,14.69,4.2-.42-.84-14.06,4.83.21V9.44Z" transform="translate(-8.57 -8.81)"/><path class="cls-8" d="M684.22,32.25l3.56,2.52,7.77-9.66,3.57,3.57,3.36-3.57L693,16.5l-3.15,4.62L692.61,23Z" transform="translate(-8.57 -8.81)"/><path class="cls-9" d="M694.1,41.32l.84,3.35,8.82-3.56L705,45.93l3.78-1L705,31.66l-4,.84.84,4.83Z" transform="translate(-8.57 -8.81)"/><path class="cls-10" d="M693.65,66,692.18,69l7.56,5.25L697.85,78l3.56,1.68L707.29,70l-3.78-2.73-2.31,3.57Z" transform="translate(-8.57 -8.81)"/><path class="cls-11" d="M687.35,72.37l-2.3,1.47L689.87,82l-3.15,1.68L689,86.64l8-4-2.1-3.77-2.73,1.47Z" transform="translate(-8.57 -8.81)"/><path class="cls-12" d="M635.85,56.37l.42,3.57L628.5,61.2l.63,3.15H626.4l-1-11.55h2.73l.63,3.36Zm23.21,23.06,3-.3-1.89,9.65,3.36.63-.84,4.41-9.86-2.31,1.25-4.41,3.15.84Z" transform="translate(-8.57 -8.81)"/><path class="cls-13" d="M642.41,69.68l3.36,2.52-9.87,8.6,2.52,2.52-2.73,2.94-7.35-7.14,3.78-2.94,2.1,1.89Z" transform="translate(-8.57 -8.81)"/><path class="cls-14" d="M637,45l.21,5.25-13-2.31L624,51.69l-4.83-.42L620,38.88l5,.63-.42,3.36Z" transform="translate(-8.57 -8.81)"/><path class="cls-15" d="M643.87,34l-6.93-9,4.41-2.73-3.15-2.94L628.12,26,630,28.35l3.36-1.89,7.56,10.29Z" transform="translate(-8.57 -8.81)"/><path class="cls-16" d="M637.6,52.24c0,15.41,12.12,27.9,27.07,27.9s27.08-12.49,27.08-27.9-12.12-27.89-27.08-27.89S637.6,36.84,637.6,52.24" transform="translate(-8.57 -8.81)"/><path class="cls-17" d="M656.54,66q8.49,4.45,29-8.08Q675.1,79.19,661.14,75.3q-10.78-3.73-14.67-15.83Z" transform="translate(-8.57 -8.81)"/><path class="cls-18" d="M669.57,70.79l1.52,4.65,4.69-3.63-4.13-1.69" transform="translate(-8.57 -8.81)"/><path class="cls-19" d="M650.78,61.92l2.3,6.62L657,66l-2.59-3.45M659.16,67l4.31,3.57,2.95-4.48-3.7-.6Zm10.9-1.37,7.05-3.45v6.33" transform="translate(-8.57 -8.81)"/><path class="cls-20" d="M640.2,45.11c0,5.07,5.2,9.17,11.61,9.17s11.61-4.1,11.61-9.17h0c0-5.06-5.2-9.16-11.61-9.16s-11.61,4.1-11.61,9.16h0m27.25-1.54c0,3.94,5.26,7.13,11.74,7.13s11.74-3.19,11.74-7.13-5.26-7.12-11.74-7.12-11.74,3.19-11.74,7.12" transform="translate(-8.57 -8.81)"/><path class="cls-21" d="M642.64,43.88c0,3.55,3.55,6.42,7.94,6.42s7.94-2.87,7.94-6.42-3.55-6.42-7.93-6.42-8,2.87-8,6.41h0m28.92,1.54c0,1.33,3.69,2.4,8.24,2.4s8.25-1.07,8.25-2.4h0c0-1.32-3.69-2.4-8.24-2.4s-8.25,1.07-8.25,2.4h0" transform="translate(-8.57 -8.81)"/><path class="cls-22" d="M644.93,44.81c0,2.53,2.66,4.58,6,4.58s6-2,6-4.58h0c0-2.54-2.67-4.59-6-4.59s-6,2.05-6,4.58h0m31,0c0,.25,2.17.46,4.84.46s4.85-.21,4.85-.46h0c0-.26-2.16-.47-4.84-.47s-4.85.21-4.85.46h0" transform="translate(-8.57 -8.81)"/><path class="cls-17" d="M647.72,45.11a3.23,3.23,0,0,0,6.33,0h0a3.23,3.23,0,0,0-6.33,0h0m30.26,0c0,.47,1,.86,2.3.86s2.3-.39,2.3-.86h0c0-.48-1-.87-2.3-.87s-2.3.39-2.3.86h0" transform="translate(-8.57 -8.81)"/><path class="cls-2" d="M554.57,24.76l3.15-4.62L560.87,22l1.47-3.36-9.45-5.24L551,16.79l2.52,1.68-1.89,4.19Z" transform="translate(-8.57 -8.81)"/><path class="cls-3" d="M558.9,78.22l2.31-.42.84,4.41,2.94-1,.21,2.1L557.85,86,557,83.26l3.15-.42Z" transform="translate(-8.57 -8.81)"/><path class="cls-4" d="M549,82.76l3.36-.42.21,5.88h2.52V91l-8.82.21-.42-2.94h3.57Z" transform="translate(-8.57 -8.81)"/><path class="cls-5" d="M529.61,75.52l2.52,1.26-4,5.87,2.73,1.68-1,2.31-8.82-4,1.47-2.93,2.94,1.47Z" transform="translate(-8.57 -8.81)"/><path class="cls-2" d="M526.92,28.21l2.94-1.05-1.68-5,2.73-.84-2.31-3.35-9.24,5,1,2.52L524.82,24Zm50.89,28.9-1.26,3.15,4.62,1.26-1.47,3.15,3.36,1.26,3.78-9.66-4-1.26-1.26,3.57Zm-66.76-24.3-4,5.25,1.68,1.25,1.67-1.67,2.73,2.72,2.31-1.67L512.31,36l1.89-1.89Z" transform="translate(-8.57 -8.81)"/><path class="cls-6" d="M509.05,52.76c0,17.85,15.69,32.32,35.05,32.32s35-14.47,35-32.32h0c0-17.86-15.69-32.33-35-32.33S509.05,34.9,509.05,52.76h0" transform="translate(-8.57 -8.81)"/><path class="cls-7" d="M533.51,8.81v4.83h4.62l.21,14.69,4.2-.42-.84-14.06,4.83.21V9.44Z" transform="translate(-8.57 -8.81)"/><path class="cls-8" d="M562.23,32.25l3.56,2.52,7.77-9.66,3.57,3.57,3.36-3.57L571,16.5l-3.15,4.62L570.62,23Z" transform="translate(-8.57 -8.81)"/><path class="cls-9" d="M572.11,41.32l.84,3.35,8.82-3.56L583,45.93l3.78-1L583,31.66l-4,.84.84,4.83Z" transform="translate(-8.57 -8.81)"/><path class="cls-10" d="M571.66,66,570.19,69l7.55,5.25L575.86,78l3.56,1.68L585.3,70l-3.78-2.73-2.31,3.57Z" transform="translate(-8.57 -8.81)"/><path class="cls-11" d="M565.36,72.37l-2.31,1.47L567.88,82l-3.15,1.68L567,86.64l8-4-2.1-3.77-2.73,1.47Z" transform="translate(-8.57 -8.81)"/><path class="cls-12" d="M513.86,56.37l.42,3.57-7.77,1.26.63,3.15h-2.73L503.36,52.8h2.73l.63,3.36Zm23.21,23.06,3-.3-1.89,9.65,3.36.63-.84,4.41-9.87-2.31,1.26-4.41,3.15.84Z" transform="translate(-8.57 -8.81)"/><path class="cls-13" d="M520.42,69.68l3.36,2.52-9.87,8.6,2.52,2.52-2.73,2.94-7.35-7.14,3.78-2.94,2.1,1.89Z" transform="translate(-8.57 -8.81)"/><path class="cls-14" d="M515.05,45l.21,5.25-13-2.31L502,51.69l-4.83-.42.84-12.39,5,.63-.42,3.36Z" transform="translate(-8.57 -8.81)"/><path class="cls-15" d="M521.88,34,515,25l4.41-2.73-3.15-2.94L506.13,26,508,28.35l3.36-1.89,7.56,10.29Z" transform="translate(-8.57 -8.81)"/><path class="cls-16" d="M515.61,52.24c0,15.41,12.12,27.9,27.07,27.9s27.08-12.49,27.08-27.9-12.12-27.89-27.08-27.89-27.07,12.49-27.07,27.89" transform="translate(-8.57 -8.81)"/><path class="cls-20" d="M518.21,45.11c0,5.07,5.2,9.17,11.61,9.17s11.61-4.1,11.61-9.17h0c0-5.06-5.2-9.16-11.61-9.16s-11.61,4.1-11.61,9.16h0m26-1.54c0,5.69,5.82,10.29,13,10.3s13-4.6,13-10.28v0c0-5.68-5.83-10.28-13-10.28s-13,4.6-13,10.28h0" transform="translate(-8.57 -8.81)"/><path class="cls-21" d="M520.65,43.88c0,3.55,3.55,6.42,7.94,6.42s7.94-2.87,7.94-6.42-3.55-6.42-7.94-6.42-7.94,2.87-7.94,6.41h0m27.77,1.54c0,3.87,4.2,7,9.39,7s9.4-3.13,9.4-7h0c0-3.87-4.21-7-9.4-7s-9.39,3.13-9.39,7" transform="translate(-8.57 -8.81)"/><path class="cls-22" d="M522.94,44.81c0,2.53,2.66,4.58,5.95,4.58s6-2,6-4.58h0c0-2.54-2.66-4.59-6-4.59s-6,2.05-6,4.58h0m30.06,0c0,1.9,2.56,3.44,5.73,3.44s5.74-1.54,5.75-3.44h0c0-1.91-2.57-3.45-5.74-3.45S553,42.9,553,44.8h0" transform="translate(-8.57 -8.81)"/><path class="cls-17" d="M525.73,45.11a3.23,3.23,0,0,0,6.33,0h0a3.23,3.23,0,0,0-6.33,0h0m28.67,0c0,1.66,1.74,3,3.89,3s3.88-1.35,3.88-3h0c0-1.67-1.73-3-3.88-3s-3.89,1.35-3.89,3h0" transform="translate(-8.57 -8.81)"/><path class="cls-17" d="M530.81,54.87q12.08-6,32.77,3Q553.11,79.19,539.15,75.3q-10.78-3.73-14.68-15.83Z" transform="translate(-8.57 -8.81)"/><path class="cls-19" d="M550.09,53.43l7.62,1.73L551,61.34m-21-5.61,4.46,5.76,2.45-8.63-4,.43m6-.58,4.64,4.94,3-4.48-3.56-1.9Z" transform="translate(-8.57 -8.81)"/><path class="cls-18" d="M530.09,69.4l6-4-.72,8.35m12.16-2.93.21,4.51,6-3.49-4-5.43" transform="translate(-8.57 -8.81)"/><path class="cls-1" d="M765.83,50.6c0,7.7,7,13.95,15.58,14S797,58.32,797,50.62v0c0-7.7-7-14-15.58-14s-15.59,6.24-15.59,13.94h0" transform="translate(-8.57 -8.81)"/><path class="cls-2" d="M799,24.76l3.15-4.62L805.34,22l1.47-3.36-9.45-5.24-1.88,3.36L798,18.47l-1.88,4.19Z" transform="translate(-8.57 -8.81)"/><path class="cls-3" d="M803.37,78.22l2.31-.42.84,4.41,2.94-1,.21,2.1L802.32,86l-.84-2.73,3.15-.42Z" transform="translate(-8.57 -8.81)"/><path class="cls-4" d="M793.43,82.76l3.36-.42.21,5.88h2.52V91l-8.82.21-.42-2.94h3.57Z" transform="translate(-8.57 -8.81)"/><path class="cls-5" d="M774.08,75.52l2.52,1.26-4,5.87,2.73,1.68-1.05,2.31-8.81-4L767,79.72l2.93,1.47Z" transform="translate(-8.57 -8.81)"/><path class="cls-2" d="M771.39,28.21l2.94-1.05-1.68-5,2.73-.84-2.31-3.35-9.24,5,1,2.52L769.29,24Zm50.89,28.9L821,60.26l4.62,1.26-1.47,3.15,3.36,1.26,3.78-9.66-4-1.26-1.26,3.57Zm-66.75-24.3-4,5.25,1.68,1.25,1.68-1.67,2.73,2.72,2.31-1.67L756.79,36l1.89-1.89Z" transform="translate(-8.57 -8.81)"/><path class="cls-6" d="M753.52,52.76c0,17.85,15.69,32.32,35.05,32.32s35.06-14.47,35.06-32.32h0c0-17.86-15.7-32.33-35.06-32.33S753.52,34.9,753.52,52.76h0" transform="translate(-8.57 -8.81)"/><path class="cls-7" d="M778,8.81v4.83h4.62l.21,14.69,4.2-.42-.84-14.06,4.83.21V9.44Z" transform="translate(-8.57 -8.81)"/><path class="cls-8" d="M806.7,32.25l3.57,2.52L818,25.11l3.57,3.57L825,25.11l-9.45-8.61-3.14,4.62L815.1,23Z" transform="translate(-8.57 -8.81)"/><path class="cls-9" d="M816.59,41.32l.84,3.35,8.81-3.56,1.26,4.82,3.78-1L827.5,31.66l-4,.84.84,4.83Z" transform="translate(-8.57 -8.81)"/><path class="cls-10" d="M816.13,66,814.66,69l7.56,5.25L820.33,78l3.57,1.68L829.77,70,826,67.29l-2.31,3.57Z" transform="translate(-8.57 -8.81)"/><path class="cls-11" d="M809.84,72.37l-2.31,1.47L812.36,82l-3.15,1.68,2.31,2.94,8-4-2.1-3.77-2.73,1.47Z" transform="translate(-8.57 -8.81)"/><path class="cls-12" d="M758.33,56.37l.42,3.57L751,61.2l.63,3.15h-2.73l-1-11.55h2.73l.63,3.36Zm23.21,23.06,3-.3-1.89,9.65,3.36.63-.84,4.41-9.86-2.31,1.26-4.41,3.15.84Z" transform="translate(-8.57 -8.81)"/><path class="cls-13" d="M764.89,69.68l3.36,2.52-9.87,8.6,2.52,2.52-2.73,2.94-7.34-7.14,3.77-2.94,2.1,1.89Z" transform="translate(-8.57 -8.81)"/><path class="cls-14" d="M759.53,45l.21,5.25-13-2.31-.21,3.78-4.83-.42.84-12.39,5,.63-.42,3.36Z" transform="translate(-8.57 -8.81)"/><path class="cls-15" d="M766.35,34l-6.93-9,4.41-2.73-3.15-2.94L750.61,26l1.88,2.31,3.36-1.89,7.56,10.29Z" transform="translate(-8.57 -8.81)"/><path class="cls-16" d="M760.08,52.24c0,15.41,12.12,27.9,27.08,27.9s27.07-12.49,27.07-27.9-12.12-27.89-27.07-27.89-27.08,12.49-27.08,27.89" transform="translate(-8.57 -8.81)"/><path class="cls-17" d="M776,66q12.76-5.61,30.6,2.78Q806,54.73,786.65,55.16q-15.1,1.26-16.58,14.9Z" transform="translate(-8.57 -8.81)"/><path class="cls-18" d="M793.06,55.26l1.52,4.65,4.69-3.63-4.13-1.68" transform="translate(-8.57 -8.81)"/><path class="cls-19" d="M782,55.57l4.32,3.57,3-4.48-3.7-.6Zm-8.3,5.23,4.54,1.52,1.21-6.21-3.92,1.34m16.65,7.4,3.94-3,5.26,4.83" transform="translate(-8.57 -8.81)"/><path class="cls-20" d="M790.06,43.57c0,5.07,5.2,9.17,11.61,9.17s11.61-4.1,11.61-9.16h0c0-5.06-5.2-9.16-11.61-9.16s-11.61,4.1-11.61,9.16h0m-27.38,1.54c0,5.07,5.2,9.17,11.61,9.17s11.61-4.1,11.61-9.17h0c0-5.06-5.19-9.16-11.61-9.16s-11.61,4.1-11.61,9.16h0" transform="translate(-8.57 -8.81)"/><path class="cls-21" d="M794.34,45.42c0,3.54,3.56,6.42,7.95,6.42s7.94-2.88,7.94-6.42S806.68,39,802.29,39s-7.94,2.87-7.95,6.41h0m-29.22-1.54c0,3.55,3.55,6.42,7.94,6.42s7.94-2.87,8-6.41h0c0-3.54-3.56-6.42-7.94-6.42s-8,2.87-8,6.41h0" transform="translate(-8.57 -8.81)"/><path class="cls-22" d="M797.25,44.81c0,2.53,2.67,4.58,6,4.58s6-2,6-4.58h0c0-2.54-2.67-4.59-6-4.59s-6,2.05-6,4.58h0m-29.84,0c0,2.53,2.67,4.58,6,4.58s6-2,6-4.58h0c0-2.54-2.67-4.59-6-4.59s-6,2.05-6,4.58h0" transform="translate(-8.57 -8.81)"/><path class="cls-17" d="M800.18,45.73c0,2.11,1.08,3.82,2.41,3.82S805,47.84,805,45.73h0c0-2.11-1.08-3.82-2.42-3.82s-2.41,1.71-2.41,3.82m-30-.62a3.23,3.23,0,0,0,6.34,0h0a3.23,3.23,0,0,0-6.34,0h0" transform="translate(-8.57 -8.81)"/><path class="cls-2" d="M1043.29,24.76l3.14-4.62,3.15,1.89,1.47-3.36-9.44-5.24-1.89,3.36,2.52,1.68-1.89,4.19Z" transform="translate(-8.57 -8.81)"/><path class="cls-3" d="M1047.61,78.22l2.31-.42.84,4.41,2.94-1,.21,2.1L1046.56,86l-.84-2.73,3.15-.42Z" transform="translate(-8.57 -8.81)"/><path class="cls-4" d="M1037.67,82.76l3.36-.42.21,5.88h2.52V91l-8.82.21-.42-2.94h3.57Z" transform="translate(-8.57 -8.81)"/><path class="cls-5" d="M1018.32,75.52l2.52,1.26-4,5.87,2.73,1.68-1.05,2.31-8.81-4,1.47-2.93,2.94,1.47Z" transform="translate(-8.57 -8.81)"/><path class="cls-2" d="M1015.63,28.21l2.94-1.05-1.68-5,2.73-.84-2.31-3.35-9.24,5,1,2.52,4.41-1.47Zm50.89,28.9-1.26,3.15,4.62,1.26-1.47,3.15,3.36,1.26,3.78-9.66-4-1.26-1.26,3.57Zm-66.75-24.3-4,5.25,1.68,1.25,1.68-1.67,2.73,2.72,2.31-1.67L1001,36l1.89-1.89Z" transform="translate(-8.57 -8.81)"/><path class="cls-6" d="M997.76,52.76c0,17.85,15.69,32.32,35,32.32s35.06-14.47,35.06-32.32h0c0-17.86-15.7-32.33-35.06-32.33s-35,14.47-35,32.33h0" transform="translate(-8.57 -8.81)"/><path class="cls-7" d="M1022.23,8.81v4.83h4.61l.21,14.69,4.2-.42-.84-14.06,4.83.21V9.44Z" transform="translate(-8.57 -8.81)"/><path class="cls-8" d="M1050.94,32.25l3.57,2.52,7.76-9.66,3.57,3.57,3.36-3.57-9.44-8.61-3.15,4.62,2.73,1.89Z" transform="translate(-8.57 -8.81)"/><path class="cls-9" d="M1060.83,41.32l.84,3.35,8.81-3.56,1.26,4.82,3.78-1-3.78-13.22-4,.84.84,4.83Z" transform="translate(-8.57 -8.81)"/><path class="cls-10" d="M1060.37,66,1058.9,69l7.56,5.25L1064.57,78l3.57,1.68L1074,70l-3.78-2.73-2.31,3.57Z" transform="translate(-8.57 -8.81)"/><path class="cls-11" d="M1054.08,72.37l-2.31,1.47L1056.6,82l-3.15,1.68,2.31,2.94,8-4-2.1-3.77-2.72,1.47Z" transform="translate(-8.57 -8.81)"/><path class="cls-12" d="M1002.57,56.37l.42,3.57-7.76,1.26.63,3.15h-2.73l-1-11.55h2.73l.63,3.36Zm23.21,23.06,3-.3-1.88,9.65,3.35.63-.84,4.41-9.86-2.31,1.26-4.41,3.15.84Z" transform="translate(-8.57 -8.81)"/><path class="cls-13" d="M1009.13,69.68l3.36,2.52-9.87,8.6,2.52,2.52-2.73,2.94-7.34-7.14,3.78-2.94,2.09,1.89Z" transform="translate(-8.57 -8.81)"/><path class="cls-14" d="M1003.77,45l.21,5.25-13-2.31-.21,3.78-4.82-.42.83-12.39,5,.63-.42,3.36Z" transform="translate(-8.57 -8.81)"/><path class="cls-15" d="M1010.59,34l-6.93-9,4.41-2.73-3.15-2.94L994.85,26l1.89,2.31,3.35-1.89,7.56,10.29Z" transform="translate(-8.57 -8.81)"/><path class="cls-16" d="M1004.32,52.24c0,15.41,12.13,27.9,27.08,27.9s27.07-12.49,27.07-27.9-12.12-27.89-27.07-27.89-27.08,12.49-27.08,27.89" transform="translate(-8.57 -8.81)"/><path class="cls-17" d="M1023.26,66q8.49,4.45,29-8.08-10.48,21.32-24.43,17.43-10.8-3.73-14.68-15.83Z" transform="translate(-8.57 -8.81)"/><path class="cls-18" d="M1036.29,70.79l1.52,4.65,4.69-3.63-4.13-1.69" transform="translate(-8.57 -8.81)"/><path class="cls-19" d="M1017.51,61.92l2.3,6.62,3.88-2.59-2.59-3.45m4.78,4.53,4.32,3.57,3-4.48-3.7-.6Zm10.91-1.37,7-3.45v6.33" transform="translate(-8.57 -8.81)"/><path class="cls-20" d="M1006.92,45.11c0,5.07,5.2,9.17,11.61,9.17s11.61-4.1,11.61-9.17h0c0-5.06-5.19-9.16-11.61-9.16s-11.61,4.1-11.61,9.16h0m27.26-1.54c0,3.94,5.25,7.13,11.73,7.13s11.74-3.19,11.74-7.13-5.25-7.12-11.74-7.12-11.73,3.19-11.73,7.12" transform="translate(-8.57 -8.81)"/><path class="cls-21" d="M1009.36,43.88c0,3.55,3.56,6.42,7.94,6.42s8-2.87,8-6.42-3.55-6.42-7.94-6.42-7.95,2.87-7.95,6.41h0m28.92,1.54c0,1.33,3.69,2.4,8.24,2.4s8.25-1.07,8.25-2.4h0c0-1.32-3.68-2.4-8.24-2.4s-8.24,1.07-8.25,2.4h0" transform="translate(-8.57 -8.81)"/><path class="cls-22" d="M1011.65,44.81c0,2.53,2.67,4.58,6,4.58s6-2,6-4.58h0c0-2.54-2.66-4.59-6-4.59s-6,2.05-6,4.58h0m30.95,0c0,.25,2.17.46,4.85.46s4.85-.21,4.85-.46h0c0-.26-2.17-.47-4.85-.47s-4.84.21-4.85.46h0" transform="translate(-8.57 -8.81)"/><path class="cls-17" d="M1014.45,45.11a3.23,3.23,0,0,0,6.33,0h0a3.23,3.23,0,0,0-6.33,0h0m30.25,0c0,.47,1,.86,2.3.86s2.3-.39,2.3-.86h0c0-.48-1-.87-2.29-.87s-2.31.39-2.31.86h0" transform="translate(-8.57 -8.81)"/><path class="cls-2" d="M921.29,24.76l3.15-4.62L927.59,22l1.47-3.36-9.44-5.24-1.89,3.36,2.51,1.68-1.88,4.19Z" transform="translate(-8.57 -8.81)"/><path class="cls-3" d="M925.62,78.22l2.31-.42.84,4.41,2.94-1,.21,2.1L924.57,86l-.84-2.73,3.15-.42Z" transform="translate(-8.57 -8.81)"/><path class="cls-4" d="M915.68,82.76l3.36-.42.21,5.88h2.52V91l-8.82.21-.42-2.94h3.57Z" transform="translate(-8.57 -8.81)"/><path class="cls-5" d="M896.33,75.52l2.52,1.26-4,5.87,2.73,1.68-1.05,2.31-8.81-4,1.47-2.93,2.94,1.47Z" transform="translate(-8.57 -8.81)"/><path class="cls-2" d="M893.64,28.21l2.94-1.05-1.68-5,2.73-.84-2.31-3.35-9.24,5,1,2.52L891.54,24Zm50.89,28.9-1.26,3.15,4.62,1.26-1.47,3.15,3.36,1.26,3.78-9.66-4-1.26-1.26,3.57Zm-66.75-24.3-4,5.25,1.68,1.25,1.68-1.67,2.73,2.72,2.31-1.67L879,36l1.89-1.89Z" transform="translate(-8.57 -8.81)"/><path class="cls-6" d="M875.77,52.76c0,17.85,15.69,32.32,35.05,32.32s35.06-14.47,35.06-32.32h0c0-17.86-15.7-32.33-35.06-32.33S875.77,34.9,875.77,52.76h0" transform="translate(-8.57 -8.81)"/><path class="cls-7" d="M900.23,8.81v4.83h4.62l.21,14.69,4.2-.42-.84-14.06,4.83.21V9.44Z" transform="translate(-8.57 -8.81)"/><path class="cls-8" d="M929,32.25l3.57,2.52,7.76-9.66,3.57,3.57,3.36-3.57-9.44-8.61-3.15,4.62L937.35,23Z" transform="translate(-8.57 -8.81)"/><path class="cls-9" d="M938.84,41.32l.84,3.35,8.81-3.56,1.26,4.82,3.78-1-3.78-13.22-4,.84.84,4.83Z" transform="translate(-8.57 -8.81)"/><path class="cls-10" d="M938.38,66,936.91,69l7.56,5.25L942.58,78l3.57,1.68L952,70l-3.77-2.73-2.31,3.57Z" transform="translate(-8.57 -8.81)"/><path class="cls-11" d="M932.09,72.37l-2.31,1.47L934.61,82l-3.15,1.68,2.31,2.94,8-4-2.1-3.77-2.73,1.47Z" transform="translate(-8.57 -8.81)"/><path class="cls-12" d="M880.58,56.37l.42,3.57-7.76,1.26.63,3.15h-2.73l-1-11.55h2.73l.63,3.36Zm23.21,23.06,3-.3-1.89,9.65,3.36.63-.84,4.41-9.86-2.31,1.26-4.41,3.15.84Z" transform="translate(-8.57 -8.81)"/><path class="cls-13" d="M887.14,69.68l3.36,2.52-9.87,8.6,2.52,2.52-2.73,2.94-7.34-7.14,3.77-2.94,2.1,1.89Z" transform="translate(-8.57 -8.81)"/><path class="cls-14" d="M881.78,45l.21,5.25-13-2.31-.21,3.78-4.83-.42.84-12.39,5,.63-.42,3.36Z" transform="translate(-8.57 -8.81)"/><path class="cls-15" d="M888.6,34l-6.93-9,4.41-2.73-3.15-2.94L872.86,26l1.88,2.31,3.36-1.89,7.56,10.29Z" transform="translate(-8.57 -8.81)"/><path class="cls-16" d="M882.33,52.24c0,15.41,12.12,27.9,27.08,27.9s27.07-12.49,27.07-27.9-12.12-27.89-27.07-27.89-27.08,12.49-27.08,27.89" transform="translate(-8.57 -8.81)"/><path class="cls-20" d="M884.93,45.11c0,5.07,5.2,9.17,11.61,9.17s11.61-4.1,11.61-9.17h0c0-5.06-5.19-9.16-11.61-9.16s-11.61,4.1-11.61,9.16h0m26-1.54c0,5.69,5.83,10.29,13,10.3s13-4.6,13-10.28v0c0-5.68-5.83-10.28-13-10.28s-13,4.6-13,10.28h0" transform="translate(-8.57 -8.81)"/><path class="cls-21" d="M887.37,43.88c0,3.55,3.56,6.42,7.94,6.42s8-2.87,8-6.42-3.55-6.42-7.94-6.42-8,2.87-8,6.41h0m27.77,1.54c0,3.87,4.21,7,9.4,7s9.39-3.13,9.39-7h0c0-3.87-4.2-7-9.39-7s-9.4,3.13-9.4,7" transform="translate(-8.57 -8.81)"/><path class="cls-22" d="M889.66,44.81c0,2.53,2.67,4.58,6,4.58s6-2,6-4.58h0c0-2.54-2.67-4.59-6-4.59s-6,2.05-6,4.58h0m30.06,0c0,1.9,2.57,3.44,5.74,3.44s5.74-1.54,5.74-3.44h0c0-1.91-2.57-3.45-5.74-3.45s-5.74,1.54-5.74,3.44h0" transform="translate(-8.57 -8.81)"/><path class="cls-17" d="M892.45,45.11a3.23,3.23,0,0,0,6.34,0h0a3.23,3.23,0,0,0-6.34,0h0m28.68,0c0,1.66,1.73,3,3.88,3s3.89-1.35,3.89-3h0c0-1.67-1.74-3-3.89-3s-3.88,1.35-3.88,3h0" transform="translate(-8.57 -8.81)"/><path class="cls-17" d="M897.53,54.87q12.09-6,32.78,3Q919.83,79.19,905.87,75.3q-10.79-3.73-14.67-15.83Z" transform="translate(-8.57 -8.81)"/><path class="cls-19" d="M916.81,53.43l7.63,1.73-6.77,6.18m-21-5.61,4.46,5.76,2.44-8.63-4,.43m6.05-.58,4.63,4.94,2.95-4.48-3.55-1.9Z" transform="translate(-8.57 -8.81)"/><path class="cls-18" d="M896.81,69.4l6-4-.72,8.35m12.17-2.93.21,4.51,6-3.49-4-5.43" transform="translate(-8.57 -8.81)"/></svg>