<svg xmlns="http://www.w3.org/2000/svg" viewBox="0 0 1066.98 85.01"><defs><style>.cls-1{fill:#bddaff;}.cls-1,.cls-10,.cls-11,.cls-12,.cls-13,.cls-14,.cls-15,.cls-16,.cls-17,.cls-18,.cls-19,.cls-2,.cls-20,.cls-21,.cls-22,.cls-3,.cls-4,.cls-5,.cls-6,.cls-7,.cls-8,.cls-9{fill-rule:evenodd;}.cls-2{fill:#5f5fc9;}.cls-3{fill:#1d459e;}.cls-4{fill:#6b6bc9;}.cls-5{fill:#147783;}.cls-6{fill:#5a8bff;}.cls-7{fill:#4469c1;}.cls-8{fill:#580abe;}.cls-9{fill:#46cee1;}.cls-10{fill:#4971d0;}.cls-11{fill:#b540ff;}.cls-12{fill:#1fb7c9;}.cls-13{fill:#365398;}.cls-14{fill:#5246eb;}.cls-15{fill:#750bff;}.cls-16{fill:#7aa9ff;}.cls-18{fill:#fffefe;}.cls-19{fill:#fdfeff;}.cls-20{fill:#59b783;}.cls-21{fill:#b24fb7;}.cls-22{fill:#fefeff;}</style></defs><g id="Layer_2" data-name="Layer 2"><g id="Layer_1-2" data-name="Layer 1"><path class="cls-1" d="M24.14,41.79c0,7.7,7,14,15.58,14s15.59-6.23,15.6-13.94h0c0-7.7-7-13.95-15.58-13.95s-15.59,6.23-15.6,13.94h0"/><path class="cls-2" d="M57.36,16l3.15-4.62,3.15,1.89,1.47-3.36L55.68,4.61,53.79,8l2.52,1.68-1.89,4.2Z"/><path class="cls-3" d="M61.69,69.41,64,69l.84,4.41,2.94-1.05.21,2.1-7.35,2.72-.84-2.72L63,74Z"/><path class="cls-4" d="M51.75,74l3.36-.42.21,5.88h2.51v2.73L49,82.35l-.42-2.94h3.57Z"/><path class="cls-5" d="M32.4,66.7,34.92,68l-4,5.88,2.73,1.68-1,2.31-8.82-4,1.47-2.94,2.94,1.47Z"/><path class="cls-2" d="M29.71,19.4l2.93-1-1.67-5,2.72-.84-2.3-3.36-9.24,5,1.05,2.52,4.41-1.47ZM80.6,48.3l-1.26,3.15L84,52.71l-1.47,3.14,3.36,1.26,3.77-9.65-4-1.26-1.26,3.57ZM13.84,24l-4,5.25,1.67,1.26,1.68-1.68,2.73,2.73,2.31-1.68L15.1,27.14,17,25.25Z"/><path class="cls-6" d="M11.83,43.94c0,17.86,15.7,32.33,35.06,32.33S81.94,61.8,81.94,43.94h0c0-17.85-15.69-32.32-35-32.32S11.83,26.09,11.83,43.94h0"/><path class="cls-7" d="M36.3,0V4.83h4.62l.21,14.69,4.2-.42L44.49,5l4.82.21V.63Z"/><path class="cls-8" d="M65,23.43,68.58,26l7.77-9.65,3.57,3.57,3.36-3.57L73.83,7.69l-3.15,4.62,2.73,1.89Z"/><path class="cls-9" d="M74.9,32.5l.84,3.36,8.82-3.57,1.26,4.83,3.78-1L85.82,22.85l-4,.84.84,4.83Z"/><path class="cls-10" d="M74.45,57.22,73,60.16l7.55,5.25-1.89,3.77,3.57,1.68,5.88-9.65-3.78-2.73L82,62.05Z"/><path class="cls-11" d="M68.15,63.56,65.84,65l4.83,8.18-3.15,1.68,2.31,2.94,8-4-2.1-3.78L73,71.53Z"/><path class="cls-12" d="M16.65,47.56l.42,3.57L9.3,52.39l.63,3.15H7.2L6.15,44H8.88l.63,3.36Zm23.21,23,3-.3L40.94,80l3.36.63L43.46,85,33.59,82.7l1.26-4.41,3.15.84Z"/><path class="cls-13" d="M23.21,60.86l3.35,2.52L16.7,72l2.52,2.52-2.73,2.94L9.14,70.31l3.78-2.94L15,69.26Z"/><path class="cls-14" d="M17.84,36.16l.21,5.24L5,39.09l-.21,3.78L0,42.45.84,30.07l5,.63-.42,3.36Z"/><path class="cls-15" d="M24.66,25.2l-6.92-9,4.41-2.73L19,10.51,8.92,17.23l1.89,2.31,3.36-1.89,7.56,10.28Z"/><path class="cls-16" d="M18.4,43.43c0,15.41,12.12,27.89,27.07,27.89S72.55,58.84,72.55,43.43,60.42,15.54,45.47,15.54,18.4,28,18.4,43.43"/><path class="cls-17" d="M34.31,57.21Q47.06,51.59,64.91,60,64.28,45.92,45,46.34,29.85,47.6,28.39,61.25Z"/><path class="cls-18" d="M51.37,46.45l1.52,4.65,4.7-3.63-4.14-1.69"/><path class="cls-19" d="M40.3,46.76l4.31,3.57,3-4.48-3.69-.6ZM32,52l4.54,1.51,1.22-6.2-3.92,1.34M50.48,56l3.94-3,5.26,4.82"/><path class="cls-20" d="M48.38,34.76c0,5.06,5.19,9.17,11.61,9.17s11.61-4.1,11.61-9.17h0c0-5.06-5.2-9.16-11.61-9.16s-11.61,4.1-11.61,9.16h0M21,36.3c0,5.06,5.2,9.17,11.61,9.17s11.61-4.11,11.61-9.17h0c0-5.06-5.2-9.17-11.61-9.17S21,31.24,21,36.3h0"/><path class="cls-21" d="M52.66,36.61c0,3.54,3.56,6.41,7.94,6.41s7.95-2.87,7.95-6.41S65,30.19,60.61,30.19s-8,2.87-8,6.41h0M23.43,35.07c0,3.54,3.56,6.42,7.94,6.42s8-2.87,8-6.41h0c0-3.54-3.55-6.42-7.94-6.42s-7.94,2.87-7.95,6.41h0"/><path class="cls-22" d="M55.57,36c0,2.53,2.66,4.59,6,4.59s6-2,6-4.58h0c0-2.53-2.66-4.58-6-4.58s-6,2.05-6,4.58h0M25.73,36c0,2.53,2.66,4.59,5.95,4.59s6-2,6-4.58h0c0-2.53-2.66-4.58-5.95-4.58s-6,2.05-6,4.58h0"/><path class="cls-17" d="M58.49,36.92c0,2.1,1.09,3.81,2.42,3.81s2.42-1.71,2.42-3.81h0c0-2.11-1.09-3.82-2.42-3.82s-2.42,1.71-2.42,3.82m-30-.62a2.92,2.92,0,0,0,3.16,2.59,2.92,2.92,0,0,0,3.17-2.59h0a2.92,2.92,0,0,0-3.16-2.59,2.92,2.92,0,0,0-3.17,2.59h0"/><path class="cls-2" d="M301.6,16l3.15-4.62,3.15,1.89,1.47-3.36-9.45-5.25L298,8l2.52,1.68-1.89,4.2Z"/><path class="cls-3" d="M305.93,69.41l2.31-.42.84,4.41L312,72.35l.21,2.1-7.35,2.72L304,74.45l3.15-.42Z"/><path class="cls-4" d="M296,74l3.36-.42.21,5.88h2.51v2.73l-8.81.21-.42-2.94h3.57Z"/><path class="cls-5" d="M276.64,66.7,279.16,68l-4,5.88,2.73,1.68-1,2.31-8.82-4,1.47-2.94,2.94,1.47Z"/><path class="cls-2" d="M274,19.4l2.94-1-1.68-5,2.73-.84-2.31-3.36-9.24,5,1.05,2.52,4.41-1.47Zm50.89,28.9-1.26,3.15,4.62,1.26-1.47,3.14,3.36,1.26,3.78-9.65-4-1.26-1.26,3.57ZM258.08,24l-4,5.25,1.68,1.26,1.67-1.68,2.73,2.73,2.31-1.68-3.15-2.73,1.89-1.89Z"/><path class="cls-6" d="M256.07,43.94c0,17.86,15.7,32.33,35.06,32.33s35.05-14.47,35.05-32.33h0c0-17.85-15.69-32.32-35.05-32.32s-35.06,14.47-35.06,32.32h0"/><path class="cls-7" d="M280.54,0V4.83h4.62l.21,14.69,4.2-.42L288.73,5l4.83.21V.63Z"/><path class="cls-8" d="M309.26,23.43,312.82,26l7.77-9.65,3.57,3.57,3.36-3.57-9.45-8.61-3.15,4.62,2.73,1.89Z"/><path class="cls-9" d="M319.14,32.5l.84,3.36,8.82-3.57,1.26,4.83,3.78-1-3.78-13.22-4,.84.84,4.83Z"/><path class="cls-10" d="M318.69,57.22l-1.47,2.94,7.55,5.25-1.89,3.77,3.57,1.68,5.88-9.65-3.78-2.73-2.31,3.57Z"/><path class="cls-11" d="M312.39,63.56,310.08,65l4.83,8.18-3.15,1.68,2.31,2.94,8-4L320,70.06l-2.73,1.47Z"/><path class="cls-12" d="M260.89,47.56l.42,3.57-7.77,1.26.63,3.15h-2.73L250.39,44h2.73l.63,3.36Zm23.21,23,3-.3L285.18,80l3.36.63L287.7,85l-9.87-2.31,1.26-4.41,3.15.84Z"/><path class="cls-13" d="M267.45,60.86l3.36,2.52L260.94,72l2.52,2.52-2.73,2.94-7.35-7.14,3.78-2.94,2.1,1.89Z"/><path class="cls-14" d="M262.08,36.16l.21,5.24-13-2.31-.21,3.78-4.83-.42.84-12.38,5,.63-.42,3.36Z"/><path class="cls-15" d="M268.91,25.2l-6.93-9,4.41-2.73-3.15-2.94-10.08,6.72,1.89,2.31,3.36-1.89L266,27.93Z"/><path class="cls-16" d="M262.64,43.43c0,15.41,12.12,27.89,27.07,27.89s27.08-12.48,27.08-27.89-12.12-27.89-27.08-27.89S262.64,28,262.64,43.43"/><path class="cls-17" d="M281.58,57.14q8.49,4.45,29-8.08-10.47,21.32-24.43,17.43Q275.4,62.74,271.5,50.66Z"/><path class="cls-18" d="M294.6,62l1.52,4.65,4.7-3.64-4.14-1.68"/><path class="cls-19" d="M275.82,53.11l2.3,6.62L282,57.14l-2.59-3.46m4.78,4.53,4.31,3.58,2.95-4.48-3.7-.61Zm10.9-1.36,7-3.45v6.33"/><path class="cls-20" d="M265.24,36.3c0,5.06,5.2,9.17,11.61,9.17s11.61-4.11,11.61-9.17h0c0-5.06-5.2-9.17-11.61-9.17s-11.61,4.11-11.61,9.17h0m27.25-1.54c0,3.94,5.26,7.12,11.74,7.12S316,38.7,316,34.76s-5.26-7.12-11.74-7.12-11.74,3.19-11.74,7.12"/><path class="cls-21" d="M267.68,35.07c0,3.54,3.55,6.42,7.94,6.42s7.94-2.88,7.94-6.42-3.55-6.42-7.94-6.42-7.94,2.87-7.94,6.41h0m28.92,1.54c0,1.32,3.69,2.4,8.24,2.4s8.25-1.07,8.25-2.4h0c0-1.33-3.69-2.4-8.24-2.4s-8.25,1.07-8.25,2.39h0"/><path class="cls-22" d="M270,36c0,2.53,2.66,4.59,5.95,4.59s6-2,6-4.58h0c0-2.53-2.66-4.58-5.95-4.58s-6,2.05-6,4.58h0m30.95,0c0,.26,2.17.47,4.84.47s4.85-.21,4.85-.47h0c0-.26-2.16-.47-4.84-.47s-4.85.21-4.85.47h0"/><path class="cls-17" d="M272.76,36.3a3.23,3.23,0,0,0,6.33,0h0a3.23,3.23,0,0,0-6.33,0h0m30.26,0c0,.48,1,.87,2.3.87s2.3-.39,2.3-.87h0c0-.47-1-.86-2.3-.86s-2.3.38-2.3.86h0"/><path class="cls-2" d="M179.61,16l3.15-4.62,3.15,1.89,1.47-3.36-9.45-5.25L176,8l2.52,1.68-1.89,4.2Z"/><path class="cls-3" d="M183.94,69.41l2.31-.42.84,4.41L190,72.35l.21,2.1-7.35,2.72-.84-2.72L185.2,74Z"/><path class="cls-4" d="M174,74l3.36-.42.21,5.88h2.51v2.73l-8.81.21-.42-2.94h3.57Z"/><path class="cls-5" d="M154.65,66.7,157.17,68l-4,5.88,2.73,1.68-1,2.31-8.82-4,1.47-2.94,2.94,1.47Z"/><path class="cls-2" d="M152,19.4l2.93-1-1.67-5,2.72-.84-2.3-3.36-9.24,5,1,2.52,4.41-1.47Zm50.89,28.9-1.26,3.15,4.62,1.26-1.47,3.14,3.36,1.26,3.77-9.65-4-1.26-1.26,3.57ZM136.09,24l-4,5.25,1.67,1.26,1.68-1.68,2.73,2.73,2.31-1.68-3.15-2.73,1.89-1.89Z"/><path class="cls-6" d="M134.08,43.94c0,17.86,15.7,32.33,35.06,32.33s35.05-14.47,35.05-32.33h0c0-17.85-15.69-32.32-35.05-32.32s-35.06,14.47-35.06,32.32h0"/><path class="cls-7" d="M158.55,0V4.83h4.62l.21,14.69,4.2-.42L166.74,5l4.82.21V.63Z"/><path class="cls-8" d="M187.26,23.43,190.83,26l7.77-9.65,3.57,3.57,3.36-3.57-9.45-8.61-3.15,4.62,2.73,1.89Z"/><path class="cls-9" d="M197.15,32.5l.84,3.36,8.82-3.57,1.26,4.83,3.78-1-3.78-13.22-4,.84.84,4.83Z"/><path class="cls-10" d="M196.7,57.22l-1.47,2.94,7.55,5.25-1.89,3.77,3.57,1.68,5.88-9.65-3.78-2.73-2.31,3.57Z"/><path class="cls-11" d="M190.4,63.56,188.09,65l4.83,8.18-3.15,1.68,2.31,2.94,8-4L198,70.06l-2.73,1.47Z"/><path class="cls-12" d="M138.9,47.56l.42,3.57-7.77,1.26.63,3.15h-2.73L128.4,44h2.73l.63,3.36Zm23.21,23,3-.3L163.19,80l3.36.63L165.71,85l-9.87-2.31,1.26-4.41,3.15.84Z"/><path class="cls-13" d="M145.46,60.86l3.35,2.52L139,72l2.52,2.52-2.73,2.94-7.35-7.14,3.78-2.94,2.1,1.89Z"/><path class="cls-14" d="M140.09,36.16l.21,5.24-13-2.31-.21,3.78-4.83-.42.84-12.38,5,.63-.42,3.36Z"/><path class="cls-15" d="M146.91,25.2l-6.92-9,4.41-2.73-3.15-2.94-10.08,6.72,1.89,2.31,3.36-1.89L144,27.93Z"/><path class="cls-16" d="M140.65,43.43c0,15.41,12.12,27.89,27.07,27.89S194.8,58.84,194.8,43.43s-12.13-27.89-27.08-27.89S140.65,28,140.65,43.43"/><path class="cls-20" d="M143.25,36.3c0,5.06,5.2,9.17,11.61,9.17s11.61-4.11,11.61-9.17h0c0-5.06-5.2-9.17-11.61-9.17s-11.61,4.11-11.61,9.17h0m26-1.54c0,5.68,5.82,10.29,13,10.29s13-4.6,13-10.28h0c0-5.68-5.83-10.29-13-10.29s-13,4.61-13,10.29h0"/><path class="cls-21" d="M145.68,35.07c0,3.54,3.56,6.42,7.95,6.42s7.94-2.88,7.94-6.42-3.55-6.42-7.94-6.42-7.94,2.87-7.95,6.41h0m27.78,1.54c0,3.87,4.2,7,9.39,7s9.4-3.13,9.4-7h0c0-3.87-4.21-7-9.4-7s-9.39,3.14-9.39,7"/><path class="cls-22" d="M148,36c0,2.53,2.66,4.59,6,4.59s6-2,6-4.58h0c0-2.53-2.66-4.58-5.95-4.58s-6,2.05-6,4.58h0M178,36c0,1.91,2.56,3.45,5.73,3.45s5.74-1.54,5.74-3.44h0c0-1.9-2.56-3.44-5.73-3.45S178,34.09,178,36h0"/><path class="cls-17" d="M150.77,36.3a3.23,3.23,0,0,0,6.33,0h0a3.23,3.23,0,0,0-6.33,0h0m28.67,0c0,1.67,1.74,3,3.88,3s3.89-1.35,3.89-3h0c0-1.67-1.73-3-3.88-3s-3.89,1.35-3.89,3h0"/><path class="cls-17" d="M155.84,46.06q12.09-6,32.78,3-10.47,21.32-24.43,17.43-10.78-3.75-14.68-15.83Z"/><path class="cls-19" d="M175.13,44.62l7.62,1.72L176,52.53m-21-5.61,4.46,5.76L161.89,44l-4,.43m6-.57,4.64,4.94,3-4.48-3.56-1.9Z"/><path class="cls-18" d="M155.13,60.59l6-4-.72,8.35M172.61,62l.21,4.51,6-3.5-4-5.42"/><path class="cls-1" d="M390.54,41.79c0,7.7,7,14,15.58,14s15.59-6.23,15.59-13.94h0c0-7.7-7-13.95-15.58-13.95s-15.59,6.23-15.59,13.94h0"/><path class="cls-2" d="M423.75,16l3.15-4.62,3.15,1.89,1.47-3.36-9.45-5.25L420.19,8l2.51,1.68-1.89,4.2Z"/><path class="cls-3" d="M428.08,69.41l2.31-.42.84,4.41,2.94-1.05.21,2.1L427,77.17l-.84-2.72,3.15-.42Z"/><path class="cls-4" d="M418.14,74l3.36-.42.21,5.88h2.52v2.73l-8.82.21L415,79.41h3.57Z"/><path class="cls-5" d="M398.79,66.7,401.31,68l-4,5.88,2.73,1.68L399,77.83l-8.81-4,1.47-2.94,2.93,1.47Z"/><path class="cls-2" d="M396.1,19.4l2.94-1-1.68-5,2.73-.84-2.31-3.36-9.24,5,1,2.52L394,15.2ZM447,48.3l-1.26,3.15,4.62,1.26-1.47,3.14,3.36,1.26L456,47.46l-4-1.26-1.26,3.57ZM380.24,24l-4,5.25,1.68,1.26,1.68-1.68,2.73,2.73,2.3-1.68-3.14-2.73,1.89-1.89Z"/><path class="cls-6" d="M378.23,43.94c0,17.86,15.69,32.33,35,32.33s35.06-14.47,35.06-32.33h0c0-17.85-15.7-32.32-35.06-32.32s-35,14.47-35,32.32h0"/><path class="cls-7" d="M402.69,0V4.83h4.62l.21,14.69,4.2-.42L410.88,5l4.83.21V.63Z"/><path class="cls-8" d="M431.41,23.43,435,26l7.76-9.65,3.57,3.57,3.36-3.57-9.45-8.61-3.14,4.62,2.72,1.89Z"/><path class="cls-9" d="M441.3,32.5l.84,3.36L451,32.29l1.26,4.83,3.78-1-3.78-13.22-4,.84.84,4.83Z"/><path class="cls-10" d="M440.84,57.22l-1.47,2.94,7.56,5.25L445,69.18l3.57,1.68,5.87-9.65-3.77-2.73-2.31,3.57Z"/><path class="cls-11" d="M434.55,63.56,432.24,65l4.82,8.18-3.14,1.68,2.31,2.94,8-4-2.1-3.78-2.73,1.47Z"/><path class="cls-12" d="M383,47.56l.42,3.57-7.77,1.26.63,3.15H373.6L372.55,44h2.72l.63,3.36Zm23.21,23,3-.3L407.33,80l3.36.63L409.85,85,400,82.7l1.26-4.41,3.14.84Z"/><path class="cls-13" d="M389.6,60.86,393,63.38,383.09,72l2.52,2.52-2.73,2.94-7.34-7.14,3.77-2.94,2.1,1.89Z"/><path class="cls-14" d="M384.24,36.16l.21,5.24-13-2.31-.21,3.78-4.83-.42.84-12.38,5,.63-.42,3.36Z"/><path class="cls-15" d="M391.06,25.2l-6.93-9,4.41-2.73-3.15-2.94-10.08,6.72,1.89,2.31,3.36-1.89,7.56,10.28Z"/><path class="cls-16" d="M384.79,43.43c0,15.41,12.12,27.89,27.08,27.89s27.07-12.48,27.07-27.89-12.12-27.89-27.07-27.89S384.79,28,384.79,43.43"/><path class="cls-17" d="M400.7,57.21q12.76-5.62,30.6,2.78-.63-14.07-19.94-13.65-15.11,1.26-16.58,14.91Z"/><path class="cls-18" d="M417.77,46.45l1.52,4.65L424,47.47l-4.13-1.69"/><path class="cls-19" d="M406.69,46.76,411,50.33,414,45.85l-3.7-.6ZM398.39,52l4.54,1.51,1.21-6.2-3.92,1.34M416.87,56l3.94-3,5.26,4.82"/><path class="cls-20" d="M414.77,34.76c0,5.06,5.2,9.17,11.61,9.17S438,39.83,438,34.76h0c0-5.06-5.2-9.16-11.61-9.16s-11.61,4.1-11.61,9.16h0M387.39,36.3c0,5.06,5.2,9.17,11.61,9.17s11.61-4.11,11.61-9.17h0c0-5.06-5.2-9.17-11.61-9.17s-11.61,4.11-11.61,9.17h0"/><path class="cls-21" d="M419.05,36.61c0,3.54,3.56,6.41,7.95,6.41s7.94-2.87,7.94-6.41-3.55-6.42-7.94-6.42-7.94,2.87-7.95,6.41h0m-29.22-1.54c0,3.54,3.55,6.42,7.94,6.42s7.94-2.87,8-6.41h0c0-3.54-3.56-6.42-7.94-6.42s-7.95,2.87-7.95,6.41h0"/><path class="cls-22" d="M422,36c0,2.53,2.66,4.59,6,4.59s5.95-2,6-4.58h0c0-2.53-2.67-4.58-6-4.58s-6,2.05-6,4.58h0m-29.84,0c0,2.53,2.66,4.59,6,4.59s5.95-2,6-4.58h0c0-2.53-2.67-4.58-6-4.58s-6,2.05-6,4.58h0"/><path class="cls-17" d="M424.89,36.92c0,2.1,1.08,3.81,2.41,3.81s2.42-1.71,2.42-3.81h0c0-2.11-1.08-3.82-2.42-3.82s-2.41,1.71-2.41,3.82m-30-.62a3.23,3.23,0,0,0,6.33,0h0a3.23,3.23,0,0,0-6.33,0h0"/><path class="cls-2" d="M668,16l3.15-4.62,3.15,1.89,1.47-3.36-9.44-5.25L664.43,8l2.51,1.68-1.88,4.2Z"/><path class="cls-3" d="M672.32,69.41l2.31-.42.84,4.41,2.94-1.05.21,2.1-7.35,2.72-.84-2.72,3.15-.42Z"/><path class="cls-4" d="M662.38,74l3.36-.42.21,5.88h2.52v2.73l-8.82.21-.42-2.94h3.57Z"/><path class="cls-5" d="M643,66.7,645.55,68l-4,5.88,2.73,1.68-1,2.31-8.81-4,1.47-2.94,2.94,1.47Z"/><path class="cls-2" d="M640.34,19.4l2.94-1-1.68-5,2.73-.84L642,9.11l-9.24,5,1.05,2.52,4.41-1.47Zm50.89,28.9L690,51.45l4.62,1.26-1.47,3.14,3.36,1.26,3.78-9.65-4-1.26L695,49.77ZM624.48,24l-4,5.25,1.68,1.26,1.68-1.68,2.73,2.73,2.31-1.68-3.15-2.73,1.89-1.89Z"/><path class="cls-6" d="M622.47,43.94c0,17.86,15.69,32.33,35,32.33s35.06-14.47,35.06-32.33h0c0-17.85-15.7-32.32-35.06-32.32s-35,14.47-35,32.32h0"/><path class="cls-7" d="M646.93,0V4.83h4.62l.21,14.69,4.2-.42L655.12,5l4.83.21V.63Z"/><path class="cls-8" d="M675.65,23.43,679.22,26,687,16.3l3.57,3.57,3.36-3.57-9.44-8.61-3.15,4.62,2.73,1.89Z"/><path class="cls-9" d="M685.54,32.5l.84,3.36,8.81-3.57,1.26,4.83,3.78-1-3.78-13.22-4,.84.84,4.83Z"/><path class="cls-10" d="M685.08,57.22l-1.47,2.94,7.56,5.25-1.89,3.77,3.57,1.68,5.87-9.65L695,58.48l-2.31,3.57Z"/><path class="cls-11" d="M678.79,63.56,676.48,65l4.83,8.18-3.15,1.68,2.31,2.94,8-4-2.1-3.78-2.73,1.47Z"/><path class="cls-12" d="M627.28,47.56l.42,3.57-7.76,1.26.63,3.15h-2.73L616.79,44h2.73l.63,3.36Zm23.21,23,3-.3L651.57,80l3.36.63L654.09,85l-9.86-2.31,1.26-4.41,3.15.84Z"/><path class="cls-13" d="M633.84,60.86l3.36,2.52L627.33,72l2.52,2.52-2.73,2.94-7.34-7.14,3.77-2.94,2.1,1.89Z"/><path class="cls-14" d="M628.48,36.16l.21,5.24-13-2.31-.21,3.78-4.83-.42.84-12.38,5,.63-.42,3.36Z"/><path class="cls-15" d="M635.3,25.2l-6.93-9,4.41-2.73-3.15-2.94-10.07,6.72,1.88,2.31,3.36-1.89,7.56,10.28Z"/><path class="cls-16" d="M629,43.43c0,15.41,12.13,27.89,27.08,27.89s27.07-12.48,27.07-27.89-12.12-27.89-27.07-27.89S629,28,629,43.43"/><path class="cls-17" d="M648,57.14q8.49,4.45,29-8.08-10.49,21.32-24.44,17.43-10.79-3.75-14.67-15.83Z"/><path class="cls-18" d="M661,62l1.52,4.65L667.21,63l-4.13-1.68"/><path class="cls-19" d="M642.21,53.11l2.31,6.62,3.88-2.59-2.59-3.46m4.78,4.53,4.32,3.58,3-4.48-3.7-.61Zm10.91-1.36,7-3.45v6.33"/><path class="cls-20" d="M631.63,36.3c0,5.06,5.2,9.17,11.61,9.17s11.61-4.11,11.61-9.17h0c0-5.06-5.19-9.17-11.61-9.17s-11.61,4.11-11.61,9.17h0m27.25-1.54c0,3.94,5.26,7.12,11.74,7.12s11.74-3.18,11.74-7.12-5.26-7.12-11.74-7.12-11.74,3.19-11.74,7.12"/><path class="cls-21" d="M634.07,35.07c0,3.54,3.56,6.42,7.94,6.42s8-2.88,8-6.42-3.55-6.42-7.94-6.42-7.95,2.87-7.95,6.41h0M663,36.61c0,1.32,3.69,2.4,8.24,2.4s8.25-1.07,8.25-2.4h0c0-1.33-3.68-2.4-8.24-2.4S663,35.28,663,36.6h0"/><path class="cls-22" d="M636.36,36c0,2.53,2.67,4.59,6,4.59s6-2,6-4.58h0c0-2.53-2.67-4.58-6-4.58s-6,2.05-6,4.58h0m30.95,0c0,.26,2.17.47,4.85.47S677,36.25,677,36h0c0-.26-2.17-.47-4.85-.47s-4.85.21-4.85.47h0"/><path class="cls-17" d="M639.15,36.3a3.23,3.23,0,0,0,6.34,0h0a3.23,3.23,0,0,0-6.34,0h0m30.26,0c0,.48,1,.87,2.3.87s2.3-.39,2.3-.87h0c0-.47-1-.86-2.3-.86s-2.3.38-2.3.86h0"/><path class="cls-2" d="M546,16l3.15-4.62,3.15,1.89,1.47-3.36-9.45-5.25L542.44,8,545,9.65l-1.89,4.2Z"/><path class="cls-3" d="M550.33,69.41l2.31-.42.84,4.41,2.94-1.05.21,2.1-7.35,2.72-.84-2.72,3.15-.42Z"/><path class="cls-4" d="M540.39,74l3.36-.42.21,5.88h2.52v2.73l-8.82.21-.42-2.94h3.57Z"/><path class="cls-5" d="M521,66.7,523.56,68l-4,5.88,2.73,1.68-1,2.31-8.81-4,1.47-2.94,2.93,1.47Z"/><path class="cls-2" d="M518.35,19.4l2.94-1-1.68-5,2.73-.84L520,9.11l-9.24,5,1,2.52,4.41-1.47Zm50.89,28.9L568,51.45l4.62,1.26-1.47,3.14,3.36,1.26,3.78-9.65-4-1.26L573,49.77ZM502.49,24l-4,5.25,1.68,1.26,1.68-1.68,2.73,2.73,2.31-1.68-3.15-2.73,1.89-1.89Z"/><path class="cls-6" d="M500.48,43.94c0,17.86,15.69,32.33,35,32.33s35.06-14.47,35.06-32.33h0c0-17.85-15.7-32.32-35.06-32.32s-35,14.47-35,32.32h0"/><path class="cls-7" d="M524.94,0V4.83h4.62l.21,14.69,4.2-.42L533.13,5l4.83.21V.63Z"/><path class="cls-8" d="M553.66,23.43,557.23,26,565,16.3l3.57,3.57,3.36-3.57-9.45-8.61-3.14,4.62,2.72,1.89Z"/><path class="cls-9" d="M563.55,32.5l.84,3.36,8.81-3.57,1.26,4.83,3.78-1-3.78-13.22-4,.84.84,4.83Z"/><path class="cls-10" d="M563.09,57.22l-1.47,2.94,7.56,5.25-1.89,3.77,3.57,1.68,5.87-9.65L573,58.48l-2.31,3.57Z"/><path class="cls-11" d="M556.8,63.56,554.49,65l4.82,8.18-3.14,1.68,2.31,2.94,8-4-2.1-3.78-2.73,1.47Z"/><path class="cls-12" d="M505.29,47.56l.42,3.57-7.77,1.26.63,3.15h-2.72L494.8,44h2.73l.62,3.36Zm23.21,23,3-.3L529.58,80l3.36.63L532.1,85l-9.86-2.31,1.26-4.41,3.15.84Z"/><path class="cls-13" d="M511.85,60.86l3.36,2.52L505.34,72l2.52,2.52-2.73,2.94-7.34-7.14,3.77-2.94,2.1,1.89Z"/><path class="cls-14" d="M506.49,36.16l.21,5.24-13-2.31-.21,3.78-4.83-.42.84-12.38,5,.63-.42,3.36Z"/><path class="cls-15" d="M513.31,25.2l-6.93-9,4.41-2.73-3.15-2.94-10.07,6.72,1.88,2.31,3.36-1.89,7.56,10.28Z"/><path class="cls-16" d="M507,43.43c0,15.41,12.12,27.89,27.08,27.89s27.07-12.48,27.07-27.89-12.12-27.89-27.07-27.89S507,28,507,43.43"/><path class="cls-20" d="M509.64,36.3c0,5.06,5.2,9.17,11.61,9.17s11.61-4.11,11.61-9.17h0c0-5.06-5.19-9.17-11.61-9.17s-11.61,4.11-11.61,9.17h0m26-1.54c0,5.68,5.83,10.29,13,10.29s13-4.6,13-10.28h0c0-5.68-5.83-10.29-13-10.29s-13,4.61-13,10.29h0"/><path class="cls-21" d="M512.08,35.07c0,3.54,3.55,6.42,7.94,6.42s8-2.88,8-6.42-3.56-6.42-7.94-6.42-7.95,2.87-7.95,6.41h0m27.77,1.54c0,3.87,4.21,7,9.4,7s9.39-3.13,9.39-7h0c0-3.87-4.2-7-9.39-7s-9.4,3.14-9.4,7"/><path class="cls-22" d="M514.37,36c0,2.53,2.67,4.59,6,4.59s6-2,6-4.58h0c0-2.53-2.67-4.58-6-4.58s-6,2.05-6,4.58h0m30.06,0c0,1.91,2.57,3.45,5.74,3.45s5.74-1.54,5.74-3.44h0c0-1.9-2.57-3.44-5.74-3.45s-5.74,1.55-5.74,3.45h0"/><path class="cls-17" d="M517.16,36.3a3.23,3.23,0,0,0,6.34,0h0a3.23,3.23,0,0,0-6.34,0h0m28.68,0c0,1.67,1.73,3,3.88,3s3.88-1.35,3.89-3h0c0-1.67-1.74-3-3.89-3s-3.88,1.35-3.88,3h0"/><path class="cls-17" d="M522.24,46.06q12.09-6,32.78,3-10.49,21.32-24.44,17.43-10.79-3.75-14.67-15.83Z"/><path class="cls-19" d="M541.52,44.62l7.63,1.72-6.77,6.19m-21-5.61,4.47,5.76L528.28,44l-4,.43m6-.57,4.63,4.94,3-4.48-3.56-1.9Z"/><path class="cls-18" d="M521.52,60.59l6-4-.72,8.35M539,62l.21,4.51,6-3.5-4-5.42"/><path class="cls-1" d="M757.26,41.79c0,7.7,7,14,15.58,14s15.59-6.23,15.59-13.94h0c0-7.7-7-13.95-15.58-13.95s-15.59,6.23-15.59,13.94h0"/><path class="cls-2" d="M790.48,16l3.15-4.62,3.14,1.89,1.47-3.36L788.8,4.61,786.91,8l2.52,1.68-1.89,4.2Z"/><path class="cls-3" d="M794.81,69.41l2.3-.42L798,73.4l2.94-1.05.21,2.1-7.34,2.72-.84-2.72,3.14-.42Z"/><path class="cls-4" d="M784.86,74l3.36-.42.21,5.88H791v2.73l-8.82.21-.41-2.94h3.56Z"/><path class="cls-5" d="M765.52,66.7,768,68l-4,5.88,2.73,1.68-1,2.31-8.82-4,1.47-2.94,2.94,1.47Z"/><path class="cls-2" d="M762.82,19.4l2.94-1-1.68-5,2.73-.84L764.5,9.11l-9.23,5,1.05,2.52,4.4-1.47Zm50.9,28.9-1.26,3.15,4.61,1.26-1.47,3.14L819,57.11l3.78-9.65-4-1.26-1.26,3.57ZM747,24l-4,5.25,1.68,1.26,1.68-1.68,2.73,2.73,2.31-1.68-3.15-2.73,1.89-1.89Z"/><path class="cls-6" d="M745,43.94c0,17.86,15.7,32.33,35.06,32.33s35-14.47,35-32.33h0c0-17.85-15.69-32.32-35-32.32S745,26.09,745,43.94h0"/><path class="cls-7" d="M769.42,0V4.83H774l.21,14.69,4.2-.42L777.6,5l4.83.21V.63Z"/><path class="cls-8" d="M798.13,23.43,801.7,26l7.77-9.65L813,19.87l3.36-3.57L807,7.69l-3.15,4.62,2.73,1.89Z"/><path class="cls-9" d="M808,32.5l.84,3.36,8.81-3.57,1.26,4.83,3.78-1-3.78-13.22-4,.84.84,4.83Z"/><path class="cls-10" d="M807.56,57.22l-1.47,2.94,7.56,5.25-1.89,3.77,3.57,1.68,5.88-9.65-3.78-2.73-2.31,3.57Z"/><path class="cls-11" d="M801.27,63.56,799,65l4.83,8.18-3.15,1.68L803,77.83l8-4-2.09-3.78-2.73,1.47Z"/><path class="cls-12" d="M749.76,47.56l.42,3.57-7.76,1.26.63,3.15h-2.73L739.27,44H742l.63,3.36Zm23.21,23,3-.3L774.06,80l3.36.63L776.58,85l-9.87-2.31L768,78.29l3.15.84Z"/><path class="cls-13" d="M756.32,60.86l3.36,2.52L749.82,72l2.51,2.52-2.72,2.94-7.35-7.14L746,67.37l2.1,1.89Z"/><path class="cls-14" d="M751,36.16l.21,5.24-13-2.31-.21,3.78-4.82-.42L734,30.07l5,.63-.42,3.36Z"/><path class="cls-15" d="M757.78,25.2l-6.93-9,4.41-2.73-3.15-2.94L742,17.23l1.89,2.31,3.36-1.89,7.55,10.28Z"/><path class="cls-16" d="M751.52,43.43c0,15.41,12.12,27.89,27.07,27.89s27.07-12.48,27.07-27.89-12.12-27.89-27.07-27.89S751.52,28,751.52,43.43"/><path class="cls-17" d="M767.42,57.21Q780.19,51.59,798,60q-.63-14.07-19.94-13.65Q763,47.6,761.5,61.25Z"/><path class="cls-18" d="M784.49,46.45,786,51.1l4.69-3.63-4.13-1.69"/><path class="cls-19" d="M773.42,46.76l4.31,3.57,2.95-4.48-3.7-.6ZM765.11,52l4.54,1.51,1.21-6.2-3.92,1.34M783.6,56l3.93-3,5.27,4.82"/><path class="cls-20" d="M781.49,34.76c0,5.06,5.2,9.17,11.61,9.17s11.61-4.1,11.61-9.17h0c0-5.06-5.19-9.16-11.61-9.16s-11.61,4.1-11.61,9.16h0M754.12,36.3c0,5.06,5.19,9.17,11.6,9.17s11.62-4.11,11.62-9.17h0c0-5.06-5.2-9.17-11.61-9.17s-11.61,4.11-11.61,9.17h0"/><path class="cls-21" d="M785.78,36.61c0,3.54,3.55,6.41,7.94,6.41s7.94-2.87,7.94-6.41-3.55-6.42-7.94-6.42-7.94,2.87-7.94,6.41h0m-29.23-1.54c0,3.54,3.55,6.42,7.94,6.42s8-2.87,8-6.41h0c0-3.54-3.55-6.42-7.94-6.42s-8,2.87-8,6.41h0"/><path class="cls-22" d="M788.68,36c0,2.53,2.67,4.59,6,4.59s6-2,6-4.58h0c0-2.53-2.66-4.58-6-4.58s-6,2.05-6,4.58h0m-29.84,0c0,2.53,2.67,4.59,6,4.59s6-2,6-4.58h0c0-2.53-2.66-4.58-6-4.58s-6,2.05-6,4.58h0"/><path class="cls-17" d="M791.61,36.92c0,2.1,1.08,3.81,2.42,3.81s2.41-1.71,2.41-3.81h0c0-2.11-1.08-3.82-2.41-3.82s-2.42,1.71-2.42,3.82m-30-.62a3.23,3.23,0,0,0,6.33,0h0a3.23,3.23,0,0,0-6.33,0h0"/><path class="cls-2" d="M1034.72,16l3.15-4.62,3.15,1.89,1.46-3.36L1033,4.61,1031.15,8l2.52,1.68-1.89,4.2Z"/><path class="cls-3" d="M1039.05,69.41l2.31-.42.84,4.41,2.93-1.05.21,2.1L1038,77.17l-.84-2.72,3.15-.42Z"/><path class="cls-4" d="M1029.1,74l3.36-.42.21,5.88h2.52v2.73l-8.81.21-.42-2.94h3.56Z"/><path class="cls-5" d="M1009.76,66.7l2.52,1.26-4,5.88,2.73,1.68-1,2.31-8.82-4,1.47-2.94,2.94,1.47Z"/><path class="cls-2" d="M1007.06,19.4l2.94-1-1.68-5,2.73-.84-2.31-3.36-9.23,5,1,2.52,4.4-1.47ZM1058,48.3l-1.26,3.15,4.61,1.26-1.46,3.14,3.35,1.26,3.78-9.65-4-1.26-1.26,3.57ZM991.2,24l-4,5.25,1.68,1.26,1.68-1.68,2.73,2.73,2.31-1.68-3.15-2.73,1.89-1.89Z"/><path class="cls-6" d="M989.19,43.94c0,17.86,15.7,32.33,35.06,32.33s35-14.47,35-32.33h0c0-17.85-15.69-32.32-35-32.32s-35.06,14.47-35.06,32.32h0"/><path class="cls-7" d="M1013.66,0V4.83h4.62l.21,14.69,4.19-.42L1021.84,5l4.83.21V.63Z"/><path class="cls-8" d="M1042.37,23.43l3.57,2.52,7.77-9.65,3.57,3.57,3.35-3.57-9.44-8.61L1048,12.31l2.73,1.89Z"/><path class="cls-9" d="M1052.26,32.5l.84,3.36,8.82-3.57,1.26,4.83,3.77-1-3.77-13.22-4,.84.84,4.83Z"/><path class="cls-10" d="M1051.8,57.22l-1.47,2.94,7.56,5.25L1056,69.18l3.57,1.68,5.88-9.65-3.78-2.73-2.31,3.57Z"/><path class="cls-11" d="M1045.51,63.56,1043.2,65l4.83,8.18-3.15,1.68,2.31,2.94,8-4-2.1-3.78-2.73,1.47Z"/><path class="cls-12" d="M994,47.56l.42,3.57-7.77,1.26.63,3.15h-2.73l-1-11.55h2.73l.63,3.36Zm23.2,23,3-.3L1018.3,80l3.36.63-.84,4.41L1011,82.7l1.26-4.41,3.15.84Z"/><path class="cls-13" d="M1000.56,60.86l3.36,2.52L994.06,72l2.52,2.52-2.73,2.94-7.35-7.14,3.78-2.94,2.1,1.89Z"/><path class="cls-14" d="M995.2,36.16l.21,5.24-13-2.31-.21,3.78-4.83-.42.84-12.38,5,.63-.42,3.36Z"/><path class="cls-15" d="M1002,25.2l-6.92-9,4.4-2.73-3.15-2.94-10.07,6.72,1.89,2.31,3.36-1.89,7.55,10.28Z"/><path class="cls-16" d="M995.76,43.43c0,15.41,12.12,27.89,27.07,27.89s27.07-12.48,27.07-27.89-12.12-27.89-27.07-27.89S995.76,28,995.76,43.43"/><path class="cls-17" d="M1014.69,57.14q8.49,4.45,29-8.08-10.47,21.32-24.43,17.43-10.8-3.75-14.68-15.83Z"/><path class="cls-18" d="M1027.72,62l1.52,4.65,4.69-3.64-4.13-1.68"/><path class="cls-19" d="M1008.94,53.11l2.3,6.62,3.89-2.59-2.59-3.46m4.77,4.53,4.32,3.58,2.95-4.48-3.7-.61Zm10.91-1.36,7-3.45v6.33"/><path class="cls-20" d="M998.36,36.3c0,5.06,5.19,9.17,11.61,9.17s11.61-4.11,11.61-9.17h0c0-5.06-5.2-9.17-11.61-9.17s-11.61,4.11-11.61,9.17h0m27.25-1.54c0,3.94,5.25,7.12,11.74,7.12s11.73-3.18,11.73-7.12-5.25-7.12-11.73-7.12-11.74,3.19-11.74,7.12"/><path class="cls-21" d="M1000.79,35.07c0,3.54,3.56,6.42,8,6.42s7.94-2.88,7.94-6.42-3.55-6.42-7.94-6.42-7.94,2.87-8,6.41h0m28.93,1.54c0,1.32,3.68,2.4,8.24,2.4s8.24-1.07,8.24-2.4h0c0-1.33-3.68-2.4-8.23-2.4s-8.25,1.07-8.25,2.39h0"/><path class="cls-22" d="M1003.09,36c0,2.53,2.66,4.59,5.95,4.59s6-2,6-4.58h0c0-2.53-2.66-4.58-6-4.58s-6,2.05-6,4.58h0M1034,36c0,.26,2.16.47,4.84.47s4.85-.21,4.85-.47h0c0-.26-2.17-.47-4.84-.47s-4.85.21-4.85.47h0"/><path class="cls-17" d="M1005.88,36.3a3.23,3.23,0,0,0,6.33,0h0a3.23,3.23,0,0,0-6.33,0h0m30.25,0c0,.48,1,.87,2.3.87s2.31-.39,2.31-.87h0c0-.47-1-.86-2.3-.86s-2.31.38-2.31.86h0"/><path class="cls-2" d="M912.73,16l3.15-4.62L919,13.22l1.47-3.36-9.44-5.25L909.16,8l2.52,1.68-1.89,4.2Z"/><path class="cls-3" d="M917.06,69.41l2.3-.42.84,4.41,2.94-1.05.21,2.1L916,77.17l-.84-2.72,3.15-.42Z"/><path class="cls-4" d="M907.11,74l3.36-.42.21,5.88h2.52v2.73l-8.81.21L904,79.41h3.56Z"/><path class="cls-5" d="M887.77,66.7,890.28,68l-4,5.88L889,75.52l-1,2.31-8.82-4,1.47-2.94,2.94,1.47Z"/><path class="cls-2" d="M885.07,19.4l2.94-1-1.68-5,2.73-.84-2.31-3.36-9.23,5,1.05,2.52L883,15.2ZM936,48.3l-1.26,3.15,4.61,1.26-1.47,3.14,3.36,1.26L945,47.46l-4-1.26-1.26,3.57ZM869.21,24l-4,5.25,1.68,1.26,1.68-1.68,2.73,2.73,2.31-1.68-3.15-2.73,1.89-1.89Z"/><path class="cls-6" d="M867.2,43.94c0,17.86,15.7,32.33,35.06,32.33s35-14.47,35-32.33h0c0-17.85-15.69-32.32-35-32.32S867.2,26.09,867.2,43.94h0"/><path class="cls-7" d="M891.67,0V4.83h4.62l.21,14.69,4.19-.42L899.85,5l4.83.21V.63Z"/><path class="cls-8" d="M920.38,23.43,924,26l7.77-9.65,3.57,3.57,3.35-3.57L929.2,7.69l-3.15,4.62,2.73,1.89Z"/><path class="cls-9" d="M930.27,32.5l.84,3.36,8.81-3.57,1.26,4.83,3.78-1-3.78-13.22-4,.84.84,4.83Z"/><path class="cls-10" d="M929.81,57.22l-1.47,2.94,7.56,5.25L934,69.18l3.57,1.68,5.88-9.65-3.78-2.73-2.31,3.57Z"/><path class="cls-11" d="M923.52,63.56,921.21,65,926,73.21l-3.15,1.68,2.31,2.94,8-4-2.1-3.78-2.73,1.47Z"/><path class="cls-12" d="M872,47.56l.41,3.57-7.76,1.26.63,3.15h-2.73L861.52,44h2.73l.63,3.36Zm23.2,23,3-.3L896.31,80l3.36.63L898.83,85,889,82.7l1.26-4.41,3.15.84Z"/><path class="cls-13" d="M878.57,60.86l3.36,2.52L872.07,72l2.51,2.52-2.72,2.94-7.35-7.14,3.78-2.94,2.1,1.89Z"/><path class="cls-14" d="M873.21,36.16l.21,5.24-13-2.31-.2,3.78-4.83-.42.84-12.38,5,.63-.42,3.36Z"/><path class="cls-15" d="M880,25.2l-6.93-9,4.41-2.73-3.15-2.94-10.07,6.72,1.89,2.31,3.36-1.89,7.55,10.28Z"/><path class="cls-16" d="M873.77,43.43c0,15.41,12.12,27.89,27.07,27.89s27.07-12.48,27.07-27.89-12.12-27.89-27.07-27.89S873.77,28,873.77,43.43"/><path class="cls-20" d="M876.37,36.3c0,5.06,5.19,9.17,11.61,9.17s11.61-4.11,11.61-9.17h0c0-5.06-5.2-9.17-11.61-9.17s-11.61,4.11-11.61,9.17h0m26-1.54c0,5.68,5.83,10.29,13,10.29s13-4.6,13-10.28h0c0-5.68-5.84-10.29-13-10.29s-13,4.61-13,10.29h0"/><path class="cls-21" d="M878.8,35.07c0,3.54,3.56,6.42,8,6.42s7.94-2.88,7.94-6.42-3.55-6.42-7.94-6.42-8,2.87-8,6.41h0m27.77,1.54c0,3.87,4.21,7,9.4,7s9.4-3.13,9.4-7h0c0-3.87-4.21-7-9.4-7s-9.4,3.14-9.4,7"/><path class="cls-22" d="M881.1,36c0,2.53,2.66,4.59,5.95,4.59s6-2,6-4.58h0c0-2.53-2.66-4.58-6-4.58s-6,2.05-6,4.58h0m30,0c0,1.91,2.57,3.45,5.74,3.45s5.74-1.54,5.74-3.44h0c0-1.9-2.56-3.44-5.73-3.45s-5.74,1.55-5.75,3.45h0"/><path class="cls-17" d="M883.89,36.3a3.23,3.23,0,0,0,6.33,0h0a3.23,3.23,0,0,0-6.33,0h0m28.67,0c0,1.67,1.74,3,3.88,3s3.89-1.35,3.89-3h0c0-1.67-1.74-3-3.88-3s-3.89,1.35-3.89,3h0"/><path class="cls-17" d="M889,46.06q12.09-6,32.78,3-10.47,21.32-24.43,17.43-10.8-3.75-14.68-15.83Z"/><path class="cls-19" d="M908.24,44.62l7.63,1.72-6.76,6.19m-21-5.61,4.46,5.76L895,44l-4,.43m6-.57,4.63,4.94,3-4.48-3.55-1.9Z"/><path class="cls-18" d="M888.24,60.59l6-4-.72,8.35M905.73,62l.21,4.51,6-3.5-4-5.42"/></g></g></svg>