<?xml version="1.0" encoding="utf-8"?>
<!-- Generator: Adobe Illustrator 24.1.2, SVG Export Plug-In . SVG Version: 6.00 Build 0)  -->
<svg version="1.1"
	 id="svg2" inkscape:output_extension="org.inkscape.output.svg.inkscape" inkscape:version="0.44+devel" sodipodi:docbase="C:\Documents and Settings\Molumen\Desktop" sodipodi:docname="molumen_world_map.svg" sodipodi:modified="true" sodipodi:version="0.32" xmlns:cc="http://web.resource.org/cc/" xmlns:dc="http://purl.org/dc/elements/1.1/" xmlns:inkscape="http://www.inkscape.org/namespaces/inkscape" xmlns:rdf="http://www.w3.org/1999/02/22-rdf-syntax-ns#" xmlns:sodipodi="http://sodipodi.sourceforge.net/DTD/sodipodi-0.dtd" xmlns:svg="http://www.w3.org/2000/svg"
	 xmlns="http://www.w3.org/2000/svg" xmlns:xlink="http://www.w3.org/1999/xlink" x="0px" y="0px" viewBox="0 0 1052.4 580"
	 style="enable-background:new 0 0 1052.4 580;" xml:space="preserve">
<style type="text/css">
	.st0{fill:#EE0CF2;}
</style>
<sodipodi:namedview  bordercolor="#666666" borderopacity="1.0" height="580px" id="base" inkscape:current-layer="layer1" inkscape:cx="531.68279" inkscape:cy="217.47534" inkscape:document-units="px" inkscape:pageopacity="0.0" inkscape:pageshadow="2" inkscape:window-height="1060" inkscape:window-width="1232" inkscape:window-x="28" inkscape:window-y="29" inkscape:zoom="0.91875" pagecolor="#ffffff" width="1052.3622px">
	</sodipodi:namedview>
<g id="layer1" inkscape:groupmode="layer" inkscape:label="Layer 1">
	<path id="path2286" class="st0" d="M279.4,13c-0.7,0-1.1,0.2-1.2,0.4c-0.3,0.5-1.6,0.6-2.8,0.3c-1.3-0.3-3.2-0.2-4.3,0.3
		c-1.1,0.5-2.6,0.8-3.4,0.7c-1.2-0.2-3,2.5-3.3,5.1c-0.1,0.6-2.3,1-5,0.8c-3.6-0.3-4.9,0-4.6,1.2c0.2,1-0.9,1.5-3.4,1.6
		c-2.1,0-4.1,0.4-4.5,0.9s-2.7,0.9-5,0.9l-4.2,0.1l4,0.7c2.2,0.4,3.8,1.1,3.5,1.6c-0.3,0.5,0.6,1.7,2.1,2.7c2,1.4,3,1.6,4.3,0.5
		c1.1-0.9,2.3-1,3.7-0.3c5.4,2.8,11.2,2.7,17-0.4c4-2.1,6-2.6,6.9-1.8c1.9,1.9-1.1,4-9.1,6.7c-5.1,1.7-7.6,2-9.5,1.2
		c-2.7-1.2-6.1-0.5-6.1,1.3c0,1.8,8.2,6.1,10.4,5.4c2.7-0.9,3.9,1.1,1.7,2.9c-2.4,2-13.9,0.1-13.9-2.3c0-0.9-0.9-2.4-2-3.2
		c-1.1-0.8-1.7-2.3-1.3-3.2c0.4-1,0.2-1.6-0.3-1.5c-1.2,0.3-4.9-1-7.4-2.5c-3.4-2.1-4.7-2.5-6.6-1.7c-1.7,0.7-1.7,0.9-0.3,1.8
		c1.7,1.1,1.4,1.3-2.6,1.6c-0.8,0.1-2.1,0.9-2.8,1.8c-1.7,2.1,1.1,4.5,5.4,4.6c1.6,0,3.7,0.6,4.6,1.2c1.4,0.9,0.9,1.3-2.1,1.9
		c-3.1,0.6-3.5,1-2,1.8c1,0.6,1.6,1.5,1.2,2.1c-0.4,0.6,1.3,1.1,3.8,1.1c3,0,5.2-0.8,6.6-2.3c1.6-1.8,2.4-2,3.7-1
		c0.9,0.7,3.1,2.2,5.1,3.2c1.9,1,3.6,2.4,3.7,3c0.3,2-3.6,2-5.5,0.1c-1-1-1.3-1.8-0.7-1.8c0.6,0,1.5,0.5,1.9,1.2
		c0.4,0.6,1.6,1.2,2.6,1.2c1.5,0,1.3-0.4-0.8-1.9c-2.2-1.5-3.2-1.6-5.7-0.5c-2.7,1.2-2.9,1.5-1,2.5c2.1,1.2,1.7,3.3-0.7,3.3
		c-0.8,0-0.7-0.5,0.4-1.2c1-0.6,1.2-1.1,0.6-1.1c-1.9,0-4.6,2.1-3.8,2.9c0.4,0.4,5.3,0.9,10.8,1.2c5.5,0.2,10.4,0.7,10.7,1
		c0.8,0.8,1.3,0.8,5.6-0.8c4-1.4,5.4-3.4,1.8-2.5c-2.9,0.8-8.7-1.6-7.7-3.2c0.4-0.7,2-0.9,3.6-0.5c1.7,0.4,4.3-0.1,6.5-1.2
		c2-1.1,4.4-2.3,5.4-2.7c0.9-0.4,1.9-1.5,2.2-2.3c0.4-1.1-0.3-1.3-2.4-0.8c-1.6,0.4-3.2,0.4-3.6,0c-1.3-1.3,1.8-3.8,4.7-3.8
		c1.6,0,2.5-0.5,2.1-1.1c-1.2-1.9,1.3-2.3,5.1-0.9c3,1.1,3.9,1.1,4.7-0.3c0.6-0.9,5.1-3.6,10.1-6c5-2.4,8.4-4.3,7.7-4.4
		c-0.7,0-2.3-0.4-3.5-0.8c-1.6-0.5-1.7-0.4-0.6,0.4c1.2,0.9,0.7,1.4-2,2.4c-3.7,1.3-5.8,0.2-3.3-1.8c0.8-0.6,3.8-1.9,6.7-2.9
		c6.9-2.3,11.6-4.5,11.6-5.4c0-0.4-1.4-1.6-3.2-2.6c-2.3-1.3-4.1-1.5-6.7-0.8c-3.8,1.1-6.9,0.5-5.9-1.2c1-1.6-4.9-2.5-11.7-1.9
		c-3.3,0.3-8.4,0.1-11.3-0.4c-1.5-0.3-2.9-0.4-3.9-0.4C279.9,13,279.6,13,279.4,13z M389.4,13c-3.1,0-5.3,0.6-4.8,1.5
		c1.3,2.2-2.6,2.5-6.4,0.5c-2.8-1.5-4.4-1.6-6.3-0.8c-1.8,0.8-3,0.8-3.8,0c-1.6-1.6-4.8-0.3-4.8,2c0,2.3,1.9,2.3,2.8-0.1
		c0.6-1.6,1.1-1.5,3.5,0.8c1.9,1.8,2.4,3.2,1.7,4c-1,1.1-6.8,1.3-12.6,0.4c-4.4-0.7-8,0.1-7.4,1.7c0.9,2.3-1.3,3.3-3,1.3
		c-1.7-2.1-3.6-2.3-3.2-0.3c0.2,1-1.7,1.3-6.7,1.1c-6.6-0.3-14.3,1.9-12.5,3.7c1.2,1.2-2.1,4.4-3.8,3.8c-0.8-0.3-1.8-0.1-2.2,0.5
		c-0.4,0.6-1.3,0.8-2.1,0.5c-1.9-0.7-10.7,3.6-9.2,4.5c0.6,0.4,2.8,0.2,4.8-0.3c4.8-1.4,5.6,0.2,2.4,4.6c-1.8,2.4-3.6,3.5-5.8,3.5
		c-1.8,0-3.5,0.5-3.9,1.2c-0.4,0.6-1.2,0.8-1.8,0.5c-1.4-0.9-9.1,1.7-9.1,3c0,1.1,1.4,1.3,9.7,1.6c2.5,0.1,4.8,0.8,5,1.6
		c0.5,1.6-0.4,2-7.2,3.3c-4.2,0.8-4.3,0.9-1.7,1.6c1.6,0.4,2.6,1.2,2.3,1.7c-0.9,1.5,3.7,2.8,6.4,1.8c1.3-0.5,6.4-0.9,11.5-1
		c5.1-0.1,9.6-0.5,10.1-0.8c0.5-0.3,1.6,0.9,2.5,2.7c0.9,1.8,2.8,4.2,4.1,5.4c1.3,1.2,2.4,2.8,2.4,3.6c0,0.8,1,2.3,2.2,3.4
		c1.5,1.4,2,3,1.7,5.4c-0.6,3.9,1.3,4.7,2.3,0.9c0.5-2,1-2.2,2.3-1.1c3.9,3.3,2.9,7.3-2.1,8.6c-1.6,0.4-1.2,0.6,1.3,0.7
		c2,0.1,4.4,1.1,5.5,2.3c1.8,2,1.8,2.3-0.4,4.2c-2.2,2-2.2,2.1-0.3,3.5c1.8,1.4,1.8,1.6-1.2,2.7c-1.7,0.7-3.2,1.8-3.2,2.5
		c0,1,0.5,0.9,1.7-0.1c2.7-2.2,4.6-0.2,2.2,2.4c-1.1,1.2-1.5,2.2-0.9,2.2c0.6,0,0.1,0.8-1,1.6c-1.3,1-1.6,1.9-0.8,2.4
		c0.7,0.4,0.9,1.4,0.4,2.1c-0.5,0.9-0.2,0.8,1-0.1c2.1-1.7,3.6-0.3,2.1,2c-0.6,1,0.2,3.3,2.3,6.3c4.5,6.7,7.7,9.3,11.3,9.4
		c1.7,0,3.2,0.7,3.3,1.5c0.1,0.8,0.2,1.7,0.3,2.1c0.3,1.4,7.1-3.6,7.2-5.2c0.1-1,0-2.9-0.1-4.3c-0.1-1.4,0.3-2.8,1-3.3
		c0.7-0.4,1.2-1.7,1.2-2.9c0-2.5,10.2-11.9,11.8-10.9c0.6,0.4,2.6,0,4.4-0.7c3.3-1.4,4.9-3.5,5.1-6.9c0.1-1,0.8-1.6,1.6-1.4
		c0.8,0.2,2.5-0.7,3.7-2c1.8-1.8,3.8-2.2,9.6-2.1c4.5,0.1,8.6-0.6,10.7-1.7c1.9-1,5.3-2.2,7.5-2.7l4-0.9l-4-0.9
		c-2.2-0.5-5.1-0.6-6.5-0.3c-2.9,0.7-4.9-1.6-2.2-2.6c1-0.4,1.7-1.6,1.5-2.6c-0.2-1.3,0.7-2,3-2.2c2.5-0.3,3.4,0.2,3.9,2
		c0.8,2.9,3.8,3.2,3.8,0.3c0-2.7-6.3-6.4-9.3-5.5c-3.2,1-5.1-0.3-3.4-2.4c1-1.2,0.7-1.8-1.2-2.8c-3.3-1.8-1.7-3.8,2.3-2.9
		c2.6,0.6,3.2,0.3,3.1-1.3c-0.2-2.9,3.8-2.7,7.7,0.5c1.8,1.4,4.1,2.6,5.2,2.6c1.5,0,1.3-0.4-0.7-1.8c-3.3-2.3-2.3-4,2.4-4
		c3.4,0,3.5-0.1,1.4-1.7c-1.2-0.9-1.7-1.8-1.1-1.9c0.6-0.1-0.4-0.5-2.2-0.9c-4.4-1-4.5-2.8-0.1-3.8l3.5-0.7l-3.7-0.1
		c-2-0.1-4-0.6-4.4-1.2c-1.1-1.8,3.6-3.6,7.6-2.8c2.8,0.6,3.5,0.4,2.9-0.7c-0.5-0.8-1.1-1.1-1.5-0.8c-1.1,1.1-5.1-1.8-4.6-3.3
		c0.3-0.8,0-2.1-0.7-2.7c-0.9-0.9-0.4-1.6,1.8-2.4c1.7-0.6,3.1-2,3.1-2.9c0-0.9,0.9-2.3,2-3c1.7-1.1,1.6-1.2-1-0.7
		c-3.6,0.8-5-0.3-3.2-2.4c0.7-0.9,3.5-1.6,6.4-1.6c3.4,0,5-0.5,4.8-1.4c-0.2-0.8,0.9-1.6,2.4-1.8c1.4-0.2,4-1.1,5.6-1.9l2.9-1.5
		l-4.6-0.8c-2.5-0.4-5.6-0.3-6.7,0.3c-2.9,1.6-7.6,2.1-9.4,1c-0.8-0.5-3-0.2-4.9,0.8c-3.4,1.7-5.5,0.9-4-1.6c0.5-0.8-2-1.1-7.7-0.8
		c-6.2,0.3-10.4,1.3-15.7,3.7c-4.1,1.9-8,2.9-9.1,2.5c-2.9-1.1-1.1-2.4,9-6.4c5.7-2.3,10.9-3.5,14.6-3.5c3.2,0,7.5-0.8,9.6-1.8
		l3.9-1.8l-6.5,0.7c-6.8,0.7-9.6-0.6-5.9-2.9c2.3-1.5-8.7-0.9-21,1.1c-3.8,0.6-7.3,0.8-7.9,0.4c-1.7-1.1,1.1-3,5.7-3.9
		c4-0.8,3.8-0.9-2.5-0.9c-3.8,0-8-0.2-9.3-0.3C391.6,13.1,390.5,13,389.4,13z M357.4,14.8c-1.2,0-2.3,1.1-1.7,2.1
		c0.4,0.6,1.1,1.1,1.7,1.1c1.6,0,2.5-2.1,1.2-2.9C358.3,14.9,357.8,14.8,357.4,14.8z M352.1,16.1c-0.2,0-0.4,0.1-0.5,0.2
		c-0.6,0.4-0.8,1.2-0.4,1.8c0.4,0.6,1.2,0.8,1.8,0.4c0.6-0.4,0.8-1.2,0.4-1.8C353.1,16.3,352.6,16.1,352.1,16.1z M450,22.9
		c-1.2,0-2.3,1.1-1.7,2.1c0.4,0.6,1.1,1.1,1.7,1.1c1.6,0,2.5-2.1,1.2-2.9C450.8,23,450.4,22.9,450,22.9z M666.8,24.1
		c-0.6,0-0.8,0.8-0.5,2.4c0.1,0.6-0.6,0.7-1.5,0.4c-2.3-0.9-3.3,0.4-1.7,2.3c1.2,1.5,3.6,1.7,3,0.3c0.2-0.1,0.3-0.2,0.3-0.4
		c0-0.1-0.1-0.2-0.2-0.3c0.2-0.5,0.6-1.2,1.1-1.9c1-1.2,1.1-2.1,0.3-2.6C667.3,24.2,667.1,24.1,666.8,24.1z M677.9,25.2
		c-1.2,0-2.3,1.1-1.7,2.1c0.4,0.6,1.1,1.1,1.7,1.1c1.6,0,2.5-2.1,1.2-2.9C678.8,25.3,678.3,25.2,677.9,25.2z M331.2,26.3
		c1.6,0,3.2,1.1,2.5,2.1c-0.9,1.5-3.7,1.5-4.6,0.1c-0.4-0.6-0.1-1.4,0.6-1.8C330.2,26.4,330.7,26.3,331.2,26.3z M644.8,26.6
		c-0.2,0-0.4,0.1-0.5,0.2c-0.6,0.4-0.8,1.2-0.4,1.8c0.4,0.6,1.2,0.8,1.8,0.4c0.6-0.4,0.8-1.2,0.4-1.8
		C645.8,26.7,645.3,26.5,644.8,26.6z M756.6,27.5c-1.2,0-2.3,1.1-1.7,2.1c0.4,0.6,1.1,1.1,1.7,1.1c1.6,0,2.5-2.1,1.2-2.9
		C757.4,27.6,757,27.5,756.6,27.5z M658.1,27.7c-0.9,0.1-1.9,0.4-3,1c-0.8,0.5-1.7,0.3-2.1-0.3c-0.4-0.7-1.2-0.9-1.8-0.5
		c-0.6,0.4-0.8,1.2-0.4,1.8c0.4,0.6,1.1,0.8,1.7,0.5c0.5-0.3,1.3-0.1,1.7,0.5c0.4,0.6,1.3,1,2.1,0.8c2.4-0.4,4.4-2,3.8-3
		C659.7,27.9,659,27.6,658.1,27.7z M670.2,27.7c-0.2,0-0.4,0.1-0.5,0.2c-0.6,0.4-0.8,1.2-0.4,1.8c0.4,0.6,1.2,0.8,1.8,0.4
		c0.6-0.4,0.8-1.2,0.4-1.8C671.2,27.8,670.7,27.6,670.2,27.7z M278.1,28.5c-0.8,0.1-2.4,1-5.9,2.9c-5.4,2.9-3.5,3.2,3.7,0.5
		c1.6-0.6,2.9-1.7,2.9-2.3c0-0.6,0-1-0.4-1C278.3,28.5,278.2,28.5,278.1,28.5z M307.2,28.5c-0.7,0-1.6,0.3-2.1,0.8
		c-0.9,0.9-0.4,1,1.5,0.5c1.6-0.4,2.1-0.9,1.2-1.2C307.7,28.6,307.5,28.5,307.2,28.5z M768.9,29.3c-0.9,0.1-2,0.6-3.9,1.8
		c-3.7,2.2-3.8,2.5-2.1,3.8c2.2,1.6,10,0.9,11.2-1.1c0.4-0.7-0.5-2.1-2.1-3.2C770.7,29.6,769.8,29.2,768.9,29.3z M682.5,29.9
		c-0.5,0-1,0.2-1.4,0.4c-0.8,0.5-1.8,0.9-2.3,0.9c-0.5,0-0.9,0.4-0.9,0.9c0,0.5,0,1.2,0,1.7c0,0.4,0.6,0.2,1.3-0.5
		c0.7-0.7,2-1,2.8-0.7c1.8,0.7,3.4-1.5,1.7-2.5C683.4,29.9,683,29.9,682.5,29.9z M635.1,30.2c-2.1,0-5.3,1.2-6.3,2.7
		c-0.6,1,3.2,4,5.3,4.2c0.4,0,1.2,0.4,1.6,0.9c1.1,1.1,3-0.2,2.2-1.5c-0.4-0.6-1.1-0.8-1.6-0.5c-0.5,0.3-1.2-0.2-1.6-1
		c-0.3-0.9,0.2-1.9,1.2-2.3c1.2-0.5,1.5-1.1,0.7-1.9C636.4,30.3,635.8,30.2,635.1,30.2z M642.5,30.2c-0.6,0-1.2,0.3-2.2,1
		c-1.9,1.4-2,1.8-0.5,3.6c0.9,1.1,1.6,2.4,1.4,2.7c-0.2,0.4,0.2,0.7,0.8,0.7c0.6,0,1.5,0.4,1.9,0.8c1.1,1.1,3-0.2,2.2-1.5
		c-0.4-0.6-1.1-0.8-1.7-0.5c-0.5,0.3-1.3,0.1-1.6-0.4c-0.4-0.6,0.5-1.3,1.9-1.7c3.5-0.9,3.8-0.9,3.8,0.3c0,2,1.7,2.7,3.4,1.4
		c1.1-0.9,1.9-1,2.4-0.1c0.5,0.8,1.5,0.8,3.1-0.1c1.7-0.9,2-1.6,1.2-2.5c-0.9-0.9-1.7-0.8-2.9,0.1c-1.3,1.1-1.8,0.9-2.4-0.6
		c-0.4-1.1-1.1-1.6-1.5-1.2c-0.4,0.4-1.4,0.2-2.2-0.5c-1-0.8-1.7-0.8-2.2,0.1c-0.6,0.9-1.4,0.7-2.8-0.5
		C643.6,30.6,643.1,30.2,642.5,30.2z M674.4,30.2c-1.7,0-5.7,3-5,4.1c0.4,0.6,1.1,1,1.6,1c1.4,0,4.8-4.2,4-5
		C674.8,30.3,674.6,30.2,674.4,30.2z M661,31.2c-0.2,0-0.4,0.1-0.5,0.2c-0.6,0.4-0.7,1.3-0.2,2c0.5,0.8,1,1.8,1,2.2
		c0.1,0.5,0.2,1.2,0.3,1.6c0.1,0.4,1.2-0.2,2.4-1.3c2.2-2,2.2-4.8,0-3.5c-0.5,0.3-1.3,0.1-1.7-0.6C662,31.4,661.5,31.1,661,31.2z
		 M564.7,34.8c-1.2,0-1.3,0.3-1.3,1.1c0,0.8-0.9,2.2-2,3.1c-1.1,0.9-1.6,1-1.1,0.2c1-1.7-0.8-2.9-5.3-3.4c-3-0.3-3.2-0.1-2,1.4
		c1.2,1.5,1.1,2.1-0.5,3.8c-1.8,1.8-2.1,1.8-3.4,0.1c-2.2-2.9-4.6-3.1-6.7-0.7c-1.3,1.6-2.6,2-4.1,1.4c-2.2-0.8-2.2-0.9,0-2.5
		c2.5-1.8,1.6-2-3.8-0.9c-2,0.4-3.6,1.2-3.6,1.8c0,0.6,0.5,0.8,1.2,0.4c2.4-1.5,3.7,0.8,1.7,3c-1.1,1.2-2.5,1.8-3.3,1.4
		c-0.7-0.4-0.6,0.1,0.3,1.2c1.7,2.1,4.2,1.5,2.9-0.7c-0.4-0.8,0.4-0.4,1.7,0.8c2.3,2,2.7,2,4.5,0.4c2.6-2.4,6.3-3,6.9-1.2
		c0.3,0.8-0.8,1.9-2.5,2.6c-3.4,1.3-4,2.6-1,2.1c3.2-0.5,2.4,2.9-0.9,3.8c-1.6,0.4-2,0.9-1,0.9c1,0.1,2.5,0.9,3.3,1.8
		c2.1,2.5,3,2.2,4.7-1.8c0.8-1.9,2.4-4.8,3.7-6.4c2.1-2.6,2.5-2.7,4.9-1.1c1.4,0.9,3,1.3,3.5,0.8c0.5-0.5,0.3,0.3-0.4,1.8
		c-1.3,2.5-1.2,2.6,2.2,2.4c2-0.2,3.8-0.6,4-1c0.4-0.7-5.1-3.8-9.1-5.1c-1.2-0.4-1.8-1.1-1.4-1.7c0.4-0.6-0.5-1.3-2-1.7
		c-2-0.5-2.2-1-1.2-2.1c1.1-1.1,2.8-1.1,7.7,0c6,1.3,6.6,1.3,10.5-1.4l4.2-2.8l-3.8-0.8C568.2,35.2,565.9,34.8,564.7,34.8z
		 M591.5,35.5c-0.5,0-1.1,0.1-1.5,0.4c-0.7,0.4-0.9,1.3-0.6,1.8c0.9,1.4,3.7,1.4,4.6-0.1C594.7,36.6,593.1,35.5,591.5,35.5z
		 M604.3,35.8c-0.2,0-0.4,0.1-0.5,0.2c-0.6,0.4-0.8,1.2-0.4,1.8c0.4,0.6,1.2,0.8,1.8,0.4c0.6-0.4,0.8-1.2,0.4-1.8
		C605.3,35.9,604.8,35.7,604.3,35.8z M667.9,35.8c-0.2,0-0.4,0.1-0.5,0.2c-0.6,0.4-0.8,1.2-0.4,1.8c0.4,0.6,1.2,0.8,1.8,0.4
		c0.6-0.4,0.8-1.2,0.4-1.8C668.9,35.9,668.4,35.7,667.9,35.8z M761.7,36c-0.6,0-1.3,0.1-2,0.3c-1.7,0.4-1.8,0.8-0.6,1.5
		c2,1.3,4.1,1.3,5,0C764.7,36.7,763.5,36,761.7,36z M770.4,36.5c-1.7,0.1-3.7,0.8-6.1,2.1l-3.9,2.1l6.5,1.5c3.6,0.8,7.8,2.1,9.4,3
		c3.6,1.9,4.1,1.6,4.4-2.9c0.4-5.3-0.9-6.6-3.4-3.3l-2.1,2.7l-0.7-2.6C773.9,37.3,772.5,36.4,770.4,36.5z M216.4,37.1
		c-0.1,0-0.2,0.1-0.3,0.1c-0.6,0.4-0.5,1.4,0.3,2.3c0.7,0.9,1.8,1.3,2.4,0.9c0.6-0.4,0.5-1.3-0.3-2.3
		C217.9,37.4,217,36.9,216.4,37.1z M451.6,39.3c-0.2,0-0.4,0.1-0.5,0.2c-0.6,0.4-0.8,1.2-0.4,1.8c0.4,0.6,1.2,0.8,1.8,0.4
		c0.6-0.4,0.8-1.2,0.4-1.8C452.6,39.4,452.1,39.2,451.6,39.3z M201.6,40.7c-1.6,0.1-1.8,0.7,0.1,1.8c1,0.6,1.6,1.6,1.2,2.2
		c-0.4,0.7,0.4,0.9,2,0.5c1.9-0.5,3.8,0.3,6.8,2.7c4.9,4.1,6.7,3.6,3.5-0.9c-1.4-1.9-4.5-4-7.7-5.1c-2-0.7-3.8-1.1-5.1-1.2
		C202.1,40.7,201.8,40.7,201.6,40.7z M790,41.7c-1.8,0-3.3,1.1-5,3.3c-1.6,2.1-2.9,4.1-2.9,4.4s2-0.1,4.3-0.9
		c2.4-0.9,5.4-1.6,6.8-1.6c3.6-0.1,4.2-1.4,1.6-3.2C792.9,42.4,791.4,41.8,790,41.7z M580.7,42.6c-1.2,0-2.3,1.1-1.7,2.1
		c0.4,0.6,1.1,1.1,1.7,1.1c1.6,0,2.5-2.1,1.2-2.9C581.6,42.6,581.1,42.6,580.7,42.6z M574.2,43.9c-0.2,0-0.4,0.1-0.5,0.2
		c-0.6,0.4-0.8,1.2-0.4,1.8c0.4,0.6,1.2,0.8,1.8,0.4c0.6-0.4,0.8-1.2,0.4-1.8C575.2,44,574.7,43.8,574.2,43.9z M764,46.2
		c-0.2,0-0.4,0.1-0.5,0.2c-0.6,0.4-0.8,1.2-0.4,1.8c0.4,0.6,1.2,0.8,1.8,0.4c0.6-0.4,0.8-1.2,0.4-1.8
		C764.9,46.3,764.5,46.1,764,46.2z M801,46.2c-0.2,0-0.4,0.1-0.5,0.2c-0.6,0.4-0.8,1.2-0.4,1.8c0.4,0.6,1.2,0.8,1.8,0.4
		c0.6-0.4,0.8-1.2,0.4-1.8C802,46.3,801.5,46.1,801,46.2z M187,46.6c-0.4,0.2-2.4,0.3-4.3,0.3c-1.9,0-3.3,0.4-2.9,1
		c0.3,0.5,2.3,0.8,4.4,0.6c2.1-0.2,2.8-0.1,1.5,0.3c-4,1-7.5,3.1-6.8,4.1c0.9,1.4,1.5,1.2,5.9-1.5c2.2-1.3,3.7-3,3.5-3.8
		C188,46.9,187.4,46.5,187,46.6z M222.3,46.9c-0.4,0,0,0.5,0.8,1.6c1.8,2.2,3.2,2.5,4.2,0.8c0.4-0.6,0.2-1.2-0.4-1.2
		c-0.6,0-2.1-0.4-3.3-0.8C223,47,222.5,46.9,222.3,46.9z M449.3,48.5c-0.2,0-0.4,0.1-0.5,0.2c-0.6,0.4-0.8,1.2-0.4,1.8
		c0.4,0.6,1.2,0.8,1.8,0.4c0.6-0.4,0.8-1.2,0.4-1.8C450.3,48.7,449.8,48.5,449.3,48.5z M760.5,48.5c-0.2,0-0.4,0.1-0.5,0.2
		c-0.6,0.4-0.8,1.2-0.4,1.8c0.4,0.6,1.2,0.8,1.8,0.4c0.6-0.4,0.8-1.2,0.4-1.8C761.5,48.7,761,48.5,760.5,48.5z M174,49.2
		c-0.3,0-0.5,0.5-0.5,1.2c0,0.6,0.6,1.2,1.2,1.2c0.7,0,0.9-0.5,0.5-1.2C174.9,49.7,174.3,49.2,174,49.2z M200.5,50.8
		c-0.2,0-0.4,0.1-0.5,0.2c-0.6,0.4-0.8,1.2-0.4,1.8c0.4,0.6,1.2,0.8,1.8,0.4c0.6-0.4,0.8-1.2,0.4-1.8C201.5,51,201,50.8,200.5,50.8z
		 M754.7,50.8c-0.2,0-0.4,0.1-0.5,0.2c-0.6,0.4-0.8,1.2-0.4,1.8c0.4,0.6,1.2,0.8,1.8,0.4c0.6-0.4,0.8-1.2,0.4-1.8
		C755.7,51,755.2,50.8,754.7,50.8z M793.5,51c-1.5,0-2.7,0.8-4.2,2.5c-1.9,2.1-2.3,3.3-1.4,4.4c1.7,2,0.2,3.1-3,2.2
		c-1.6-0.4-4.6,0.2-7,1.3c-3.1,1.5-4.8,1.7-6.1,0.8c-1.3-0.8-3.7-0.7-8.1,0.4c-3.4,0.9-7.9,1.6-9.9,1.6c-3.7,0-10.1,2.2-11,3.7
		c-0.2,0.4,0.5,1.5,1.7,2.4c2.1,1.6,1.6,5-0.5,3.7c-0.6-0.4-4.5-0.8-8.6-1c-7.2-0.3-7.5-0.2-7.5,2.4c0,1.6,0.7,2.7,1.6,2.7
		c2.8,0,6.4,3.9,6.7,7.5c0.3,2.8-0.1,3.5-2,3.5c-1.8,0-2.3-0.7-2.1-3c0.2-2.6-0.6-3.3-5-5c-3.7-1.4-5.6-1.6-6.7-0.7
		c-1.1,0.9-1.9,0.9-2.9-0.1c-0.9-0.9-1.4-1-1.4-0.1c0,0.7,1.4,2.1,3,3.2c4.3,2.8,1.9,4.9-2.9,2.4c-2.3-1.2-4-3.2-4.7-5.6
		c-0.6-2.1-1.1-2.9-1.2-1.9c-0.1,1-0.9,2.5-1.9,3.4c-1,0.9-1.5,2.3-1,3.3c0.7,1.6,1.1,3.9,1.5,7.3c0.1,0.5,1.5,0.9,3.2,0.9
		c3.6,0,8.5,4.1,8.5,7c0,1.1,0.9,2.3,1.9,2.7c1.4,0.5,1.6,1.1,0.7,2c-1.7,1.7-6.1-0.8-6.1-3.4c0-2.4-2.2-4.8-4.3-4.8
		c-0.8,0-2.3,2-3.3,4.4c-1,2.4-3.4,5.6-5.3,7.1c-3.4,2.5-3.6,2.5-7.5,0.7c-2.2-1-3.7-2.4-3.3-3c0.9-1.4,4.8-1.4,5.7,0.1
		c3.6,5.9,7.6-14.4,4.1-20.7c-0.6-1-0.4-2.9,0.3-4.5c1.4-3.2-0.2-4.9-4.8-4.9c-1.9,0-3,0.9-3.8,3.4c-0.7,1.9-2.4,4.2-4,5.2
		c-2.5,1.6-2.6,2.1-1.4,4.4c0.8,1.4,2.4,3.2,3.5,4.1c1.1,0.8,2,2.3,2,3.3c0,2.8-3.4,3.2-6.1,0.7c-1.5-1.4-5-2.7-8.6-3.1
		c-5.6-0.7-6.2-0.6-8.8,2.4c-1.9,2.2-3.3,2.9-4.8,2.4c-1.8-0.7-1.8-1.1-0.5-2.7c1.3-1.5,0.9-1.5-1.8,0.3c-1.9,1.2-5.2,2.8-7.4,3.6
		c-3.5,1.2-4,1.1-4.5-0.8c-0.5-2-0.8-2-3.9-0.5c-1.8,0.9-4.4,1.7-5.8,1.7c-1.4,0-4.3,1.6-6.5,3.5c-4.4,3.9-6.4,4.3-8.5,1.7
		c-1.2-1.4-1-1.9,1.1-2.6c2.3-0.9,2.3-1.1-1.6-2.9c-4.5-2.1-4.8-1.8-2.9,3.7c1.5,4.4-0.3,7.7-3.4,6c-2-1.1-8.8,2.8-7.8,4.5
		c0.3,0.5-0.1,1.5-1,2.3c-1.3,1.1-2.4,1-5.2-0.5c-3.8-2-4.8-1.2-1.5,1.2c1.5,1.1,1.7,1.9,0.7,2.9c-2,2.1-8.3-1.7-9.3-5.5
		c-0.4-1.7-1.9-4-3.2-5.1c-2.1-1.8-2.2-2-0.5-2.7c1.1-0.4,3.5,0.1,5.5,1.1c6.2,3.2,16.3,1.5,16.3-2.7c0-1.9-13.4-9.3-16.7-9.3
		c-0.9,0-2.2-0.8-3-1.8c-1.1-1.3-2.8-1.6-6.9-1c-6.1,0.8-9-1.1-4.4-2.9c2.6-1.1,2.6-1.1-0.4-1.2c-1.7,0-3.4-0.6-3.8-1.2
		c-0.4-0.6-1.2-1.2-1.9-1.2c-0.6,0-0.8,0.7-0.3,1.4c0.7,1.1,0.5,1.2-0.9,0c-1.2-1-2.1-1-3-0.2c-0.9,0.9-1.5,0.8-2.1-0.2
		c-0.6-1-0.4-1.1,0.6-0.5c1,0.6,1.2,0.5,0.7-0.4c-0.6-0.9-1.5-1-2.9-0.2c-1.2,0.6-2.5,0.7-3,0.3c-0.5-0.5-0.5-0.2-0.1,0.5
		c1.2,2.1-2.7,3.8-6,2.5c-2.6-1-2.7-0.9-1.3,1c0.9,1.1,1.1,1.7,0.6,1.2c-0.6-0.5-1.7-0.3-2.6,0.4c-0.9,0.7-1.6,0.9-1.6,0.4
		c0-0.5-0.8-0.2-1.7,0.5c-0.9,0.8-2.3,1.3-3.2,1.2c-3.6-0.5-4.7,0-3.5,1.6c1.6,1.9-0.2,4.9-2.9,4.9c-1.3,0-2.1,0.9-2.1,2.3
		c0,1.3-0.3,2.1-0.8,1.7c-0.4-0.3-2,0.6-3.6,2c-1.5,1.4-3.2,2.2-3.7,1.7c-0.5-0.5-0.7,0.1-0.3,1.2c0.4,1.2,0.2,2.2-0.7,2.5
		c-5.7,1.7-6,1.9-4.3,3c0.9,0.6,1.7,2.4,1.8,4c0.2,3.4-2.8,5.6-5.4,4c-2.3-1.4-3.5-1.4-3.1,0.2c0.2,0.7-0.7,1.9-1.9,2.6
		c-5.8,3.5-6.8,5.6-4.9,10c0.4,1,0.6,3.3,0.5,5.2c-0.2,3,0.2,3.5,2.7,3.8c1.9,0.2,4.3-0.7,6.6-2.7l3.6-3l1.6,3.3
		c0.9,1.8,2.3,5.3,3.1,7.8c2.1,6.6,2.2,6.7,5.3,4.7c1.5-1,3.9-1.8,5.2-1.8c2,0,2.3-0.5,1.8-2.4c-0.9-3.3,1-8,3.3-8
		c1,0,1.5-0.5,1.2-1.1c-0.4-0.6-0.1-1.4,0.6-1.8c0.8-0.5,0.4-1.7-1.2-3.4c-2-2.2-2.3-3.3-1.5-7.1c0.9-4.2,2.8-6.2,9.2-9.3
		c0.8-0.4,1.4-1.8,1.4-3.1c0-5.4,7.2-8.8,10.4-4.9c1.6,1.9,1.3,2.6-5.8,10c-3.6,3.7-4,4.9-3.7,9c0.6,6.3,2.1,7.3,7.7,5.2
		c5.5-2,11.8-2.2,14.1-0.3c3.3,2.7,0.3,3.7-13.8,4.4c-2.2,0.1-2.8,4.1-0.9,5.3c1.6,1,1.5,4.9-0.2,5.9c-0.7,0.5-2-0.1-2.9-1.3
		c-2.2-3-5.4-0.2-4.5,4c0.5,2.5,0,3.6-2.9,5.7c-2.9,2.1-3.9,2.4-5.2,1.2c-1.3-1.1-2.8-0.8-7.6,1.7c-5.6,2.9-5.9,2.9-6.5,0.8
		c-0.5-1.9-1-2.1-4-1c-2.8,1-3.8,0.8-5.7-0.9c-1.4-1.2-2-2.8-1.6-3.9c1.7-4.3,1.6-6-0.4-5.6c-2,0.4-2.3,2.5-1.3,9.6
		c0.4,3.2,0.2,3.5-3.3,3.6c-2.1,0.1-4.7,1-5.9,2c-1.2,1.1-2.4,1.6-2.9,1.2c-0.4-0.4-0.8,0.2-0.8,1.5c0,2.8-2.1,5.1-4.8,5.1
		c-1.1,0-2.6,1-3.3,2.3c-1.4,2.6-7.6,6.2-9.1,5.3c-0.5-0.3-1.3,0.4-1.6,1.7c-0.5,1.9-1.2,2.2-3.6,1.6c-3.9-1-4,1.5-0.2,2.9
		c3,1.1,6.1,6.9,6.3,11.6c0.1,3.8-3,7.1-6,6.4c-3.8-0.9-13.8-1.5-15.3-0.9c-0.8,0.3-1.1,2.6-0.8,6.1c0.3,3.1,0,6.6-0.7,7.9
		c-1.8,3.3,0.7,8.4,4.1,8.4c1.4,0,3,0.9,3.7,2c0.9,1.6,1.6,1.7,3.8,0.7c1.5-0.7,4-1.6,5.6-1.9c4.3-0.9,7.3-3.5,7.6-6.6
		c0.2-1.5,0.3-3.2,0.4-3.6c0.1-0.5,2.2-1.9,4.7-3.2c3.4-1.7,4.6-3.1,4.6-5.1c0-3.7,2.8-5.7,6.7-5c1.9,0.4,4.1,0,5.4-1
		c3.3-2.4,6.1-2,8.4,1.3c3.1,4.5,9.4,10.2,11.6,10.5c3,0.4,6.2,5,5.4,7.6c-0.5,1.6-0.3,2.1,0.7,1.4c0.8-0.5,1.1-2.2,0.8-4
		c-0.8-3.8,0.2-5.1,2.3-3.3c1,0.9,1.6,0.9,1.6,0.1c0-0.7-2.4-2.4-5.3-3.9c-3.4-1.7-6.1-4.1-7.5-6.7c-1.2-2.2-2.9-5-3.7-6.1
		c-1.2-1.6-1.1-2.4,0.5-4c1.8-1.8,2-1.8,2.7,0c0.4,1.1,1.2,1.7,1.7,1.4c0.5-0.3,1.7,0.7,2.7,2.2c1,1.5,4.1,4.5,7,6.5
		c3.5,2.5,5.5,4.9,6,7.3c0.9,4.2,6.2,11.2,8.4,11.2c0.8,0,1.2-0.5,0.8-1.2c-0.4-0.6-1.3-0.8-2-0.4c-0.8,0.5-0.9,0.2-0.4-0.6
		c0.7-1.1,1.3-1.1,2.5,0c1.9,1.5,1.1,3.4-1.3,3.4c-0.9,0-1.7,0.8-1.7,1.7c0,2.2,0.6,2.2,4.1-0.1c3.5-2.3,3.6-3.5,0.4-6.1
		c-2.3-1.8-2.2-5.6,0.1-4.2c0.5,0.3,1.3-0.2,1.6-1.1c0.5-1.2,1.9-1.6,5.1-1.3c3.5,0.3,4.8-0.1,5.9-1.8c0.9-1.5,1.1-2.8,0.3-3.7
		c-1.7-2,3.7-12.5,7.9-15.6c2.8-2.1,3.9-2.3,5.9-1.3c1.8,0.9,2.1,1.7,1.2,2.7c-0.9,1.1-0.5,1.9,1.5,3c3.5,1.9,6.3,0.5,3.4-1.7
		c-1.4-1-1.7-1.9-0.9-2.6c1.7-1.5,8.8-3.8,9.9-3.1c1.2,0.8,0.8,3.4-1,5.5c-1.2,1.4-0.5,2.5,4.3,6.1c6.7,5.1,7.7,7,5.3,9.7
		c-2.2,2.4-8.9,2.3-14.8-0.3c-5.2-2.3-7.5-2.4-11.3-0.2c-1.6,0.9-4,1.7-5.4,1.7c-1.4,0-2.8,0.9-3.2,1.8s-1.3,1.7-2.1,1.6
		c-3.4-0.4-4.1,0.2-3.7,3.8c0.2,2.1,0.5,3.9,0.6,4c0.1,0.2,0.3,0.8,0.4,1.3c0.2,1.2,1.8,3,2.9,3.1c0.4,0.1,1.7,0.5,2.9,1
		c1.2,0.5,2.6,0.4,3.3-0.3c0.8-0.8,2.4-0.8,5.1,0c2.8,0.9,4.8,0.8,6.9-0.1c4.2-1.9,4.5-0.1,1.8,10.2c-2.7,10.4-5.5,13.4-10,11
		c-2.2-1.1-3.8-1.2-6.1-0.3c-2.5,1-4.8,0.6-11.8-2c-12.8-4.6-12.7-4.7-16.2,2.8c-1.4,3.1-4.4,2.5-11.8-2.2c-4-2.6-8.1-4.7-9.3-4.7
		c-1.1,0-3.2-1.1-4.4-2.4c-1.8-1.8-2.1-2.8-1.1-4.6c1.5-2.7,0.4-7.7-1.8-8.6c-0.9-0.3-4.5-0.1-8.1,0.6c-3.6,0.7-7.2,0.9-8.1,0.6
		s-6,0.9-11.4,2.8c-10.3,3.6-14,4.2-15.1,2.3c-1.2-2-2.3-1.3-3.7,2.3c-0.7,1.9-2.9,4.4-4.9,5.5c-3.3,1.9-4.4,4.7-3.7,8.9
		c0.5,2.5-2.8,7.9-5.8,9.4c-1.8,0.9-4.8,4.5-6.8,8c-2,3.5-4.2,6.5-4.9,6.7c-2,0.7-2.5,4.1-2.2,15c0.2,6.7-0.3,11.4-1.4,14.1
		c-1.6,3.7-1.5,4.2,0.5,6c1.2,1.1,2.2,2.6,2.2,3.2c0,0.6,1.9,3.4,4.1,6.1s4,5.8,3.8,6.8c-0.6,2.8,3.6,8.1,9.1,11.5
		c4.8,3,5.4,3.1,10.4,1.9c2.9-0.7,6.7-1,8.4-0.7c1.7,0.4,5.7-0.3,9.4-1.7c3.5-1.3,7.5-2.4,9-2.4c2.6,0,6.5,3,7.4,5.6
		c0.3,0.9,1.6,1,4.1,0.3c5.4-1.6,7.2,1,6.5,9.1c-1,11.4-0.7,14,2.4,17.2c2.7,2.8,5.3,7.9,4.9,9.6c-0.1,0.4,0.7,1.7,1.8,2.9
		c1.1,1.2,2,3.4,2,5c0,1.6,0.4,4.3,0.8,6.1c0.5,2,0.1,4.6-1,7.1c-1,2.2-2.4,6.5-3.2,9.7c-1.2,5.1-1.1,6.4,1,10.8
		c2.7,5.9,3.6,9.1,4.4,15.5c1,8.1,2.9,13.6,7.5,22.6c5,9.6,5.4,11.3,2.9,12.3c-2.8,1.1,3.9,6.5,6.8,5.6c1.3-0.4,5.9-1.1,10.2-1.7
		c8.4-1,11.9-2.7,15.8-7.8c6-7.7,8.5-12.7,8.8-17.4c0.3-4.2,0.9-5.4,4.2-7.6c3.5-2.4,3.8-3.1,3.5-7.6c-0.2-2.7-0.8-5.9-1.4-7.1
		c-0.9-1.6-0.3-2.9,2.5-5.7c2-2,5.1-4.3,6.9-5.3c2.9-1.5,5.8-5,6.4-7.8c0.1-0.5,0.3-1.3,0.4-1.7c0.8-2.9-0.4-13.8-1.8-15.8
		c-0.9-1.3-1.7-3.8-1.7-5.6c0-1.8-0.4-4.2-1-5.2c-2-3.8,7.3-19.5,14.9-25.1c2.2-1.6,5.5-4.9,7.3-7.3c4.3-5.7,11.2-19.9,11.6-24
		c0.2-1.9,1.3-3.7,2.5-4.2c2.7-1.2,0.1-0.8-11.1,1.7c-7.1,1.6-7.7,1.6-10.7-0.6c-1.8-1.2-2.9-2.7-2.6-3.3c0.3-0.5,0.1-1.3-0.6-1.7
		c-0.7-0.4-2.5-2.8-4.1-5.4c-1.6-2.5-3.9-5.6-5.2-6.8c-1.3-1.3-2.3-3-2.3-4s-1-2.2-2.3-2.9c-1.8-1-2.3-2.4-2.3-6.7
		c0-3-0.7-6.5-1.6-7.8c-0.9-1.3-1.9-3.6-2.3-5.2c-0.4-1.6-2.6-5.7-4.8-9.1c-2.2-3.4-4.1-6.9-4.1-7.7c0-2.8,2.3-3.1,3.3-0.4
		c0.9,2.4,1,2.4,1.8,0.4c0.8-2.1,1-2,3.1,0.7c2.9,3.6,5.7,10,5.7,12.9c0,1.2,0.8,2.2,1.7,2.2c2.2,0,4.1,3.6,4.1,7.8
		c0,3.5,1.9,6.9,6.8,12.2c1.9,2.1,3,4.7,3.1,7.5c0.4,9.6,2.4,12.2,7.2,9.7c1.1-0.6,5.9-3,10.7-5.3c4.8-2.3,10.3-5.2,12.4-6.3
		c4.2-2.4,12.5-9.3,11.1-9.4c-0.5,0,0.3-1,1.7-2.2c1.4-1.2,2.2-2.5,1.8-2.9c-0.4-0.4,0.2-1.7,1.3-3c2-2.2,1.9-2.3-2.7-5.2
		c-2.7-1.7-5-4.2-5.5-5.9l-0.8-2.9l-1.7,2.5c-2,2.8-9,6.2-10.7,5.1c-0.6-0.4-1.1-1.4-1.1-2.2s-0.8-2.2-1.7-3c-1-0.8-1.7-2.3-1.7-3.3
		c0-1-1.6-4.2-3.5-7.1c-3.1-4.6-3.3-5.3-1.7-6.5c2.6-1.9,6.2-0.6,8,2.9c2.7,5.2,8.3,8.6,13,7.7c3.4-0.6,4.2-0.4,4.7,1.5
		c0.8,2.9,4.6,4,15.9,4.2c8.3,0.2,9.4,0.4,11.6,3.2c1.3,1.7,3.8,3.4,5.6,3.8c3.9,1,5.1,2.6,2.6,3.6c-1.4,0.5-1.5,1.1-0.5,2.3
		c1.9,2.3,4.2,2,4.9-0.8c1.1-4.4,3.1-1,3,5.1c-0.1,3.3,0.1,6.8,0.4,7.7c0.3,1,1.1,4.2,2,7.3c0.8,3,1.9,5.8,2.5,6.1
		c0.6,0.3,1,1.6,1,2.7c0,1.1,1.8,5.6,4,9.8l4,7.7l1.8-2.8c2.7-4.1,4-9.8,4-16.6c0-5.1,0.4-6.2,2.6-7.4c3.4-1.8,16.4-14.9,17.4-17.5
		c0.5-1.3,2-2,4.5-2c2,0,4.6-0.8,5.7-1.8c1.9-1.7,2.2-1.6,4.4,2c1.3,2.1,3.5,5.1,4.8,6.7c1.9,2.2,2.4,4,2.1,7.8c-0.3,4.1,0,5,1.6,5
		c1.1,0,3-1.1,4.2-2.4c2.7-2.8,3.1-2.3,4.2,5.3c0.5,3.2,1.3,6.4,1.9,7.1c0.6,0.7,0.8,4.7,0.5,8.9c-0.5,6.3-0.2,8.1,1.7,10.4
		c1.2,1.6,2.2,3.6,2.2,4.6c0,5.3,7.7,16.7,9.8,14.5c0.2-0.2-0.2-3.2-1-6.6c-0.9-4.2-2.4-7-4.4-8.7c-1.6-1.3-3.4-3.8-3.9-5.4
		c-0.5-1.6-1.6-3.4-2.5-4.1c-1.5-1.1-1.5-2,0-7c1.6-5.3,2-5.7,5-5.4c5,0.5,6.2,1.1,6.2,3.4c0,1.1,1,2.7,2.3,3.5
		c1.3,0.8,2.3,2.7,2.3,4.4c0,2.9,0.1,2.9,5.8-2l5.8-5l-0.4-6.5c-0.3-5-1.2-7.7-3.8-11.4c-1.9-2.6-4.1-5.8-5-7
		c-1.4-2-1.2-2.7,2.6-6.5c4-4,4.3-4.1,6.4-2.3c1.9,1.7,2.2,1.7,2.8,0.1c0.4-1,1.7-1.8,2.8-1.8c1.2,0,2.6-0.5,3.3-1.2
		c0.6-0.6,3.4-1.5,6.1-1.8c3.9-0.5,6-1.8,10-6.1c2.8-3,5.2-6.1,5.2-6.9c0-0.8,1.3-3.2,2.9-5.3c3.4-4.5,3.6-6,0.9-7
		c-1.9-0.7-1.9-0.9,0.2-2.4c1.9-1.4,1.9-1.7,0.4-1.7c-2.9,0-3.7-2.4-1.1-3.1c2.2-0.6,2.2-0.8-1.2-5.7c-3.3-5-3.4-5.3-1.5-8.1
		c1.1-1.6,3.6-3.7,5.6-4.6l3.7-1.7l-5.1,0.5c-5.3,0.6-10.5-1.7-10.5-4.5c0-2.5,10.8-9.8,12.4-8.4c1.1,0.9,1,1.8-0.4,4
		c-1,1.6-1.6,3.1-1.2,3.5c0.4,0.4,1.2-0.4,2-1.8c1.4-2.6,4.7-3.1,8.2-1.2c1.8,0.9,2,1.7,1.1,3.4c-0.9,1.7-0.6,2.5,1.6,3.9
		c2.2,1.4,2.7,2.6,2.5,6.4c-0.3,4.6-0.2,4.6,2.8,3.3c5-2.1,5.1-2.6,2-10.1l-2.9-7.3l2.7-3c1.5-1.7,4.6-5.1,6.8-7.6
		c3.3-3.7,4.4-4.3,5.7-3.1c2.4,2,4.7,0.7,9.7-5.4c9.4-11.5,13.1-20.2,13.3-31.8c0.1-4-2.9-7.5-5.1-5.8c-1.8,1.4-6.1,1.4-6.1,0
		c0-0.6-1.2-1.5-2.7-2c-2.4-0.9-2.5-1.2-1-3.4c0.9-1.3,6-6,11.2-10.4c9.1-7.7,14.1-9.8,16.7-7.2c1.1,1.1,9,0.4,10.7-1
		c0.9-0.7,2.3-0.6,4,0.3c3.4,1.9,11.7,2.2,10.2,0.4c-1.6-2,9-10.5,13.5-10.8c3.7-0.3,6,1.3,3.9,2.7c-0.6,0.4-1.2,1.5-1.2,2.6
		c0,1.5,0.5,1.5,2.7-0.6c1.5-1.4,3.3-2.5,4-2.5c0.8,0,1.4-0.7,1.4-1.6c0-2.1,3-4.6,4.5-3.7c1.6,1-2.5,8.1-4.9,8.5
		c-1.1,0.2-4.6,3.2-7.9,6.7c-3.3,3.5-6.5,6.3-7.3,6.3c-0.7,0-2.2,1.5-3.3,3.4c-2.3,3.9-2.5,12.3-0.4,19.2l1.4,4.6l2.8-3.8
		c1.5-2.1,3.5-3.8,4.4-3.8c0.9,0,1.2-0.5,0.8-1.2c-1.2-1.9,2.8-7.2,4.9-6.4c1.3,0.5,1.6,0.2,1.1-1.2c-0.9-2.2,1.3-6.6,2.8-5.7
		c0.6,0.4,1.1,0.2,1.1-0.5s-0.5-1.5-1.2-1.9c-0.6-0.4-0.9-1.3-0.5-1.9c0.4-0.6,0.2-1.8-0.5-2.6c-1.6-2,2.8-9.3,5-8.5
		c0.9,0.3,2.2-0.1,3-1c0.8-0.9,2-1.6,2.7-1.5c0.7,0.1,2.8-0.2,4.6-0.7c2.4-0.7,3.8-0.4,5.1,0.9c1.6,1.6,2.2,1.5,5.5-1
		c6.1-4.7,16.1-8.6,18.4-7.2c1.3,0.7,2.5,0.7,3.1,0.1c1.4-1.4-2.1-8.4-4.1-8.4c-2.1,0-4.5-3.1-3.1-3.9c0.6-0.4,2.4-0.2,4.1,0.4
		c4,1.5,6.5,0.4,6.5-2.9c0-3.6,2.3-4.9,3.1-1.8c0.7,2.8,0.9,2.8,3.8,1.3c1.6-0.8,2.6-0.6,4.2,1.2c1.1,1.3,2.7,2.3,3.5,2.3
		c0.8,0,2.1,0.8,2.9,1.7c1.6,2,4,2.4,2.9,0.5c-0.9-1.4,2.6-5.7,4.6-5.7c0.7,0,1.9-0.6,2.7-1.4c1-1,0.2-1.9-3.4-3.5
		c-6-2.7-6.4-2.6-7.2,0.3c-0.7,2.9-3.1,1.9-3.1-1.3c0-5.2-15.1-12.4-28.1-13.4c-5.2-0.4-10.4-1.2-11.6-1.8c-1.9-1-2.1-0.7-1.4,2.4
		c1,4.5-0.7,5.4-5.4,2.7c-2.8-1.6-5.9-2.1-11.9-2c-9.6,0.2-13.3-0.9-13.3-3.9c0-3.2-2.5-3.8-12.9-3c-7.5,0.6-9.2,0.4-9.8-1
		c-0.4-1-1.4-1.5-2.2-1.2c-1.5,0.6-3.4-1.4-3.5-3.6c0-2.2-4.1-1.9-8,0.5c-4.3,2.6-6.4,2-3.6-1.1c1.7-1.9,1.4-2-4.9-2
		c-3.7,0-7.4-0.2-8.4-0.4c-1.1-0.3-1.7,0.7-1.7,3.1c-0.1,2.8-0.6,3.5-2.6,3.5c-1.4,0-2.8,0.3-3.3,0.8c-0.4,0.4-2.1,0.1-3.7-0.8
		c-2.3-1.2-3.5-1.2-5.1-0.2c-1.6,1-2.7,1-4.4,0c-1.8-1.2-2.3-1-2.8,0.9c-1.1,4.2-4,3.8-9.9-1.4c-5.8-5.1-6.4-6.8-2.4-6.8
		c1.9,0,2-0.3,0.9-2.1c-1-1.6-2.7-2.1-7.2-2c-3.4,0-6.4,0.7-7.1,1.6c-1.6,2-14,1.4-13.6-0.7c0.4-1.9-10.3-2-12.1-0.2
		c-0.9,0.9-1.7,0.5-2.8-1.4c-0.8-1.5-1.5-3-1.6-3.5c-0.1-1.7-1.4-1.9-5.2-1c-3.3,0.8-3.5,1-1.2,1.1c2.8,0.2,8.6,3.5,6.1,3.5
		c-0.7,0-1.6-0.5-2-1.2c-0.4-0.6-2.1-1.2-3.8-1.2c-2.9,0-2.9,0.1-0.8,1.7c2.2,1.6,2.2,1.7-0.1,2.4c-1.3,0.4-3.1,1.2-4,1.6
		c-2.5,1.2-8.7,0.9-8.7-0.5c0-0.6,1.7-2,3.8-3.1c2.1-1.1,4.8-2.7,5.9-3.8c1.1-1,3-1.9,4.3-1.9c3.4-0.1,8-2.9,6.4-3.9
		c-1-0.6-1-1.3,0.1-2.7c1.3-1.5,1.2-1.7-0.3-1.2c-1,0.3-2.6-0.1-3.6-1c-1.5-1.3-3-1.4-7.2-0.4c-3.4,0.8-6.1,0.8-7.4,0.1
		c-1.1-0.6-3.1-1.4-4.3-1.8c-2.2-0.7-2.2-0.8-0.3-2.2c1.9-1.4,1.8-1.6-1.2-2.2C794.5,51,794,50.9,793.5,51z M243.3,52
		c-0.2,0-0.4,0.1-0.5,0.2c-0.6,0.4-0.8,1.2-0.4,1.8c0.4,0.6,1.2,0.8,1.8,0.4c0.6-0.4,0.8-1.2,0.4-1.8
		C244.3,52.1,243.8,51.9,243.3,52z M772.1,52c-0.2,0-0.4,0.1-0.5,0.2c-0.6,0.4-0.8,1.2-0.4,1.8c0.4,0.6,1.2,0.8,1.8,0.4
		c0.6-0.4,0.8-1.2,0.4-1.8C773,52.1,772.6,51.9,772.1,52z M169,52.7c-0.3,0-0.9,0.3-1.6,1c-0.8,0.8-2.6,1.4-4.2,1.4
		c-1.5,0-4.7,1.7-7,3.7c-3.4,3-3.7,3.5-1.6,3c1.4-0.4,2.9-0.1,3.3,0.5c0.4,0.6,1.8-0.5,3-2.5c1.7-2.8,2.7-3.3,3.8-2.4
		c1.1,0.9,2,0.6,3.3-1.4C169.6,54,169.8,52.6,169,52.7z M269.7,52.8c-0.4,0-0.7,0.1-0.9,0.3c-0.4,0.4,0.3,0.6,1.5,0.6
		c1.3-0.1,1.6-0.3,0.7-0.7C270.5,52.9,270.1,52.8,269.7,52.8z M751.2,53.2c-0.2,0-0.4,0.1-0.5,0.2c-0.6,0.4-0.8,1.2-0.4,1.8
		c0.4,0.6,1.2,0.8,1.8,0.4c0.6-0.4,0.8-1.2,0.4-1.8C752.2,53.3,751.7,53.1,751.2,53.2z M803.3,53.2c-0.2,0-0.4,0.1-0.5,0.2
		c-0.6,0.4-0.8,1.2-0.4,1.8c0.4,0.6,1.2,0.8,1.8,0.4c0.6-0.4,0.8-1.2,0.4-1.8C804.3,53.3,803.8,53.1,803.3,53.2z M176.2,54.3
		c-0.2,0-0.4,0.1-0.5,0.2c-0.6,0.4-0.8,1.2-0.4,1.8c0.4,0.6,1.2,0.8,1.8,0.4c0.6-0.4,0.8-1.2,0.4-1.8
		C177.2,54.4,176.7,54.2,176.2,54.3z M295.4,54.3c-0.2,0-0.4,0.1-0.5,0.2c-0.6,0.4-0.8,1.2-0.4,1.8c0.4,0.6,1.2,0.8,1.8,0.4
		c0.6-0.4,0.8-1.2,0.4-1.8C296.4,54.4,295.9,54.2,295.4,54.3z M571.9,55.5c-0.2,0-0.4,0.1-0.5,0.2c-0.6,0.4-0.8,1.2-0.4,1.8
		c0.4,0.6,1.2,0.8,1.8,0.4c0.6-0.4,0.8-1.2,0.4-1.8C572.9,55.6,572.4,55.4,571.9,55.5z M921.3,55.5c-0.2,0-0.4,0.1-0.5,0.2
		c-0.6,0.4-0.8,1.2-0.4,1.8c0.4,0.6,1.2,0.8,1.8,0.4c0.6-0.4,0.8-1.2,0.4-1.8C922.3,55.6,921.8,55.4,921.3,55.5z M226.5,56.3
		c-0.8,0-0.9,0.3-0.7,1.1c0.3,0.9,2.7,1.9,5.6,2.2c4.3,0.5,5.2,1,5.7,3.5c0.6,2.8,1.7,3.3,7.7,3.8c1.4,0.1,2.9,0.7,3.5,1.2
		c0.5,0.5,4.6,0.7,9.1,0.3c4.5-0.4,9.8-0.7,11.9-0.7c2.4,0,3.5-0.5,3.1-1.2c-0.4-0.7-0.1-2.1,0.8-3.2c1.3-1.7,1.3-1.8-0.2-0.7
		c-1,0.7-3,1.3-4.6,1.3c-1.6,0-7.3,0.2-12.7,0.5c-10.1,0.6-15-0.9-15-4.3c0-0.8-1.9-1.8-4.3-2.1c-2.4-0.3-5.8-1-7.7-1.4
		C227.6,56.4,226.9,56.3,226.5,56.3z M774.4,56.6c-0.2,0-0.4,0.1-0.5,0.2c-0.6,0.4-0.8,1.2-0.4,1.8c0.4,0.6,1.2,0.8,1.8,0.4
		c0.6-0.4,0.8-1.2,0.4-1.8C775.4,56.8,774.9,56.6,774.4,56.6z M693.1,56.9c-1.4,0-3.9,0.5-6.4,1.7c-3.3,1.5-6.9,2.2-9.1,1.9
		c-2.1-0.3-5.7,0.3-8.6,1.6c-2.8,1.2-6.7,2.2-8.6,2.2c-2.8,0-3.3,0.3-2.2,1.4c1.1,1.1,0.6,2.1-2.2,4.7c-2.4,2.2-3,3.4-2,3.7
		c4,1.3,4.7,1.8,1.9,1.4c-3.7-0.5-4.4-0.1-7.2,4.3c-1.8,2.8-1.8,3.2-0.3,2.7c1.9-0.7,4.9,1.9,3.9,3.5c-0.3,0.5,1.8,1,4.8,1.1
		c3,0.1,4.6-0.1,3.7-0.5c-2.3-0.8-4.6-3.8-4.6-6c0-2.4,9-12.4,13.2-14.5c1.8-0.9,4.2-1.7,5.4-1.7c2.3,0,15.3-4,18.1-5.6
		C694.6,57.5,694.4,56.9,693.1,56.9z M191,57.4c-0.6,0.1-1,1.1-0.9,3.1c0.2,2.5-0.3,3.2-2.5,3.5c-1.5,0.2-3.8-0.3-5.2-1.3
		c-1.4-0.9-4.7-2.1-7.2-2.5c-4.4-0.7-4.7-0.6-4.7,2.2c0,2.9,2.2,4.1,3.5,1.9c0.8-1.3,6.3,0.1,6.5,1.6c0,0.6-1.1,1.5-2.6,1.9
		c-2.3,0.6-2.2,0.8,1,0.9c2,0.1,5.2-0.5,6.9-1.2c1.8-0.7,5.3-1.6,7.8-2c2.5-0.4,4.7-1.3,5-2.1c0.3-0.9-0.4-1.2-2-0.9
		c-1.8,0.3-2.7-0.3-3.5-2.4C192.5,58.2,191.6,57.4,191,57.4z M213.5,57.6c-0.7,0-1.4,0.2-2.1,0.5c-1.9,0.9-1.9,1.2,0.9,4.1
		c3.8,4.1,7.5,4.2,7.5,0.3C219.8,59.8,216.6,57.5,213.5,57.6z M205.2,57.8c-0.2,0-0.4,0.1-0.5,0.2c-0.6,0.4-0.8,1.2-0.4,1.8
		c0.4,0.6,1.2,0.8,1.8,0.4c0.6-0.4,0.8-1.2,0.4-1.8C206.1,57.9,205.6,57.7,205.2,57.8z M930.6,57.8c-0.2,0-0.4,0.1-0.5,0.2
		c-0.6,0.4-0.8,1.2-0.4,1.8c0.4,0.6,1.2,0.8,1.8,0.4c0.6-0.4,0.8-1.2,0.4-1.8C931.5,57.9,931.1,57.7,930.6,57.8z M212.9,59.1
		c0.6-0.2,1.5,0.3,2.2,1.1c0.8,1,0.9,1.9,0.3,2.3c-0.6,0.4-1.7,0-2.4-0.9c-0.8-1-0.9-1.9-0.3-2.3C212.7,59.1,212.8,59.1,212.9,59.1z
		 M891.7,60c-0.1,0-0.2,0.1-0.4,0.1c-1.7,0.6-2.3,4.3-0.9,5.7c1.2,1.2,4.8,0.9,5.6-0.4c0.4-0.7,1.7-0.7,3.6,0c4,1.5,4.5,1.4,2.8-0.6
		c-0.8-0.9-1.1-2.2-0.7-2.9c0.4-0.7,0.2-1.2-0.4-1.2c-0.6,0-1.5,0.6-1.9,1.2c-0.5,0.8-1.7,0.6-3.6-0.7
		C894.5,60.4,892.7,59.9,891.7,60z M884.3,60.2c-1.1,0-1.8,1.6-0.9,3c0.6,0.9,1.1,0.9,2,0c0.9-0.9,0.9-1.6,0-2.5
		C885,60.3,884.6,60.2,884.3,60.2z M906.2,60.8c-2.5,0-2.7,0.3-1.5,1.7c1.7,2,1.5,2,3.9,1C911.3,62.6,909.7,60.8,906.2,60.8z
		 M163.5,61.3c-0.2,0-0.4,0.1-0.5,0.2c-0.6,0.4-0.8,1.2-0.4,1.8c0.4,0.6,1.2,0.8,1.8,0.4c0.6-0.4,0.8-1.2,0.4-1.8
		C164.5,61.4,164,61.2,163.5,61.3z M223.7,61.3c-0.2,0-0.4,0.1-0.5,0.2c-0.6,0.4-0.8,1.2-0.4,1.8c0.4,0.6,1.2,0.8,1.8,0.4
		c0.6-0.4,0.8-1.2,0.4-1.8C224.6,61.4,224.2,61.2,223.7,61.3z M207.1,61.4c-0.1,0-0.2,0.1-0.3,0.1c-0.6,0.4-0.5,1.4,0.3,2.3
		c0.7,0.9,1.8,1.3,2.4,0.9c0.6-0.4,0.5-1.3-0.3-2.3C208.7,61.7,207.8,61.2,207.1,61.4z M448.1,62.4c-0.2,0-0.4,0.1-0.5,0.2
		c-0.6,0.4-0.8,1.2-0.4,1.8c0.4,0.6,1.2,0.8,1.8,0.4c0.6-0.4,0.8-1.2,0.4-1.8C449.1,62.5,448.6,62.3,448.1,62.4z M915.4,63.2
		c-0.6,0-0.3,0.3,0.9,1c1,0.6,3,1.1,4.6,1l2.9-0.1l-2.9-0.9c-1.6-0.5-3.7-1-4.6-1C915.9,63.2,915.6,63.2,915.4,63.2z M202.8,63.6
		c-0.2,0-0.4,0.1-0.5,0.2c-0.6,0.4-0.8,1.2-0.4,1.8c0.4,0.6,1.2,0.8,1.8,0.4c0.6-0.4,0.8-1.2,0.4-1.8
		C203.8,63.7,203.3,63.5,202.8,63.6z M731.6,63.6c-0.2,0-0.4,0.1-0.5,0.2c-0.6,0.4-0.8,1.2-0.4,1.8c0.4,0.6,1.2,0.8,1.8,0.4
		c0.6-0.4,0.8-1.2,0.4-1.8C732.6,63.7,732.1,63.5,731.6,63.6z M229.5,63.6c-0.2,0-0.4,0-0.7,0c-0.6,0.1-1.1,0.2-1.4,0.6
		c-0.9,0.9-0.8,1.6,0.5,2.4c2,1.3,3.7,0.9,4.3-0.8C232.6,64.6,231,63.7,229.5,63.6z M451.6,64.7c-0.2,0-0.4,0.1-0.5,0.2
		c-0.6,0.4-0.8,1.2-0.4,1.8c0.4,0.6,1.2,0.8,1.8,0.4c0.6-0.4,0.8-1.2,0.4-1.8C452.6,64.9,452.1,64.7,451.6,64.7z M554.6,65.9
		c-0.2,0-0.4,0.1-0.5,0.2c-0.6,0.4-0.8,1.2-0.4,1.8c0.4,0.6,1.2,0.8,1.8,0.4c0.6-0.4,0.8-1.2,0.4-1.8C555.5,66,555,65.8,554.6,65.9z
		 M883.1,68.2c-0.2,0-0.4,0.1-0.5,0.2c-0.6,0.4-0.8,1.2-0.4,1.8c0.4,0.6,1.2,0.8,1.8,0.4c0.6-0.4,0.8-1.2,0.4-1.8
		C884.1,68.3,883.6,68.1,883.1,68.2z M899.2,69c-0.5,0-0.9,1-1,2.8c-0.1,2.6,0.3,2.9,3.8,2.9c2.4,0,3.7-0.5,3.3-1.2
		c-0.4-0.6-1.5-1.2-2.4-1.2c-0.9,0-2-0.8-2.4-1.7C900.1,69.5,899.6,68.9,899.2,69z M156.4,69.1c-2.7,0-6.1,1.5-5.9,3.1
		c0.4,4.4-0.2,6.1-2.7,7.1c-2,0.8-2.1,1.1-0.6,1.1c1.1,0,2.6,1.1,3.4,2.2c1.5,2.4,4.7,2.1,6.9-0.5c0.7-0.9,2.1-1.6,2.9-1.6
		c0.9,0,1.6-0.5,1.6-1.1s1.6-1.9,3.4-2.9c4.3-2.2,6.2-2.3,2.4,0c-1.6,0.9-2.4,1.7-1.7,1.7c2,0,4.5-2,4.7-3.9
		c0.3-2.4-3.4-4.4-7.4-3.9c-1.7,0.2-3.8-0.1-4.6-0.6C158.1,69.2,157.3,69.1,156.4,69.1z M699.2,70.5c-0.2,0-0.4,0.1-0.5,0.2
		c-0.6,0.4-0.8,1.2-0.4,1.8c0.4,0.6,1.2,0.8,1.8,0.4c0.6-0.4,0.8-1.2,0.4-1.8C700.2,70.6,699.7,70.4,699.2,70.5z M238,70.6
		c-2.7,0.1-6.1,0.8-7,1.7c-0.6,0.6-0.7,3-0.3,5.3c0.7,3.5,1.1,4,2.5,2.9c0.9-0.8,1.4-1.9,1-2.4c-0.4-0.6,0.3-1.4,1.4-1.8
		c3-1.1,6.2-4,5.5-5.1C240.9,70.7,239.6,70.5,238,70.6z M222.6,70.9c-0.5,0-1.4,0.4-2.6,1c-1.7,0.9-3.8,1.6-4.7,1.6
		c-1.2,0-1.3,0.4-0.2,1.6c1.9,2.3-0.4,3.5-3.7,1.8c-3.5-1.8-1.6,0.2,4.3,4.4c2.5,1.9,4.8,2.9,5,2.4c0.2-0.5,1.3-1,2.5-1
		c3,0,3.4-2.4,0.8-5c-1.5-1.5-1.9-2.6-1-3.4c0.7-0.7,0.9-1.9,0.6-2.7C223.4,71.2,223.2,70.9,222.6,70.9z M714.2,71.7
		c-0.2,0-0.4,0.1-0.5,0.2c-0.6,0.4-0.8,1.2-0.4,1.8c0.4,0.6,1.2,0.8,1.8,0.4c0.6-0.4,0.8-1.2,0.4-1.8
		C715.2,71.8,714.7,71.6,714.2,71.7z M200.1,72.4c-0.6,0-1,0.6-0.9,1.4c0.2,0.8-0.9,1.6-2.3,1.8c-1.9,0.3-2.6,1.2-2.6,3.1
		c0,3.3-2,4.9-3,2.4c-0.4-1-2.2-2.5-4-3.4c-2.9-1.4-3.4-1.4-3.9,0.1c-0.6,1.5-1,1.5-2.5,0.2c-1.5-1.3-2-1.2-3,0.5
		c-1.4,2.6-3.6,1.3-2.7-1.6c0.4-1.2,0.3-2.2-0.1-2.2c-0.6,0-6.7,3.4-9.5,5.2c-0.2,0.1,0.2,1.7,0.9,3.4c1.1,3,1.5,3.1,6.7,2.6
		c5.6-0.6,10.1,0.8,8.9,2.7c-0.4,0.6-4.2,1.1-8.4,1.2c-7.3,0.1-7.5,0.2-3.5,1.3c2.3,0.6,5.1,2.1,6.1,3.2c2.3,2.5,8.9,2.1,16.2-1
		c4-1.7,5.3-1.8,9.7-0.5c2.8,0.8,5.9,2.1,6.9,2.9c1.5,1.2,1.4,1-0.2-0.9c-2.1-2.5-1.5-3.9,2.6-5.4c1-0.4,0.1-0.7-1.8-0.7
		s-4.4-0.8-5.5-1.6c-2.6-1.9-5.5-10.3-4.1-11.8C201.6,73.9,201.6,72.4,200.1,72.4z M273.4,72.5c-1.6,0-2.7,0.4-2.7,1.4
		c0,2.4,1.4,3.3,4,2.6c1.3-0.3,3.4-0.7,4.7-0.7c2.1-0.1,2-0.2-0.6-1.7C277,73,274.9,72.5,273.4,72.5z M252.7,73.5
		c-3.5,0-8.6,4.3-8.6,7.1c0,3.3,3.6,9.1,5.7,9.1c1,0,7,0.2,13.3,0.4c8,0.2,13,1,16.2,2.4c2.5,1.1,5.6,2.2,6.7,2.3
		c3.5,0.3,4.9,2.5,3,4.9c-1.5,1.9-1.4,1.9,0.3,0.5c1.7-1.3,2.1-1.2,3.2,0.8c0.7,1.3,1.2,3,1.2,3.9c0,1.1,0.9,1.5,2.7,1.2
		c3.4-0.6,4.8,1.2,2.4,3.2c-1.4,1.2-2.1,1.1-3.8-0.4c-1.9-1.7-2.3-1.7-4.7,0c-2.1,1.4-2.3,2.1-1.2,3.4c0.7,0.9,0.9,1.7,0.3,1.7
		c-0.6,0-3.3,0.2-6.2,0.3c-3.9,0.2-5.3,0.7-5.6,2.2c-0.3,1.5,0.4,2,2.3,2c1.5,0,3.4-0.5,4.2-1c1.7-1.1,10.6,2.6,10.6,4.4
		c0,0.6,1.4,1.4,3.1,1.8c2.4,0.6,2.8,1,1.5,1.8c-1.1,0.7-0.6,1,1.9,0.9c2-0.1,5.6,1,8.1,2.2c5.8,3,5.8,3,3.3,0.3
		c-2.1-2.3-2.1-2.4,0.2-3c3.7-1,2.5-4.9-3.1-10.5c-4.9-4.9-5.1-5.1-2.9-6.8c3-2.3,3.3-2.2,7.6,1.8c2.9,2.7,4.1,3.2,5.3,2.2
		c0.9-0.7,1.3-1.8,0.9-2.4c-0.4-0.6,0.4-1.4,1.8-1.7c2.3-0.6,2.3-0.8,0.6-2.7c-1-1.1-2.5-1.9-3.3-1.6c-0.8,0.3-2.4-0.5-3.5-1.8
		c-1.2-1.3-3.6-2.4-5.4-2.4c-3.9,0-6.7-3.9-4-5.5c0.9-0.5,1.4-1.5,0.9-2.1c-1-1.5-7.4-4.5-8.8-4.2c-0.6,0.1-1.9-0.1-2.9-0.5
		c-1.6-0.6-1.6-0.9,0.4-2.4c1.9-1.4,1.9-1.7,0.4-1.7c-1,0-2.2,0.5-2.6,1.2c-0.4,0.7-1.5,0.8-2.7,0.1c-1.1-0.6-2.5-1.1-3.1-1.2
		c-0.6-0.1-1.2-0.7-1.2-1.4c0-2.3-3.9-4.1-7.4-3.6c-1.9,0.3-3.2,1-2.9,1.6c1,1.7-2.8,2.6-4.7,1c-0.9-0.8-2.2-1.1-2.8-0.7
		c-1.6,1-3-1.7-2.6-4.8c0.3-2.1-0.2-2.6-2.4-2.6c-1.5,0-3.5,0.7-4.4,1.4c-2,1.6-2.6,7.7-1,9.7c0.7,0.9,0.6,1.6-0.3,2.2
		c-2.1,1.3-4.5-2.9-4.3-7.5l0.1-4.1l0.7,4.6c0.6,4,0.8,4.3,1.5,1.9C258.1,77.9,255.8,73.5,252.7,73.5z M428.8,75.1
		c-0.4,0-0.7,0-0.7,0.3c0,0.3,1.2,1,2.6,1.6c3.4,1.4,3.4,1.4,2.7,0.2C432.9,76.3,430.1,75.3,428.8,75.1z M422.7,82.1
		c0.5-0.1,1,0.1,1.3,0.6c0.4,0.6,0.2,1.4-0.4,1.8c-0.6,0.4-1.4,0.2-1.8-0.4c-0.4-0.6-0.2-1.4,0.4-1.8
		C422.3,82.2,422.5,82.1,422.7,82.1z M1020.8,83.2c-0.2,0-0.4,0.1-0.5,0.2c-0.6,0.4-0.8,1.2-0.4,1.8c0.4,0.6,1.2,0.8,1.8,0.4
		c0.6-0.4,0.8-1.2,0.4-1.8C1021.8,83.4,1021.3,83.2,1020.8,83.2z M231.4,83.6c-0.4,0-0.8,0.1-1.2,0.3c-4.2,2.3-4.3,8.1-0.1,8.1
		c3.1,0,3.5,1,1.7,4.7c-2.2,4.4-3.3,5-6.1,3.3c-1.7-1.1-2.9-1.1-5-0.1c-4.8,2.3-12.3,2.8-16.6,1c-2.2-0.9-4-2.2-4-2.9
		c0-1.3-5.6-1.7-8.7-0.5c-1.5,0.6-1.6,1-0.4,1.7c0.8,0.5,2.3,0.9,3.3,0.9c1.1,0,0.9-0.4-0.6-1c-1.9-0.8-2-1-0.4-1.1
		c3-0.1,3.8,2.3,1,3c-1.8,0.5-2.4,1.4-2.1,3.6c0.4,3.9-2.3,4.7-3.7,1c-1.3-3.4-5.2-4.7-11.6-3.9c-5.2,0.7-8.5-1.6-5.1-3.6
		c1.8-1,1.8-1.2-0.6-2.5c-1.9-1-3-1.1-4.2-0.1c-1.2,1-2.5,0.8-5.4-0.7c-5.1-2.7-12.7-4-14.5-2.6c-0.9,0.8-2.5,0.5-4.8-0.7
		c-3.3-1.7-3.8-1.7-7.3,0.5c-9.3,5.6-12.8,7.1-13.8,6.1c-0.7-0.7,0.8-2.2,3.9-4.1c2.7-1.7,4.4-3,3.6-3.1c-0.8,0-3.1,1-5.1,2.2
		c-3,1.8-4.1,2-5.5,0.9c-1.5-1.2-1.6-1.1-0.5,0.3c1.6,2.1,2.9,8.7,2,9.7c-1.3,1.3-3.8-1.8-3.8-4.6c0-1.5-0.4-2.8-0.9-2.8
		c-1.9-0.2-4.6-1-9.4-2.7c-2.8-1-6.3-1.8-7.7-1.8c-1.5,0-3-0.5-3.3-1c-0.4-0.6-3.8-1.1-7.6-1.1c-3.8-0.1-8-0.6-9.3-1.3
		c-1.6-0.8-3-0.9-4.5-0.1c-1.6,0.9-2.5,0.7-3.6-0.5c-0.8-0.9-2.9-1.7-4.7-1.7c-1.8,0-3.6-0.6-4-1.2c-0.5-0.8-1.2-0.8-2.3,0.1
		c-1,0.9-1.8,0.9-2.3,0.1c-0.5-0.8-1.7-0.6-3.6,0.7c-1.6,1-2.8,1.4-2.8,0.9c0-0.6-0.5-0.3-1.1,0.7c-0.6,0.9-2.5,1.9-4.2,2.1
		c-1.7,0.2-4.2,1.7-5.4,3.3c-1.3,1.6-2.6,2.6-2.9,2.3c-0.3-0.3-2.1,0.2-3.9,1.1l-3.3,1.7l3.8,3.2c3.6,3.1,7.1,5.1,9.4,5.3
		c2.1,0.2,1.9,2.9-0.2,4c-1.6,0.8-3,0.7-5.3-0.5c-2.1-1.1-3.9-1.3-5.1-0.6c-1.1,0.6-3,1.4-4.3,1.8c-2.2,0.8-2.2,0.8,0.3,1.8
		c1.5,0.6,2.3,1.6,2,2.6c-1,2.5,9.9,3.5,11.7,1.1c1.7-2.3,3.6-1.1,3.4,2.2c-0.2,2.5-6,7-7.8,6c-0.5-0.3-1.9,0.6-3.2,1.9
		c-1.7,1.7-2.2,3.2-1.7,5c1.2,3.9,4.2,6.8,6.5,6.2c1.1-0.3,2.5,0.2,3.1,1.2c1.4,2.4,8.7,4.9,11,3.6c2.4-1.4,3.4,0.5,2,4
		c-1.2,3.3-5.6,6.7-12.1,9.4c-2.5,1-4.3,2.1-3.9,2.5c0.5,0.5,6.6-1.9,10.2-4.2c1-0.6,3.6-2.1,5.9-3.3c4.7-2.6,11.7-9.3,10.9-10.6
		c-0.3-0.5,0.2-1.5,1.2-2.3c0.9-0.8,1.7-2.1,1.7-2.9c0-2.3,3.3-4.4,5.5-3.5c1.9,0.8,1.9,0.9,0,2.3c-1.8,1.3-2.9,5.3-1.5,5.3
		c2.6,0,6.6-2.6,6-4c-1.1-2.9,4.1-5,5.9-2.4c1.5,2,6.5,3.9,12.5,4.6c3.3,0.4,8.4,2,11.5,3.5c3.8,1.9,6,2.5,6.9,1.7
		c1-0.8,1.9-0.3,3.3,1.7c1,1.6,1.9,3.2,1.9,3.6c0,1.2,5.1,5.1,6.7,5.1c2.5,0.1,5.1,7.7,3.5,10c-0.6,0.8,0.2,1.8,2.1,2.6
		c3,1.4,3,1.4,0.9,3.9c-1.2,1.4-1.4,2-0.5,1.2c2.2-1.9,6.6,0.3,4.8,2.4c-1.4,1.7-0.5,3,2.3,3c2.9,0,12.7,9.6,12.7,12.5
		c0,2.7-1.8,4.4-2.9,2.6c-1.6-2.6-2.3-0.8-2.4,6c-0.1,4-0.3,10.4-0.5,14.2c-0.4,7.2,2.4,15.8,5.1,15.3c0.7-0.1,1.4,0.9,1.4,2.2
		c0.3,3.8,5.1,10.8,8.2,12c1.6,0.6,2.5,1.6,2.1,2.3c-0.5,0.7,0.1,1.1,1.4,0.9c1.7-0.3,2.6,1,4.2,6c1.2,3.5,3.1,7.4,4.3,8.7
		c1.6,1.7,1.9,2.7,1,3.7c-0.9,0.9-0.3,2.1,2.3,4.4c2,1.8,3.6,4.3,3.7,5.6c0.1,2.6,6.4,8.4,7.8,7.1c0.4-0.4-0.1-1.3-1.2-1.9
		c-1.1-0.6-2-1.7-2-2.4c0-0.7-1.6-3.5-3.5-6.4s-3.5-5.5-3.5-6s-1.1-3-2.6-5.7c-2-3.8-2.3-5.2-1.2-6.3c1.6-1.6,5,0.5,5,3
		c0,0.8,2.3,4.7,5.2,8.6c2.9,3.9,5.2,7.5,5.2,8s1.7,3,3.9,5.5c5.1,6,6.6,8.9,5.8,11.7c-0.8,3,2.9,6,15.5,12.2c8,4,10.1,4.6,11.8,3.5
		c1.8-1.1,2.9-0.8,6.3,1.5c5.4,3.7,12.9,7.4,14.7,7.4c2.9,0,7.9,6.1,7.9,9.6c0,2.9,0.3,3.2,1.7,2c1.4-1.2,1.9-0.9,3,1.3
		c0.8,1.7,2.4,2.8,4.3,3c1.6,0.1,3.6,0.7,4.3,1.3c0.9,0.7,1.8,0.4,2.7-1.1c3.1-5,8.3,2.5,8.2,11.6c-0.1,4.1-0.9,6.2-3.9,9.9
		c-2.1,2.6-4.5,7.2-5.2,10.3c-1.3,5.1-1.2,5.7,0.7,6.8c2,1.1,1.9,1.3-0.4,3l-2.4,1.9l3.8,8.7c2.1,4.8,5.1,12.6,6.6,17.3
		c2.3,7.3,3.4,9.1,7.2,11.6c2.4,1.6,6.3,4.6,8.6,6.7l4.2,3.8l-1.4,19.9c-0.8,11-1.6,22.8-1.7,26.3c-0.2,4.2-1.4,8.5-3.5,12.6
		c-2.3,4.5-3,7.2-2.5,9.7c0.4,1.9,0.1,5.2-0.7,7.3c-1.1,3-1.1,4.4,0,6.5c1.7,3.2,1.2,15.4-0.7,17.3c-1,1-1.5,0.8-2.1-0.7
		c-0.6-1.6-1-1.7-1.8-0.5c-1.2,2-1.3,3.6-0.1,2.9c1.3-0.8,7.5,5.9,6.6,7.3c-0.4,0.6-1.4,0.9-2.2,0.5c-1.2-0.5-1.5,0.6-1.2,4.9
		c0.2,3-0.2,6.3-0.9,7.1c-1,1.2-0.9,1.5,0.4,1.2c2.5-0.5,8.3,3.7,7.6,5.5c-1.1,2.8,1.2,1.6,2.6-1.3c0.7-1.6,1.8-2.9,2.5-2.9
		c0.6,0,1.2-1.2,1.2-2.7s1-3.7,2.3-4.8c1.3-1.2,2.1-2.4,1.8-2.7c-0.3-0.3,1.1-2.4,3-4.6c3.5-4,3.5-4.1,1.2-5
		c-4.7-1.7-4.2-10.3,0.5-10.3c1,0,1.6-1.3,1.6-3.6c0-2.6,0.6-3.7,2.4-4.2c2-0.5,2.1-0.8,0.7-1.9c-0.9-0.7-1.9-2.3-2.1-3.6
		c-0.3-1.9,0.3-2.3,3-2.3c3.2,0,4.5-1.2,5.8-5.5c0.4-1.4,2.4-2.2,6.5-2.7c9.5-1.3,11.7-5.4,6.4-11.8c-3.5-4.1-2.7-5.3,1.7-2.8
		c3,1.7,3.6,1.7,7.3,0c4-1.9,6.9-5.9,13-18.1c2.5-4.9,2.9-6.7,1.9-8.8c-0.7-1.4-0.8-3.2-0.4-3.9c0.9-1.4,9.1-7.2,10.2-7.2
		c0.4,0,1.3-0.8,2-1.7c0.7-0.9,3.3-1.9,5.9-2.1c4.4-0.4,4.7-0.7,7.7-7.8c2.6-6,3.2-9.1,3.3-16.9c0-6.7,0.5-9.8,1.6-10.4
		c0.9-0.5,3.5-3.7,5.8-7.2c5.6-8.2,5.9-14.3,0.8-16.9c-1.9-1-4.1-2.7-4.9-3.9c-1.1-1.6-3.4-2.3-8.6-2.7c-6.1-0.4-7.6-1.1-10.8-4.2
		c-4.5-4.5-6.5-4.6-9.5-0.7c-1.6,2.1-3.2,2.9-5.4,2.6c-3.7-0.4-3.6-2.4,0.1-3.3c1.5-0.3,2.8-1.5,3-2.6c0.6-2.9-1.5-2.4-5.9,1.4
		c-2.2,1.9-4.2,3.1-4.6,2.7c-1.2-1.2,6.2-10.9,7.7-10.1c0.8,0.4,0.3-0.4-0.9-1.8c-1.3-1.4-2.2-3-2.1-3.4c1.4-4.3-6.2-10.6-12.6-10.6
		c-3.2,0-5-0.9-8.3-4.3c-2.3-2.4-5.5-5.6-7.1-7.1c-1.6-1.5-2.5-3.3-2.1-3.9c0.5-0.8-1.3-0.9-5.2-0.4c-3.7,0.5-6.1,0.3-6.6-0.4
		c-0.4-0.7-1.3-1.1-2.1-1c-2.3,0.4-7.7-2.3-7.8-3.9c0-0.8-0.5-0.3-1.1,1.1c-0.6,1.4-1.5,2.6-2.1,2.6c-0.6,0-0.8,1-0.5,2.2
		c0.8,3.1-1.6,4.1-3.1,1.3c-1-1.9-0.9-3,0.6-5.2c2.4-3.6,0.6-3.6-2.8,0c-1.5,1.5-3.4,2.5-4.2,2.2c-1.5-0.6-2,0.3-4.6,7.6
		c-0.4,1.2-1.2,1-3.5-1.1c-2.6-2.5-3.3-2.6-7.5-1.5c-4.4,1.2-4.8,1.1-7.6-2.3c-2.8-3.3-2.9-4.2-2.3-10.7c0.7-7.1,0.7-7.2-2.5-8.1
		c-1.8-0.5-5-0.9-7.3-1c-3.8-0.1-4-0.3-3.7-3.6c0.2-1.9,0.8-4,1.3-4.6c0.5-0.6,1.3-3.4,1.7-6.1c0.7-4.4,0.5-4.9-1.5-4.9
		c-5.1,0-8,2.1-8.4,6c-0.3,3.5-0.7,3.9-5.5,4.7c-6.4,1.1-9.5-0.7-12.8-7.4c-2.3-4.7-3.2-14.7-1.5-16.4c0.5-0.5,0.7-2.6,0.5-4.7
		c-0.3-3.4,0.2-4.2,4-6.5c5.2-3.2,6.5-3.5,10.6-2.2c1.7,0.5,4.9,1.3,7,1.6c3.5,0.6,3.7,0.5,2.4-1.2c-1.3-1.6-1.2-2.1,0.7-3.5
		c1.5-1.1,3.3-1.4,5.2-0.8c1.6,0.5,4.3,0.8,6,0.7c3.5-0.2,6.6,3.5,7.2,8.7c0.4,4,3.1,8.4,5.1,8.4c2,0,1.8-1.5-0.9-11
		c-1.3-4.5-2.3-8.8-2.3-9.7s2.8-4.3,6.2-7.8c3.4-3.4,6-6.5,5.6-6.8c-0.3-0.3,0.3-0.9,1.3-1.3c1-0.4,1.6-1.1,1.3-1.7
		c-0.3-0.5,0-1.3,0.6-1.7c0.8-0.5,0.8-1.5-0.1-3c-1.4-2.7-1-8.5,0.6-8.5c0.6,0,1.4,1.3,1.9,2.9c0.7,2.4,0.8,2.5,0.9,0.5
		c0.2-3.6,5.7-11,8.2-11c4.3,0,5.8-1.2,4.4-3.5c-1-1.6-0.9-2.7,0.7-5.1c1.1-1.7,2.8-3,3.7-3s4.2-1.2,7.2-2.7
		c3.7-1.9,6.2-2.4,7.8-1.8c1.3,0.5,1.6,1,0.7,1c-2.3,0.1-5.9,3.6-5.9,5.7c0,1.4,0.5,1.3,2.6-0.6c1.4-1.3,4.3-3,6.3-3.8
		c2-0.8,4-2.2,4.3-3.1c0.4-0.9,1.2-1.4,1.8-1c0.6,0.4,1.2,0.2,1.2-0.3c0-2.4-1.5-2.2-4.2,0.5c-2.3,2.3-3.2,2.6-4.6,1.5
		c-0.9-0.8-1.3-2-0.9-2.7c0.6-1,0.3-1-0.9,0c-1.3,1-2.3,0.6-4.8-1.9c-3.3-3.4-3.2-4.6,0.4-4.6c1.2,0,2.1-0.8,2.1-1.9
		c0-2.9-7.8-1.2-11.8,2.6c-2.3,2.2-3.7,2.8-4.5,2c-1.7-1.7,8.2-10.3,12.9-11.2c2-0.4,6.2-0.7,9.3-0.7c3.1,0,6.9-0.6,8.2-1.4
		c1.4-0.7,4.1-1.7,6-2.1c3-0.6,3.5-1.2,3.5-4.5c0-5.1-1.5-6-6.7-4.2c-2.9,1-4.6,1.1-5.1,0.3c-0.9-1.5,2.8-4.3,5.9-4.4
		c1.7-0.1,1.9-0.3,0.7-0.7c-1-0.4-3.1-1.6-4.7-2.8c-1.7-1.2-3.3-1.8-3.6-1.5c-0.3,0.3-1.4-0.7-2.5-2.4c-1.1-1.6-1.6-2.9-1.1-2.9
		s-0.4-1.2-1.8-2.7c-1.4-1.5-2.8-4.2-3.1-6c-0.9-5.2-1.6-5.5-5.1-1.7c-2,2.1-4,3.3-5,2.9c-1-0.4-2.1-0.1-2.5,0.7
		c-0.6,0.9-1.6,0.5-3.3-1.3c-2.7-2.9-3.4-5.3-1.8-6.3c1.6-1,1.3-4-0.5-4c-0.9,0-3.1-1.4-4.9-3.1c-2.6-2.5-4.6-3.2-8.9-3.4
		c-5.2-0.2-5.7,0.1-7.1,3.5c-1,2.4-1.1,4.3-0.4,5.7c0.7,1.4,0.6,2.7-0.3,3.8c-0.8,0.9-1,1.7-0.5,1.7s0.3,0.7-0.4,1.6
		c-1,1.2-0.8,2.3,1,4.6c2.9,3.6,2.9,7.5,0.3,11.3c-1.3,1.8-2.1,5.3-2.2,9.7c-0.1,5.1-0.7,7.2-2.2,8.3c-1.8,1.3-2.7,0.9-6.6-2.8
		c-4.2-3.9-4.5-4.7-4-9.1l0.5-4.8l-5.1-0.6c-3.4-0.4-7.3-2-11.4-4.8c-3.4-2.4-6.7-4-7.3-3.6c-1.4,0.9-2.9-1.5-3-4.6
		c0-1.7-0.7-2.2-2.6-2c-1.9,0.3-2.9-0.4-3.7-2.6c-1.6-4.2-0.3-7,7.2-14.9c1.8-1.8,2.9-3.8,2.6-4.3c-0.8-1.4,3.5-3.6,5.6-2.8
		c0.9,0.3,2.9-0.4,4.4-1.7c3-2.5,3.2-2.3-3.5-4.3c-3.1-0.9,0.6-2.9,4.7-2.5c3.6,0.3,3.9,0.7,4.3,4.7c0.3,3.2-0.1,4.5-1.5,5.1
		c-1.5,0.6-1.2,1.1,1.4,2.4c3,1.6,3.4,1.5,5.4-1.2c2-2.7,2.3-2.8,4.8-1.2c1.5,1,3.2,1.4,3.8,1c1.8-1.1-3.9-6.4-7.8-7.2
		c-2-0.4-4.4-2-5.4-3.5c-1.9-2.9-1.7-3.1,2.5-2.8c2.7,0.2,9.6-2.9,9.6-4.4c0-0.5-0.7-1.9-1.6-3.1c-1.2-1.6-1.3-2.7-0.4-3.7
		c1.7-2-2.1-4.8-6.4-4.8c-2.8,0-3,0.3-2.1,2.1c0.9,1.6,0.4,3-1.9,5.9c-2.8,3.6-3.1,3.7-4.5,1.7c-0.8-1.2-1.6-3.2-1.6-4.6
		c0-1.4-0.8-3.1-1.7-3.9c-1.3-1.1-2-0.8-3.6,1.6c-2.1,3.2-4,3-4-0.4c0-1.2-1.1-2.4-2.5-2.8c-2-0.5-2.2-1-1.2-2.2
		C238.7,88.4,234.5,83.7,231.4,83.6z M257.3,83.9c-0.3,0-0.5,0.5-0.5,1.2s0.6,1.2,1.2,1.2c0.7,0,0.9-0.5,0.5-1.2
		C258.2,84.4,257.6,83.9,257.3,83.9z M1011.2,84.4c-2.3,0.1-5.3,0.9-6.4,2.1c-0.9,0.9,5,0.8,9.6-0.1c0.2,0,0-0.6-0.4-1.3
		C1013.7,84.5,1012.6,84.3,1011.2,84.4z M135.7,85.6c-0.2,0-0.4,0.1-0.5,0.2c-0.6,0.4-0.8,1.2-0.4,1.8c0.4,0.6,1.2,0.8,1.8,0.4
		c0.6-0.4,0.8-1.2,0.4-1.8C136.7,85.7,136.2,85.5,135.7,85.6z M478.2,85.6c-0.2,0-0.4,0.1-0.5,0.2c-0.6,0.4-0.8,1.2-0.4,1.8
		c0.4,0.6,1.2,0.8,1.8,0.4c0.6-0.4,0.8-1.2,0.4-1.8C479.2,85.7,478.7,85.5,478.2,85.6z M474.7,87.9c-0.2,0-0.4,0.1-0.5,0.2
		c-0.6,0.4-0.8,1.2-0.4,1.8c0.4,0.6,1.2,0.8,1.8,0.4c0.6-0.4,0.8-1.2,0.4-1.8C475.7,88,475.2,87.8,474.7,87.9z M667,88.3
		c-0.5,0-0.9,0.1-1.2,0.4c-0.8,0.9-0.5,1.7,1,2.9c2.6,1.9,3.7,2.1,4.7,0.6C672.4,90.7,669,88.3,667,88.3z M552.2,89
		c-0.2,0-0.4,0.1-0.5,0.2c-0.6,0.4-0.8,1.2-0.4,1.8c0.4,0.6,1.2,0.8,1.8,0.4c0.6-0.4,0.8-1.2,0.4-1.8C553.2,89.2,552.7,89,552.2,89z
		 M221.3,91.5c-0.5,0.1-1.1,0.6-2,1.6c-1.8,2-1.8,2.2-0.1,2.9c1,0.4,1.6,1.2,1.2,1.8c-0.4,0.7,0.7,0.7,3,0c2-0.6,4.1-1.7,4.6-2.5
		c0.7-1.2,1-1.2,1,0c0,0.8-0.8,1.8-1.7,2.1c-1,0.4-1.4,1.1-1.1,1.7c1.2,1.9,2.6,1.1,4.4-2.6l1.8-3.6l-3.7,0.7
		c-2.5,0.5-4.3,0.2-5.6-1C222.4,91.8,221.9,91.4,221.3,91.5z M640.1,92.4c-1.7,0-4.2,2.7-3.3,4.2c0.6,0.9,1.5,0.9,3,0.1
		c2.5-1.3,2.9-2.9,1-4.1C640.6,92.4,640.4,92.4,640.1,92.4z M347.6,93.2c-1,0-1.5,0.5-1.1,1.2c0.4,0.6,1.2,1.2,1.8,1.2
		c0.6,0,1.1-0.5,1.1-1.2C349.4,93.7,348.6,93.2,347.6,93.2z M273.4,93.7c-0.2,0-0.4,0.1-0.5,0.2c-0.6,0.4-0.8,1.2-0.4,1.8
		c0.4,0.6,1.2,0.8,1.8,0.4s0.8-1.2,0.4-1.8C274.4,93.8,273.9,93.6,273.4,93.7z M125.5,95.5c-0.6,0-1.9,0.5-2.9,1.1
		c-1,0.6-1.2,1.1-0.6,1.1c0.6,0,1.9-0.5,2.9-1.1C125.9,96,126.1,95.5,125.5,95.5z M541.8,96c-0.2,0-0.4,0.1-0.5,0.2
		c-0.6,0.4-0.8,1.2-0.4,1.8c0.4,0.6,1.2,0.8,1.8,0.4c0.6-0.4,0.8-1.2,0.4-1.8C542.8,96.1,542.3,95.9,541.8,96z M274.6,98.3
		c-0.2,0-0.4,0.1-0.5,0.2c-0.6,0.4-0.8,1.2-0.4,1.8c0.4,0.6,1.2,0.8,1.8,0.4c0.6-0.4,0.8-1.2,0.4-1.8
		C275.6,98.4,275.1,98.2,274.6,98.3z M537.2,98.3c-0.2,0-0.4,0.1-0.5,0.2c-0.6,0.4-0.8,1.2-0.4,1.8c0.4,0.6,1.2,0.8,1.8,0.4
		c0.6-0.4,0.8-1.2,0.4-1.8C538.2,98.4,537.7,98.2,537.2,98.3z M283.1,100.3c-0.1,0-0.3,0-0.4,0.1c-2.9,0.6-3.3,3.3-0.5,3.3
		c1.4,0,2.4-0.7,2.4-1.8C284.6,100.8,284,100.3,283.1,100.3z M297.3,107.1c-1.3,0-2.1,0.5-1.7,1.2c0.4,0.6,1.2,1.2,1.7,1.2
		c0.6,0,1.3-0.5,1.7-1.2C299.4,107.6,298.7,107.1,297.3,107.1z M455.2,108.6c-0.8,0-2,0.1-3.7,0.4c-3,0.5-6.4,0.8-7.6,0.7
		c-1.1-0.1-1.8,0.3-1.4,0.8c0.9,1.4-4.7,4.7-8.3,4.8l-3.2,0.1l3.5,0.7c1.9,0.4,3.2,1.2,2.9,1.8c-0.7,1.2,2.9,2.8,6.5,2.9
		c1.3,0,5.3-1.1,8.7-2.5c7-2.8,8.7-4.5,6.2-5.9c-0.9-0.5-1.7-1.7-1.7-2.7C457,108.9,456.6,108.6,455.2,108.6z M436.5,109.4
		c-1.1,0-2.7,0.4-3.8,1.1c-1.4,0.9-1.1,1.1,1.4,1.2c1.7,0,3.4-0.5,3.8-1.2C438.3,109.8,437.6,109.4,436.5,109.4z M526.8,118
		c-0.2,0-0.4,0.1-0.5,0.2c-0.6,0.4-0.8,1.2-0.4,1.8c0.4,0.6,1.2,0.8,1.8,0.4c0.6-0.4,0.8-1.2,0.4-1.8
		C527.8,118.1,527.3,117.9,526.8,118z M303.9,121.2c1.6-0.1,5.9,1.9,6.7,3.1c0.4,0.7,0.3,1.2-0.2,1.2c-1.6-0.1-7.5-3.6-7-4.1
		C303.5,121.3,303.7,121.2,303.9,121.2z M17.5,121.4c-0.3,0-0.6,0-0.9,0c-0.3,0-0.5,0.1-0.7,0.2c-0.6,0.3-0.4,1.4,0.4,2.3
		c1.5,1.8,7.6,1.7,7.1-0.1C23.1,122.8,19.7,121.5,17.5,121.4z M281.5,121.4c-0.2,0-0.4,0.1-0.5,0.2c-0.6,0.4-0.8,1.2-0.4,1.8
		c0.4,0.6,1.2,0.8,1.8,0.4c0.6-0.4,0.8-1.2,0.4-1.8C282.5,121.5,282,121.3,281.5,121.4z M276.9,122.6c-0.2,0-0.4,0.1-0.5,0.2
		c-0.6,0.4-0.8,1.2-0.4,1.8c0.4,0.6,1.2,0.8,1.8,0.4c0.6-0.4,0.8-1.2,0.4-1.8C277.9,122.7,277.4,122.5,276.9,122.6z M272.6,125.9
		c-0.3,0-0.6,0.2-0.9,0.6c-0.7,0.7-0.9,2.2-0.5,3.3c0.6,1.5,1.1,1.7,2,0.8c0.7-0.7,0.9-2.2,0.5-3.3
		C273.4,126.3,273,125.9,272.6,125.9z M263.7,126c-1.6,0.2-3.5,1.9-2.7,3.2c0.4,0.6,1.7,0.5,3-0.3c1.7-0.9,2-1.6,1.2-2.5
		C264.7,126.1,264.2,126,263.7,126z M479.4,127.2c-0.9,0.1-1.6,1.2-1.2,2.5c0.3,0.9,0.1,1.9-0.5,2.3c-0.6,0.4-0.8,1.2-0.4,1.8
		c0.4,0.6,1.2,0.8,1.8,0.4c0.6-0.4,0.9-1,0.5-1.3c-0.4-0.4-0.1-1.3,0.6-2.2c0.7-0.8,0.9-2,0.5-2.7c-0.3-0.4-0.6-0.7-0.9-0.7
		C479.7,127.2,479.5,127.2,479.4,127.2z M586.7,131.3c0.2,0,0.4,0,0.7,0c1.5,0.1,3.1,1,3.8,2.3c1.6,3,1.5,3.9-0.4,3.2
		c-0.9-0.3-2-0.2-2.6,0.4c-0.6,0.6-1.6-0.2-2.3-1.8c-0.7-1.5-1-3-0.7-3.4C585.5,131.6,586.1,131.4,586.7,131.3z M495.5,134.2
		c-1.1,0-1.8,1.6-0.9,3c0.6,0.9,1.1,0.9,2,0c0.9-0.9,0.9-1.6,0-2.5C496.3,134.3,495.9,134.2,495.5,134.2z M305.8,135.3
		c-0.2,0-0.4,0.1-0.5,0.2c-0.6,0.4-0.8,1.2-0.4,1.8c0.4,0.6,1.2,0.8,1.8,0.4c0.6-0.4,0.8-1.2,0.4-1.8
		C306.8,135.4,306.3,135.2,305.8,135.3z M555.7,135.3c-0.2,0-0.4,0.1-0.5,0.2c-0.6,0.4-0.8,1.2-0.4,1.8c0.4,0.6,1.2,0.8,1.8,0.4
		c0.6-0.4,0.8-1.2,0.4-1.8C556.7,135.4,556.2,135.2,555.7,135.3z M28.1,136.5c-0.2,0-0.4,0.1-0.5,0.2c-0.6,0.4-0.8,1.2-0.4,1.8
		c0.4,0.6,1.2,0.8,1.8,0.4c0.6-0.4,0.8-1.2,0.4-1.8C29.1,136.6,28.6,136.4,28.1,136.5z M491,141.1c-0.5,0.1-1.8,1-3.6,2.7
		c-3.7,3.4-5.5,8-3.7,9.1c0.7,0.4,0.7,1.2,0.1,2c-1.2,1.5,1.7,4.8,4.3,4.8c0.9,0,1.8,1.4,2,3.3c0.3,2.4-0.3,3.5-2.2,4.3
		c-1.4,0.6-2.1,1-1.5,1.1c0.6,0,0.4,0.9-0.4,1.8c-1.2,1.4-1.1,1.7,0.9,1.7c4,0,4.2,2.3,0.3,3.8c-4.9,1.8-4.5,3.2,0.5,1.8
		c2.2-0.6,4.7-1,5.5-0.9c5.4,0.7,8.3-0.6,9.5-4.4c0.6-1.9,0.3-2.6-0.9-2.6c-2,0-3-1.3-3.7-4.8c-0.5-2.5-4.4-7.6-7.2-9.4
		c-1.1-0.7-1-1.6,0.6-4c2-3,2-3-0.6-2.4c-3.7,1-4.3-0.9-1.5-4.5C491.2,142.1,491.7,141,491,141.1z M40.9,143.4
		c-0.2,0-0.4,0.1-0.5,0.2c-0.6,0.4-0.8,1.2-0.4,1.8c0.4,0.6,1.2,0.8,1.8,0.4c0.6-0.4,0.8-1.2,0.4-1.8
		C41.8,143.5,41.4,143.3,40.9,143.4z M479.3,143.4c-0.2,0-0.4,0.1-0.5,0.2c-0.6,0.4-0.8,1.2-0.4,1.8c0.4,0.6,1.2,0.8,1.8,0.4
		c0.6-0.4,0.8-1.2,0.4-1.8C480.3,143.5,479.8,143.3,479.3,143.4z M562.6,143.4c-0.2,0-0.4,0.1-0.5,0.2c-0.6,0.4-0.8,1.2-0.4,1.8
		c0.4,0.6,1.2,0.8,1.8,0.4c0.6-0.4,0.8-1.2,0.4-1.8C563.6,143.5,563.1,143.3,562.6,143.4z M69.4,144.9c-1.7,0.1-6.9,3.6-6.9,4.9
		c0,0.5,0.4,1.2,0.8,1.7c1,1,7.4-5.1,6.6-6.4l0.1-0.1l-0.2,0.1C69.7,144.9,69.6,144.9,69.4,144.9z M113.8,146.9
		c-0.2,0-0.4,0.1-0.5,0.2c-0.6,0.4-0.8,1.2-0.4,1.8s1.2,0.8,1.8,0.4c0.6-0.4,0.8-1.2,0.4-1.8C114.7,147,114.2,146.8,113.8,146.9z
		 M479.3,148c-0.2,0-0.4,0.1-0.5,0.2c-0.6,0.4-0.8,1.2-0.4,1.8c0.4,0.6,1.2,0.8,1.8,0.4c0.6-0.4,0.8-1.2,0.4-1.8
		C480.3,148.2,479.8,148,479.3,148z M551.1,148.1c-1.1,0-1.8,1.6-0.9,3c0.6,0.9,1.1,0.9,2,0c0.9-0.9,0.9-1.6,0-2.5
		C551.8,148.2,551.4,148.1,551.1,148.1z M18.9,151.5c-0.2,0-0.4,0.1-0.5,0.2c-0.6,0.4-0.8,1.2-0.4,1.8c0.4,0.6,1.2,0.8,1.8,0.4
		c0.6-0.4,0.8-1.2,0.4-1.8C19.9,151.6,19.4,151.4,18.9,151.5z M61.7,152.7c-0.2,0-0.4,0.1-0.5,0.2c-0.6,0.4-0.8,1.2-0.4,1.8
		c0.4,0.6,1.2,0.8,1.8,0.4c0.6-0.4,0.8-1.2,0.4-1.8C62.7,152.8,62.2,152.6,61.7,152.7z M272.3,153.8c-0.2,0-0.4,0.1-0.5,0.2
		c-0.6,0.4-0.8,1.2-0.4,1.8c0.4,0.6,1.2,0.8,1.8,0.4s0.8-1.2,0.4-1.8C273.2,153.9,272.8,153.7,272.3,153.8z M122.2,155.3
		c-0.1,0-0.2,0-0.3,0c-1.1,0.3-1.5,2.6-0.8,4.1c0.2,0.5,0.9,0.6,1.4,0.3C123.8,159,123.3,155.5,122.2,155.3z M59.4,156.1
		c-0.2,0-0.4,0.1-0.5,0.2c-0.6,0.4-0.8,1.2-0.4,1.8c0.4,0.6,1.2,0.8,1.8,0.4s0.8-1.2,0.4-1.8C60.4,156.3,59.9,156.1,59.4,156.1z
		 M967.6,156.1c-0.2,0-0.4,0.1-0.5,0.2c-0.6,0.4-0.8,1.2-0.4,1.8c0.4,0.6,1.2,0.8,1.8,0.4c0.6-0.4,0.8-1.2,0.4-1.8
		C968.6,156.3,968.1,156.1,967.6,156.1z M531.4,157.4c-1.1,0-1.8,1.6-0.9,3c0.6,0.9,1.1,0.9,2,0c0.9-0.9,0.9-1.6,0-2.5
		C532.1,157.5,531.8,157.3,531.4,157.4z M540.7,158.4c-0.2,0-0.4,0.1-0.5,0.2c-0.6,0.4-0.8,1.2-0.4,1.8c0.4,0.6,1.2,0.8,1.8,0.4
		c0.6-0.4,0.8-1.2,0.4-1.8C541.7,158.6,541.2,158.4,540.7,158.4z M477.1,158.7c-0.6,0.1-1.1,0.4-1.5,0.9c-0.7,0.8-0.9,1.8-0.4,2.3
		c0.4,0.4-0.4,1.1-1.8,1.5c-1.9,0.5-2.3,1-1.3,2.2c0.9,1,0.9,1.7,0,2.2c-1.1,0.7-1.8,5.2-0.9,5.2c0.2,0,2.5-1,5.1-2.3
		c3.9-1.9,4.8-2.9,5.2-6.3c0.4-3.3,0-4.2-2.1-5.2C478.5,158.9,477.7,158.6,477.1,158.7z M35.1,159.6c-0.2,0-0.4,0.1-0.5,0.2
		c-0.6,0.4-0.8,1.2-0.4,1.8c0.4,0.6,1.2,0.8,1.8,0.4c0.6-0.4,0.8-1.2,0.4-1.8C36.1,159.7,35.6,159.5,35.1,159.6z M903.6,160.3
		c-0.7,0-1.1,0.5-0.7,1c0.3,0.6-0.2,2.7-1.2,4.7c-1.5,3.1-1.6,4.2-0.3,7.3c0.9,2.1,1.4,7.3,1.2,12.5c-0.2,7.3,0,8.9,1.5,8.9
		c1,0,1.8-0.6,1.8-1.4s-0.5-1.8-1.2-2.2c-1.3-0.8-1.6-6.7-0.4-7.9c0.4-0.4,1.5-0.2,2.3,0.5c1.7,1.4,2.2-0.2,0.6-2
		c-1.9-2.2-3.8-13.1-3-17.2C904.7,161.6,904.6,160.3,903.6,160.3z M973.4,160.8c-0.2,0-0.4,0.1-0.5,0.2c-0.6,0.4-0.8,1.2-0.4,1.8
		c0.4,0.6,1.2,0.8,1.8,0.4c0.6-0.4,0.8-1.2,0.4-1.8C974.4,160.9,973.9,160.7,973.4,160.8z M27.7,161.7c-1.2,0-2.3,1.1-1.7,2.1
		c0.4,0.6,1.1,1.1,1.7,1.1c1.6,0,2.5-2.1,1.2-2.9C28.5,161.8,28.1,161.7,27.7,161.7z M121.8,162c-1.1,0-1.8,1.6-0.9,3
		c0.6,0.9,1.1,0.9,2,0c0.9-0.9,0.9-1.6,0-2.5C122.6,162.1,122.2,162,121.8,162z M22.4,165.4c-0.2,0-0.4,0.1-0.5,0.2
		c-0.6,0.4-0.8,1.2-0.4,1.8c0.4,0.6,1.2,0.8,1.8,0.4c0.6-0.4,0.8-1.2,0.4-1.8C23.3,165.5,22.8,165.3,22.4,165.4z M987.3,166.5
		c-0.2,0-0.4,0.1-0.5,0.2c-0.6,0.4-0.8,1.2-0.4,1.8c0.4,0.6,1.2,0.8,1.8,0.4c0.6-0.4,0.8-1.2,0.4-1.8
		C988.2,166.7,987.7,166.5,987.3,166.5z M266.7,166.6c-0.3,0-0.6,0.1-0.9,0.5c-0.9,0.9-0.8,1.7,0.3,3c2.1,2.5,3.8,1,2.2-1.8
		C267.7,167.2,267.2,166.6,266.7,166.6z M123.3,168.6c-0.1,0-0.1,0-0.1,0c-0.3,0.3,0.1,2.2,0.9,4.3c0.8,2.1,1.6,3.2,1.8,2.7
		c0.2-0.6-0.2-2.5-0.9-4.3C124.3,169.7,123.7,168.6,123.3,168.6z M938.7,175.9c-1.1,0-1.8,1.6-0.9,3c0.6,0.9,1.1,0.9,2,0
		c0.9-0.9,0.9-1.6,0-2.5C939.4,176,939,175.9,938.7,175.9z M137.6,178.3c-0.5,0.1-0.7,0.3-0.5,0.6c0.4,0.6,1.6,1,2.9,1
		c1.2,0,2.8,1,3.4,2.3s1.8,2.3,2.4,2.3c2,0-4-5.5-6.8-6.1c-0.4-0.1-0.7-0.1-0.9-0.1C137.9,178.3,137.8,178.3,137.6,178.3z
		 M340.2,178.4c-1.1,0.1-3.3,1.4-5.7,3.6c-4.3,3.9-4.6,4.6-3.2,6.5c1.6,2.1,3.7,2.1,9.5-0.1c1.4-0.5,1.8-0.4,1.2,0.6
		c-0.5,0.8-0.5,2.3-0.1,3.4c0.7,1.8,0.8,1.8,2.3-0.1c1-1.3,1.8-1.6,2.3-0.8c0.4,0.7,1.3,0.9,1.9,0.5c0.6-0.4,0.8-1.2,0.4-1.8
		c-0.4-0.6-1.2-0.7-1.9-0.3c-0.8,0.5-0.9-0.1-0.5-1.6c1-3.2-2.9-6.6-6.5-5.5c-2.6,0.8-2.6,0.8-0.6-1.5
		C341.2,179.2,341.2,178.3,340.2,178.4z M247.6,180c0.6,0,1.2,0.5,1.2,1.2c0,0.6-0.5,1.2-1.2,1.2c-0.6,0-1.2-0.5-1.2-1.2
		C246.4,180.5,246.9,180,247.6,180z M319.3,181.5c-0.4,0-0.6,0.1-0.9,0.2c-1.7,0.7-1.7,0.9,0.3,2.4c2.6,1.9,4.8,2.2,5.8,0.6
		C325.3,183.3,321.7,181.3,319.3,181.5z M936.3,181.6c-0.2,0-0.4,0.1-0.5,0.2c-0.6,0.4-0.8,1.2-0.4,1.8c0.4,0.6,1.2,0.8,1.8,0.4
		c0.6-0.4,0.8-1.2,0.4-1.8C937.3,181.7,936.8,181.5,936.3,181.6z M932.9,185.1c-0.2,0-0.4,0.1-0.5,0.2c-0.6,0.4-0.8,1.2-0.4,1.8
		c0.4,0.6,1.2,0.8,1.8,0.4c0.6-0.4,0.8-1.2,0.4-1.8C933.9,185.2,933.4,185,932.9,185.1z M250.3,186.3c0.6,0,1.3,0.3,2.3,0.7
		c1.6,0.8,3.8,3.1,4.8,5.1c1.5,3.1,2.7,3.9,7.2,4.8c3,0.5,5.6,1.6,5.9,2.5c0.3,0.8-0.2,1.3-1,1.2c-0.9-0.2-1.8,1.2-2.2,3.1
		c-0.7,3.5-0.7,3.5-2.2,0.8c-0.8-1.4-1.9-2.4-2.4-2c-0.5,0.3-0.8-0.4-0.4-1.6c0.4-1.4-0.2-2.7-1.7-3.5c-1.9-1-2.6-0.7-4.4,2
		c-1.2,1.7-2.4,5.5-2.7,8.4c-0.4,3.3-1,4.7-1.6,3.7c-0.5-0.8-0.8-2.9-0.6-4.6c0.2-1.7,0-3.7-0.4-4.3c-1-1.6,1.6-4.9,4.3-5.4
		c6.6-1.3-3.6-5.7-11.4-4.9c-4.3,0.4-4.5,0.3-2-0.8c1.6-0.7,4-2.3,5.4-3.5C248.4,186.7,249.2,186.2,250.3,186.3z M281.1,189.5
		c0.4,0,0.8,0.1,1.2,0.3c1.3,0.8,0.4,2.9-1.2,2.9c-0.6,0-1.3-0.5-1.7-1.1C278.8,190.6,279.9,189.6,281.1,189.5z M929.4,189.7
		c-0.2,0-0.4,0.1-0.5,0.2c-0.6,0.4-0.8,1.2-0.4,1.8c0.4,0.6,1.2,0.8,1.8,0.4c0.6-0.4,0.8-1.2,0.4-1.8
		C930.4,189.8,929.9,189.6,929.4,189.7z M338.2,190.8c-0.2,0-0.4,0.1-0.5,0.2c-0.6,0.4-0.8,1.2-0.4,1.8c0.4,0.6,1.2,0.8,1.8,0.4
		c0.6-0.4,0.8-1.2,0.4-1.8C339.2,191,338.7,190.8,338.2,190.8z M646.7,193.2c1.9,0,2.3,0.6,2.3,2.7c0,2-0.5,2.6-1.7,2.2
		c-0.9-0.3-2.2,0.1-3,1c-0.8,0.9-1,1.7-0.5,1.7c0.5,0,0.3,0.7-0.4,1.6c-1,1.2-0.6,2.3,1.5,4.6c1.5,1.6,2.5,3.3,2.2,3.6
		c-0.3,0.3-0.3,1.5,0.2,2.7c0.7,1.9,0.9,1.9,2.2,0.1c1.3-1.8,1.5-1.8,2.8,0.3c1.2,1.9,1.1,2.2-0.9,2.2c-3.1,0-4,1.9-1.6,3.4
		c1.1,0.7,1.7,1.2,1.3,1.2c-0.4,0-0.3,2.1,0.1,4.6c0.7,4,0.5,4.6-1.6,5.2c-4.5,1.2-7.3,0.7-9.4-1.7c-2.1-2.3-2.1-2.7-0.3-7.6
		c1.6-4.3,1.6-5.3,0.3-5.8c-2.2-0.8-6.5-12.9-5.7-15.6c0.8-2.6,6.8-5.9,11.2-6.2C646.2,193.2,646.5,193.2,646.7,193.2z M272.3,194.3
		c0.5-0.1,1,0.1,1.3,0.6c0.4,0.6,0.2,1.4-0.4,1.8s-1.4,0.2-1.8-0.4c-0.4-0.6-0.2-1.4,0.4-1.8C271.9,194.4,272.1,194.3,272.3,194.3z
		 M922.5,194.3c-0.2,0-0.4,0.1-0.5,0.2c-0.6,0.4-0.8,1.2-0.4,1.8c0.4,0.6,1.2,0.8,1.8,0.4c0.6-0.4,0.8-1.2,0.4-1.8
		C923.4,194.4,923,194.2,922.5,194.3z M670,196.2c1.5,0,1.2,5.1-0.4,6.7c-1.9,1.9-2.9,1.7-3.7-0.5
		C665.2,200.5,668.1,196.2,670,196.2z M918.6,197.6c-1.2,0-2.3,1.1-1.7,2.1c0.4,0.6,1.1,1.1,1.7,1.1c1.6,0,2.5-2.1,1.2-2.9
		C919.4,197.7,919,197.6,918.6,197.6z M900.1,198L900.1,198c-0.8,0.4-1.2,1.7-1.2,4c0,2.2-0.6,3.4-1.7,3.4c-2.5,0-3.1,1.8-1.8,5.2
		c1.1,3,4.4,3.5,3.7,0.7c-0.2-0.9,0.5-1.2,1.9-0.7c1.3,0.4,2.8,0,3.7-1c0.8-1,2.1-1.8,3-1.8c2,0,4.3-4.2,2.9-5.1
		c-0.6-0.4-1.8-0.4-2.7,0c-0.9,0.3-2.8-0.7-4.3-2.3C902.1,198.6,900.9,197.9,900.1,198L900.1,198z M914.4,200.1
		c-0.2,0-0.4,0.1-0.5,0.2c-0.6,0.4-0.8,1.2-0.4,1.8c0.4,0.6,1.2,0.8,1.8,0.4c0.6-0.4,0.8-1.2,0.4-1.8
		C915.3,200.2,914.9,200,914.4,200.1z M282.1,203.3c0.1,0,0.2,0,0.3,0c0.2,0,0.3,0.2,0.2,0.5c-0.3,0.9-2.4,2.1-4.5,2.7
		c-2.1,0.6-5.6,2.4-7.8,4.1c-2.2,1.7-4.6,3-5.4,3c-2.2,0,3.1-3.7,11.2-7.8C279.1,204.2,281.2,203.4,282.1,203.3z M913.2,204.7
		c-0.2,0-0.4,0.1-0.5,0.2c-0.6,0.4-0.8,1.2-0.4,1.8c0.4,0.6,1.2,0.8,1.8,0.4c0.6-0.4,0.8-1.2,0.4-1.8
		C914.2,204.8,913.7,204.6,913.2,204.7z M524.5,208.3c-1.1,0-1.8,1.6-0.9,3c0.6,0.9,1.1,0.9,2,0c0.9-0.9,0.9-1.6,0-2.5
		C525.2,208.4,524.8,208.3,524.5,208.3z M897.1,215.2c-1.3,0.1-2.4,1.1-2.6,3c-0.8,6.8-1.4,8.3-3.1,7c-1-0.8-1.9-0.9-2.3-0.2
		c-0.4,0.6-0.1,1.5,0.5,1.9c0.9,0.5,0.8,1.2-0.1,2.4c-1,1.2-1.8,1.3-2.9,0.4c-1.2-1-1.8-0.7-2.6,1.6c-0.8,2.2-2.1,3-6,3.5
		c-3.2,0.4-5.9,1.7-7.7,3.7c-2.1,2.2-3.2,2.7-4.3,1.8c-2.6-2.2-3,0.2-0.5,3.5c1.3,1.8,2,3.8,1.6,4.5c-0.4,0.7-0.5,2-0.1,2.9
		c1.1,3,3.2,1.8,5-2.8c1.3-3.3,2.3-4.4,3.8-4c1.1,0.3,2.6-0.3,3.5-1.3c1.3-1.5,1.1-2-1.2-2.9c-2.7-1.1-2.7-1.1-0.2-1.2
		c1.5,0,3.1,1,3.9,2.5c1.3,2.5,1.4,2.5,3.3,0.3c1.3-1.5,3.3-2.3,6.5-2.3h4.6l1.7-7.1c1-3.9,2.1-7.5,2.6-8c1.4-1.4,1-7-0.6-8.2
		C898.8,215.5,897.9,215.1,897.1,215.2z M524.3,216.1c-0.7,0-1.4,0.9-1.4,2.5c0,2.2,0.5,2.8,1.8,2.3c1-0.4,1.6-1.5,1.4-2.5
		C525.9,216.8,525.1,216.1,524.3,216.1z M512,217.5c-0.1,0-0.3,0-0.4,0c-0.2,0-0.4,0.1-0.6,0.3c-0.8,0.5-1.8,0.9-2.2,0.9
		c-0.5,0-0.9,0.4-0.9,0.9c0,0.5,0,1.2,0,1.5c0,0.4,0.7,0.2,1.4-0.3c0.8-0.5,1.8-1,2.3-1c0.5-0.1,1.2-0.2,1.5-0.3
		c0.4-0.1,0.3-0.7-0.1-1.3C512.9,217.7,512.4,217.5,512,217.5z M503.6,222.1c-0.2,0-0.4,0.1-0.5,0.2c-0.6,0.4-0.8,1.2-0.4,1.8
		c0.4,0.6,1.2,0.8,1.8,0.4c0.6-0.4,0.8-1.2,0.4-1.8C504.6,222.2,504.1,222,503.6,222.1z M539.1,226.2c-4.1,0-4.5,1.5-0.9,3.2
		c3.8,1.8,4.3,1.7,4.3-0.9C542.6,226.7,541.8,226.2,539.1,226.2z M556.9,226.7c-0.2,0-0.4,0.1-0.5,0.2c-0.6,0.4-0.8,1.2-0.4,1.8
		c0.4,0.6,1.2,0.8,1.8,0.4c0.6-0.4,0.8-1.2,0.4-1.8C557.9,226.8,557.4,226.6,556.9,226.7z M532.6,230.2c-0.2,0-0.4,0.1-0.5,0.2
		c-0.6,0.4-0.8,1.2-0.4,1.8c0.4,0.6,1.2,0.8,1.8,0.4c0.6-0.4,0.8-1.2,0.4-1.8C533.6,230.3,533.1,230.1,532.6,230.2z M574.2,230.2
		c-0.2,0-0.4,0.1-0.5,0.2c-0.6,0.4-0.8,1.2-0.4,1.8c0.4,0.6,1.2,0.8,1.8,0.4c0.6-0.4,0.8-1.2,0.4-1.8
		C575.2,230.3,574.7,230.1,574.2,230.2z M568.4,231.3c-0.2,0-0.4,0.1-0.5,0.2c-0.6,0.4-0.8,1.2-0.4,1.8c0.4,0.6,1.2,0.8,1.8,0.4
		c0.6-0.4,0.8-1.2,0.4-1.8C569.4,231.5,568.9,231.3,568.4,231.3z M592.7,234.5c-0.5,0-1.1,0.1-1.5,0.4c-0.7,0.4-0.9,1.3-0.6,1.8
		c0.9,1.4,3.7,1.4,4.6-0.1C595.9,235.6,594.3,234.5,592.7,234.5z M538.4,234.8c-0.2,0-0.4,0.1-0.5,0.2c-0.6,0.4-0.8,1.2-0.4,1.8
		c0.4,0.6,1.2,0.8,1.8,0.4c0.6-0.4,0.8-1.2,0.4-1.8C539.3,234.9,538.8,234.7,538.4,234.8z M533.7,236c-0.2,0-0.4,0.1-0.5,0.2
		c-0.6,0.4-0.8,1.2-0.4,1.8c0.4,0.6,1.2,0.8,1.8,0.4c0.6-0.4,0.8-1.2,0.4-1.8C534.7,236.1,534.2,235.9,533.7,236z M569.3,236.8
		c-0.4,0-0.7,0.1-0.9,0.3c-0.4,0.4,0.3,0.6,1.5,0.6c1.3-0.1,1.6-0.3,0.7-0.7C570.1,236.8,569.7,236.8,569.3,236.8z M857.7,242.9
		c-0.2,0-0.4,0.1-0.5,0.2c-0.6,0.4-0.8,1.2-0.4,1.8c0.4,0.6,1.2,0.8,1.8,0.4c0.6-0.4,0.8-1.2,0.4-1.8
		C858.7,243,858.2,242.8,857.7,242.9z M313.9,245.2c-0.2,0-0.4,0.1-0.5,0.2c-0.6,0.4-0.8,1.2-0.4,1.8c0.4,0.6,1.2,0.8,1.8,0.4
		c0.6-0.4,0.8-1.2,0.4-1.8C314.9,245.3,314.4,245.1,313.9,245.2z M450.4,246.4c-0.2,0-0.4,0.1-0.5,0.2c-0.6,0.4-0.8,1.2-0.4,1.8
		c0.4,0.6,1.2,0.8,1.8,0.4c0.6-0.4,0.8-1.2,0.4-1.8C451.4,246.5,450.9,246.3,450.4,246.4z M862.3,246.4c-0.2,0-0.4,0.1-0.5,0.2
		c-0.6,0.4-0.8,1.2-0.4,1.8c0.4,0.6,1.2,0.8,1.8,0.4c0.6-0.4,0.8-1.2,0.4-1.8C863.3,246.5,862.8,246.3,862.3,246.4z M448.1,260.3
		c-0.2,0-0.4,0.1-0.5,0.2c-0.6,0.4-0.8,1.2-0.4,1.8c0.4,0.6,1.2,0.8,1.8,0.4c0.6-0.4,0.8-1.2,0.4-1.8
		C449.1,260.4,448.6,260.2,448.1,260.3z M458.5,261.4c-0.2,0-0.4,0.1-0.5,0.2c-0.6,0.4-0.8,1.2-0.4,1.8c0.4,0.6,1.2,0.8,1.8,0.4
		c0.6-0.4,0.8-1.2,0.4-1.8C459.5,261.5,459,261.3,458.5,261.4z M865.8,261.4c-0.2,0-0.4,0.1-0.5,0.2c-0.6,0.4-0.8,1.2-0.4,1.8
		c0.4,0.6,1.2,0.8,1.8,0.4c0.6-0.4,0.8-1.2,0.4-1.8C866.8,261.5,866.3,261.3,865.8,261.4z M452.7,262.6c-0.2,0-0.4,0.1-0.5,0.2
		c-0.6,0.4-0.8,1.2-0.4,1.8c0.4,0.6,1.2,0.8,1.8,0.4c0.6-0.4,0.8-1.2,0.4-1.8C453.7,262.7,453.2,262.5,452.7,262.6z M275.7,264.9
		c-0.2,0-0.4,0.1-0.5,0.2c-0.6,0.4-0.8,1.2-0.4,1.8c0.4,0.6,1.2,0.8,1.8,0.4c0.6-0.4,0.8-1.2,0.4-1.8
		C276.7,265,276.2,264.8,275.7,264.9z M448.1,264.9c-0.2,0-0.4,0.1-0.5,0.2c-0.6,0.4-0.8,1.2-0.4,1.8c0.4,0.6,1.2,0.8,1.8,0.4
		c0.6-0.4,0.8-1.2,0.4-1.8C449.1,265,448.6,264.8,448.1,264.9z M280.4,266c-0.2,0-0.4,0.1-0.5,0.2c-0.6,0.4-0.8,1.2-0.4,1.8
		c0.4,0.6,1.2,0.8,1.8,0.4c0.6-0.4,0.8-1.2,0.4-1.8C281.3,266.2,280.8,266,280.4,266z M861.4,266.3c-1.5,0-3.3,2.4-2.3,4
		c0.6,0.9,1.4,0.8,2.7-0.5c1.3-1.3,1.5-2.2,0.6-3C862,266.4,861.7,266.3,861.4,266.3z M652.9,269.5c-0.2,0-0.4,0.1-0.5,0.2
		c-0.6,0.4-0.8,1.2-0.4,1.8c0.4,0.6,1.2,0.8,1.8,0.4c0.6-0.4,0.8-1.2,0.4-1.8C653.9,269.6,653.4,269.4,652.9,269.5z M275.7,270.7
		c-0.2,0-0.4,0.1-0.5,0.2c-0.6,0.4-0.8,1.2-0.4,1.8c0.4,0.6,1.2,0.8,1.8,0.4c0.6-0.4,0.8-1.2,0.4-1.8
		C276.7,270.8,276.2,270.6,275.7,270.7z M281.5,270.7c-0.2,0-0.4,0.1-0.5,0.2c-0.6,0.4-0.8,1.2-0.4,1.8c0.4,0.6,1.2,0.8,1.8,0.4
		c0.6-0.4,0.8-1.2,0.4-1.8C282.5,270.8,282,270.6,281.5,270.7z M854.2,273c-0.2,0-0.4,0.1-0.5,0.2c-0.6,0.4-0.8,1.2-0.4,1.8
		c0.4,0.6,1.2,0.8,1.8,0.4c0.6-0.4,0.8-1.2,0.4-1.8C855.2,273.1,854.7,272.9,854.2,273z M278,274.1c-0.2,0-0.4,0.1-0.5,0.2
		c-0.6,0.4-0.8,1.2-0.4,1.8s1.2,0.8,1.8,0.4c0.6-0.4,0.8-1.2,0.4-1.8C279,274.3,278.5,274.1,278,274.1z M283.8,274.1
		c-0.2,0-0.4,0.1-0.5,0.2c-0.6,0.4-0.8,1.2-0.4,1.8c0.4,0.6,1.2,0.8,1.8,0.4c0.6-0.4,0.8-1.2,0.4-1.8
		C284.8,274.3,284.3,274.1,283.8,274.1z M849.6,274.1c-0.2,0-0.4,0.1-0.5,0.2c-0.6,0.4-0.8,1.2-0.4,1.8c0.4,0.6,1.2,0.8,1.8,0.4
		c0.6-0.4,0.8-1.2,0.4-1.8C850.6,274.3,850.1,274.1,849.6,274.1z M842.4,274.4c-0.2,0-0.5,0.2-0.8,0.5c-1.7,1.4-2.3,7-0.9,8.4
		c1.1,1.1,1.2,0.8,1.9-4.8C843,275.4,843,274.3,842.4,274.4z M281.5,277.6c-0.2,0-0.4,0.1-0.5,0.2c-0.6,0.4-0.8,1.2-0.4,1.8
		c0.4,0.6,1.1,0.8,1.7,0.5c0.5-0.3,1.3-0.1,1.7,0.6c0.4,0.7,1.2,0.9,1.8,0.5c0.6-0.4,0.8-1.2,0.4-1.8c-0.4-0.6-1.1-0.8-1.7-0.5
		c-0.5,0.3-1.3,0.1-1.7-0.6C282.5,277.8,282,277.5,281.5,277.6z M265.4,279.6c-1.8,0-3.3,0.5-4.6,1.5c-2.2,1.6-2.2,1.7,0.7,2.7
		c1.6,0.6,2.8,1.4,2.6,1.8c-0.6,1.5-0.2,2,0.9,1.3c0.8-0.5,0.8-1.3-0.1-2.4c-0.9-1.1-1-1.6-0.1-1.6c1.9,0,14,5.9,13.9,6.8
		c-0.1,0.4,0,1.1,0,1.6c0.2,1.5,6.8,0.9,8.1-0.7c1.1-1.3-0.5-2.5-8.1-6.4C272.5,281.1,268.4,279.6,265.4,279.6z M289.6,281.1
		c-0.2,0-0.4,0.1-0.5,0.2c-0.6,0.4-0.8,1.2-0.4,1.8c0.4,0.6,1.2,0.8,1.8,0.4c0.6-0.4,0.8-1.2,0.4-1.8
		C290.6,281.2,290.1,281,289.6,281.1z M47.8,282.2c-0.2,0-0.4,0.1-0.5,0.2c-0.6,0.4-0.8,1.2-0.4,1.8c0.4,0.6,1.2,0.8,1.8,0.4
		c0.6-0.4,0.8-1.2,0.4-1.8C48.8,282.4,48.3,282.2,47.8,282.2z M294.2,282.2c-0.2,0-0.4,0.1-0.5,0.2c-0.6,0.4-0.8,1.2-0.4,1.8
		c0.4,0.6,1.2,0.8,1.8,0.4c0.6-0.4,0.8-1.2,0.4-1.8C295.2,282.4,294.7,282.2,294.2,282.2z M52,284.4c-1.2,0-2.3,1.1-1.7,2.1
		c0.4,0.6,1.1,1.1,1.7,1.1c1.6,0,2.5-2.1,1.2-2.9C52.8,284.4,52.4,284.4,52,284.4z M291.9,285.7c-0.2,0-0.4,0.1-0.5,0.2
		c-0.6,0.4-0.8,1.2-0.4,1.8c0.4,0.6,1.2,0.8,1.8,0.4c0.6-0.4,0.8-1.2,0.4-1.8C292.9,285.8,292.4,285.6,291.9,285.7z M57,286.9
		c-0.2,0-0.4,0.1-0.5,0.2c-0.7,0.5-0.7,1.2,0.1,2.2c0.7,0.8,0.9,1.8,0.5,2.1s-0.3,1.2,0.1,1.9c1,1.6,2.6,1.6,3.6-0.1
		c0.5-0.7-0.1-2-1.3-2.9c-1.2-0.9-1.7-1.6-1.3-1.6c0.5,0,0.5-0.5,0.1-1.2C58.1,287,57.5,286.8,57,286.9z M809.5,291.1
		c-0.9,0.1-2,0.7-2.4,1.8c-0.5,1.3-0.1,1.7,1.2,1.4c1.1-0.2,2.1-1,2.4-1.8C811.1,291.4,810.4,291,809.5,291.1z M294.8,292.8
		c-1.8,0-2.9,0.2-2.5,0.8c0.3,0.5-0.4,1.3-1.6,1.7c-3.2,1.3,4,2.4,8.2,1.3c1.8-0.5,3.8-0.6,4.3-0.3c0.5,0.3,1,0.1,1-0.5
		c0-0.6-1.4-1.5-3.2-2C299,293.2,296.6,292.8,294.8,292.8z M310,294.8c-1.2,0-2.3,1.1-1.7,2.1c0.4,0.6,1.1,1.1,1.7,1.1
		c1.6,0,2.5-2.1,1.2-2.9C310.8,294.8,310.4,294.8,310,294.8z M278,295.8c-0.5,0-1.1,0.1-1.5,0.4c-0.7,0.4-0.9,1.3-0.6,1.8
		c0.9,1.4,3.7,1.4,4.6-0.1C281.2,296.9,279.6,295.8,278,295.8z M842.1,296c-1.7,0.1-2.1,1.1-2.7,5.6c-0.8,6.4,0.1,8.4,4.6,9.5
		c2.9,0.7,6.8,6.7,5.4,8.2c-0.5,0.5-0.2,0.5,0.7,0.1c0.8-0.5,1.1-1.5,0.7-2.2h0c-0.5-0.8,0-0.7,1.2,0.2c4,3.3,1.7-0.2-3.8-5.7
		c-6.3-6.3-6.6-7-4-9.1c2.8-2.3,2.2-6.3-1-6.5C842.6,296.1,842.4,296,842.1,296z M315.1,297.3c-0.2,0-0.4,0.1-0.5,0.2
		c-0.6,0.4-0.8,1.2-0.4,1.8c0.4,0.6,1.2,0.8,1.8,0.4c0.6-0.4,0.8-1.2,0.4-1.8C316,297.4,315.6,297.2,315.1,297.3z M257.2,298.4
		c-0.2,0-0.4,0.1-0.5,0.2c-0.6,0.4-0.8,1.2-0.4,1.8c0.4,0.6,1.2,0.8,1.8,0.4c0.6-0.4,0.8-1.2,0.4-1.8
		C258.2,298.6,257.7,298.4,257.2,298.4z M319.7,298.4c-0.2,0-0.4,0.1-0.5,0.2c-0.6,0.4-0.8,1.2-0.4,1.8c0.4,0.6,1.2,0.8,1.8,0.4
		c0.6-0.4,0.8-1.2,0.4-1.8C320.7,298.6,320.2,298.4,319.7,298.4z M324.3,299.6c-0.2,0-0.4,0.1-0.5,0.2c-0.6,0.4-0.8,1.2-0.4,1.8
		c0.4,0.6,1.2,0.8,1.8,0.4c0.6-0.4,0.8-1.2,0.4-1.8C325.3,299.7,324.8,299.5,324.3,299.6z M427.3,301.9c-0.2,0-0.4,0.1-0.5,0.2
		c-0.6,0.4-0.8,1.2-0.4,1.8c0.4,0.6,1.2,0.8,1.8,0.4c0.6-0.4,0.8-1.2,0.4-1.8C428.3,302,427.8,301.8,427.3,301.9z M434.2,303.1
		c-0.2,0-0.4,0.1-0.5,0.2c-0.6,0.4-0.8,1.2-0.4,1.8c0.4,0.6,1.2,0.8,1.8,0.4c0.6-0.4,0.8-1.2,0.4-1.8
		C435.2,303.2,434.7,303,434.2,303.1z M324.3,304.2c-0.2,0-0.4,0.1-0.5,0.2c-0.6,0.4-0.8,1.2-0.4,1.8c0.4,0.6,1.2,0.8,1.8,0.4
		c0.6-0.4,0.8-1.2,0.4-1.8C325.3,304.3,324.8,304.1,324.3,304.2z M912,305.4c-0.2,0-0.4,0.1-0.5,0.2c-0.6,0.4-0.8,1.2-0.4,1.8
		c0.4,0.6,1.2,0.8,1.8,0.4c0.6-0.4,0.8-1.2,0.4-1.8C913,305.5,912.5,305.3,912,305.4z M973.4,306.5c-0.2,0-0.4,0.1-0.5,0.2
		c-0.6,0.4-0.8,1.2-0.4,1.8c0.4,0.6,1.2,0.8,1.8,0.4c0.6-0.4,0.8-1.2,0.4-1.8C974.4,306.7,973.9,306.5,973.4,306.5z M429.6,307.7
		c-0.2,0-0.4,0.1-0.5,0.2c-0.6,0.4-0.8,1.2-0.4,1.8c0.4,0.6,1.2,0.8,1.8,0.4c0.6-0.4,0.8-1.2,0.4-1.8
		C430.6,307.8,430.1,307.6,429.6,307.7z M434.2,307.7c-0.2,0-0.4,0.1-0.5,0.2c-0.6,0.4-0.8,1.2-0.4,1.8c0.4,0.6,1.2,0.8,1.8,0.4
		c0.6-0.4,0.8-1.2,0.4-1.8C435.2,307.8,434.7,307.6,434.2,307.7z M325.5,308.8c-0.2,0-0.4,0.1-0.5,0.2c-0.6,0.4-0.8,1.1-0.5,1.7
		c0.3,0.5,0.1,1.3-0.6,1.7c-0.7,0.4-0.9,1.2-0.5,1.8c0.4,0.6,1.2,0.8,1.8,0.4c0.6-0.4,0.8-1.1,0.5-1.7c-0.3-0.5-0.1-1.3,0.6-1.7
		c0.7-0.4,0.9-1.2,0.5-1.8C326.5,309,326,308.8,325.5,308.8z M851.9,308.8c-0.2,0-0.4,0.1-0.5,0.2c-0.6,0.4-0.8,1.2-0.4,1.8
		c0.4,0.6,1.2,0.8,1.8,0.4c0.6-0.4,0.8-1.2,0.4-1.8C852.9,309,852.4,308.8,851.9,308.8z M908.6,310c-0.2,0-0.4,0.1-0.5,0.2
		c-0.6,0.4-0.8,1.2-0.4,1.8c0.4,0.6,1.2,0.8,1.8,0.4c0.6-0.4,0.8-1.2,0.4-1.8C909.6,310.1,909.1,309.9,908.6,310z M330.1,313.5
		c-0.2,0-0.4,0.1-0.5,0.2c-0.6,0.4-0.8,1.2-0.4,1.8c0.4,0.6,1.2,0.8,1.8,0.4c0.6-0.4,0.8-1.2,0.4-1.8
		C331.1,313.6,330.6,313.4,330.1,313.5z M841.5,313.5c-1.1,0-1.8,1.6-0.9,3c0.6,0.9,1.1,0.9,2,0c0.9-0.9,0.9-1.6,0-2.5
		C842.2,313.7,841.8,313.5,841.5,313.5z M304.6,314.6c-0.2,0-0.4,0.1-0.5,0.2c-0.6,0.4-0.8,1.2-0.4,1.8c0.4,0.6,1.2,0.8,1.8,0.4
		c0.6-0.4,0.8-1.2,0.4-1.8C305.6,314.8,305.1,314.6,304.6,314.6z M760.5,314.6c-0.2,0-0.4,0.1-0.5,0.2c-0.6,0.4-0.8,1.2-0.4,1.8
		c0.4,0.6,1.2,0.8,1.8,0.4c0.6-0.4,0.8-1.2,0.4-1.8C761.5,314.8,761,314.6,760.5,314.6z M309.3,315.8c-0.2,0-0.4,0.1-0.5,0.2
		c-0.6,0.4-0.8,1.2-0.4,1.8c0.4,0.6,1.2,0.8,1.8,0.4c0.6-0.4,0.8-1.2,0.4-1.8C310.3,315.9,309.8,315.7,309.3,315.8z M650.6,315.8
		c-0.2,0-0.4,0.1-0.5,0.2c-0.6,0.4-0.8,1.2-0.4,1.8c0.4,0.6,1.2,0.8,1.8,0.4c0.6-0.4,0.8-1.2,0.4-1.8
		C651.6,315.9,651.1,315.7,650.6,315.8z M323.2,316.9c-0.2,0-0.4,0.1-0.5,0.2c-0.6,0.4-0.8,1.2-0.4,1.8c0.4,0.6,1.2,0.8,1.8,0.4
		s0.8-1.2,0.4-1.8C324.1,317.1,323.7,316.9,323.2,316.9z M838,316.9c-0.2,0-0.4,0.1-0.5,0.2c-0.6,0.4-0.8,1.2-0.4,1.8
		c0.4,0.6,1.2,0.8,1.8,0.4c0.6-0.4,0.8-1.2,0.4-1.8C839,317.1,838.5,316.9,838,316.9z M760.5,319.3c-0.2,0-0.4,0.1-0.5,0.2
		c-0.6,0.4-0.8,1.2-0.4,1.8c0.4,0.6,1.2,0.8,1.8,0.4c0.6-0.4,0.8-1.2,0.4-1.8C761.5,319.4,761,319.2,760.5,319.3z M844.9,319.3
		c-0.2,0-0.4,0.1-0.5,0.2c-0.6,0.4-0.8,1.2-0.4,1.8c0.4,0.6,1.2,0.8,1.8,0.4c0.6-0.4,0.8-1.2,0.4-1.8
		C845.9,319.4,845.4,319.2,844.9,319.3z M326.6,320.4c-0.2,0-0.4,0.1-0.5,0.2c-0.6,0.4-0.8,1.2-0.4,1.8c0.4,0.6,1.2,0.8,1.8,0.4
		c0.6-0.4,0.8-1.2,0.4-1.8C327.6,320.5,327.1,320.3,326.6,320.4z M294.5,321.3c0,0-0.1,0-0.1,0.1c-0.3,0.3-0.3,1.5,0.1,2.5
		c0.4,1.1,1,1.7,1.3,1.4s0.2-1.5-0.2-2.5C295.3,321.8,294.8,321.2,294.5,321.3z M835.5,322.3c-0.9,0-3.7,4.9-3.7,6.4
		c0,1.5,1.3,0.1,2.9-3C835.7,323.8,836.1,322.3,835.5,322.3z M855.4,322.7c-0.2,0-0.4,0.1-0.5,0.2c-0.6,0.4-0.8,1.2-0.4,1.8
		c0.4,0.6,1.2,0.8,1.8,0.4c0.6-0.4,0.8-1.2,0.4-1.8C856.3,322.9,855.9,322.7,855.4,322.7z M791.7,323.9c-0.2,0-0.4,0.1-0.5,0.2
		c-0.6,0.4-0.8,1.2-0.4,1.8c0.4,0.6,1.2,0.8,1.8,0.4c0.6-0.4,0.8-1.2,0.4-1.8C792.7,324,792.2,323.8,791.7,323.9z M934,327.4
		c-0.2,0-0.4,0.1-0.5,0.2c-0.6,0.4-0.8,1.2-0.4,1.8c0.4,0.6,1.2,0.8,1.8,0.4c0.6-0.4,0.8-1.2,0.4-1.8
		C935,327.5,934.5,327.3,934,327.4z M982.6,327.4c-0.2,0-0.4,0.1-0.5,0.2c-0.6,0.4-0.8,1.2-0.4,1.8c0.4,0.6,1.2,0.8,1.8,0.4
		c0.6-0.4,0.8-1.2,0.4-1.8C983.6,327.5,983.1,327.3,982.6,327.4z M854.9,328.2c-0.7,0-1.8,0.5-3.7,1.5c-2.3,1.2-3.2,1.3-3.2,0.3
		c0-1.6-3.4,2.6-3.4,4.2c0,0.6,0.8,0.4,1.7-0.3c1.9-1.6,4.1-0.7,4.1,1.7c0,2.4,2.5,2.7,4.6,0.7c1.1-1.1,1.6-3.1,1.4-5
		C856,329.2,855.8,328.2,854.9,328.2z M726.3,328.5c-0.8-0.1-1.5,0.9-1.8,2.9c-0.7,4.9,1,6.9,4.2,4.9c1.1-0.7,1.2-1.8,0.1-4.7
		C728,329.6,727.1,328.5,726.3,328.5z M705,329.7c-0.2,0-0.4,0.1-0.5,0.2c-0.6,0.4-0.8,1.2-0.4,1.8c0.4,0.6,1.2,0.8,1.8,0.4
		c0.6-0.4,0.8-1.2,0.4-1.8C705.9,329.8,705.5,329.6,705,329.7z M925.9,329.7c-0.2,0-0.4,0.1-0.5,0.2c-0.6,0.4-0.8,1.2-0.4,1.8
		c0.4,0.6,1.2,0.8,1.8,0.4c0.6-0.4,0.8-1.2,0.4-1.8C926.9,329.8,926.4,329.6,925.9,329.7z M930.6,330.8c-0.2,0-0.4,0.1-0.5,0.2
		c-0.6,0.4-0.8,1.2-0.4,1.8c0.4,0.6,1.2,0.8,1.8,0.4c0.6-0.4,0.8-1.2,0.4-1.8C931.5,331,931.1,330.8,930.6,330.8z M880,334.2
		c-0.3,0-0.6,0.2-0.9,0.6c-0.7,0.7-0.9,2.2-0.5,3.3c0.6,1.5,1.1,1.7,2,0.8c0.7-0.7,0.9-2.2,0.5-3.3
		C880.8,334.5,880.4,334.1,880,334.2z M705,334.3c-0.2,0-0.4,0.1-0.5,0.2c-0.6,0.4-0.8,1.2-0.4,1.8c0.4,0.6,1.2,0.8,1.8,0.4
		c0.6-0.4,0.8-1.2,0.4-1.8C705.9,334.4,705.5,334.2,705,334.3z M764,335.5c-0.2,0-0.4,0.1-0.5,0.2c-0.6,0.4-0.8,1.2-0.4,1.8
		c0.4,0.6,1.2,0.8,1.8,0.4c0.6-0.4,0.8-1.2,0.4-1.8C764.9,335.6,764.5,335.4,764,335.5z M898.2,335.5c-0.2,0-0.4,0.1-0.5,0.2
		c-0.6,0.4-0.8,1.2-0.4,1.8c0.4,0.6,1.2,0.8,1.8,0.4c0.6-0.4,0.8-1.2,0.4-1.8C899.2,335.6,898.7,335.4,898.2,335.5z M917.8,335.5
		c-0.2,0-0.4,0.1-0.5,0.2c-0.6,0.4-0.8,1.2-0.4,1.8c0.4,0.6,1.2,0.8,1.8,0.4c0.6-0.4,0.8-1.2,0.4-1.8
		C918.8,335.6,918.3,335.4,917.8,335.5z M829.6,336.4l-6.3,6.3c-3.5,3.4-7.1,6.3-8,6.3c-0.9,0-2,1-2.3,2.2c-0.3,1.2-1.8,2.4-3.3,2.6
		c-2.3,0.3-2.7,1-2.4,3.8c0.2,1.9,1.8,5.5,3.5,8.1c2.7,4,3.7,4.7,7.3,4.7c2.3,0,4.6,0.4,5,0.9c0.5,0.5,1.5,0.3,2.2-0.3
		c0.8-0.6,1.7-0.8,2.1-0.4c0.4,0.4,0.5-0.8,0.1-2.7c-0.4-2.1-0.2-3.9,0.6-4.3c0.7-0.4,2.1-2.6,3-4.8s2.3-4,3-4c1,0,1-0.4,0-1.7
		c-0.8-0.9-1.1-2.2-0.7-2.7c0.4-0.6-0.5-1.4-1.8-1.7c-2.5-0.6-2.5-0.7,0.7-3.9l3.2-3.2l-3-2.5L829.6,336.4z M840.3,337.8
		c-0.2,0-0.4,0.1-0.5,0.2c-0.6,0.4-0.8,1.2-0.4,1.8c0.4,0.6,1.2,0.8,1.8,0.4c0.6-0.4,0.8-1.2,0.4-1.8
		C841.3,337.9,840.8,337.7,840.3,337.8z M913.2,337.8c-0.2,0-0.4,0.1-0.5,0.2c-0.6,0.4-0.8,1.2-0.4,1.8c0.4,0.6,1.2,0.8,1.8,0.4
		c0.6-0.4,0.8-1.2,0.4-1.8C914.2,337.9,913.7,337.7,913.2,337.8z M706.1,338.9c-0.2,0-0.4,0.1-0.5,0.2c-0.6,0.4-0.8,1.2-0.4,1.8
		c0.4,0.6,1.2,0.8,1.8,0.4c0.6-0.4,0.8-1.2,0.4-1.8C707.1,339.1,706.6,338.9,706.1,338.9z M960.6,340.1c-0.2,0-0.4,0.1-0.5,0.2
		c-0.6,0.4-0.8,1.2-0.4,1.8c0.4,0.6,1.2,0.8,1.8,0.4c0.6-0.4,0.8-1.2,0.4-1.8C961.6,340.2,961.1,340,960.6,340.1z M769.3,340.9
		l4.7,5.9c2.6,3.2,4.7,6.8,4.7,7.8s1.3,3.2,2.9,4.7c1.6,1.5,2.9,3.6,2.9,4.6c0,2.3,9.4,12.8,11,12.4c0.6-0.2,1.3-1.6,1.6-3.1
		c0.2-1.5,0.9-3.5,1.6-4.2c1.3-1.6,0.1-4.1-1.5-3.1c-1.3,0.8-8.1-5.3-7.3-6.6c0.3-0.5-2.3-3.6-5.7-7s-6.4-6.8-6.7-7.6
		c-0.3-0.8-2.2-1.9-4.3-2.5L769.3,340.9z M705,343.6c-0.2,0-0.4,0.1-0.5,0.2c-0.6,0.4-0.8,1.2-0.4,1.8c0.4,0.6,1.2,0.8,1.8,0.4
		c0.6-0.4,0.8-1.2,0.4-1.8C705.9,343.7,705.5,343.5,705,343.6z M804.5,344.7c-0.2,0-0.4,0.1-0.5,0.2c-0.6,0.4-0.8,1.2-0.4,1.8
		c0.4,0.6,1.2,0.8,1.8,0.4c0.6-0.4,0.8-1.2,0.4-1.8C805.4,344.8,804.9,344.6,804.5,344.7z M521,345.9c-0.2,0-0.4,0.1-0.5,0.2
		c-0.6,0.4-0.8,1.2-0.4,1.8c0.4,0.6,1.2,0.8,1.8,0.4c0.6-0.4,0.8-1.2,0.4-1.8C522,346,521.5,345.8,521,345.9z M769.7,348.2
		c-0.2,0-0.4,0.1-0.5,0.2c-0.6,0.4-0.8,1.2-0.4,1.8c0.4,0.6,1.2,0.8,1.8,0.4c0.6-0.4,0.8-1.2,0.4-1.8
		C770.7,348.3,770.2,348.1,769.7,348.2z M862.3,348.2c-0.2,0-0.4,0.1-0.5,0.2c-0.6,0.4-0.8,1.2-0.4,1.8c0.4,0.6,1.2,0.8,1.8,0.4
		c0.6-0.4,0.8-1.2,0.4-1.8C863.3,348.3,862.8,348.1,862.3,348.2z M518.7,350.5c-0.2,0-0.4,0.1-0.5,0.2c-0.6,0.4-0.8,1.2-0.4,1.8
		c0.4,0.6,1.2,0.8,1.8,0.4c0.6-0.4,0.8-1.2,0.4-1.8C519.7,350.6,519.2,350.4,518.7,350.5z M241,352.8c-0.2,0-0.4,0.1-0.5,0.2
		c-0.6,0.4-0.8,1.2-0.4,1.8c0.4,0.6,1.2,0.8,1.8,0.4c0.6-0.4,0.8-1.2,0.4-1.8C242,352.9,241.5,352.7,241,352.8z M861.4,353.9
		c-1.3,0-1.7,1.1-1.6,3.9c0.2,4.3,1.5,3.8,2.6-0.9C863,354.6,862.8,353.9,861.4,353.9z M774.4,354c-0.2,0-0.4,0.1-0.5,0.2
		c-0.6,0.4-0.8,1.2-0.4,1.8c0.4,0.6,1.2,0.8,1.8,0.4c0.6-0.4,0.8-1.2,0.4-1.8C775.4,354.1,774.9,353.9,774.4,354z M984.9,354
		c-0.2,0-0.4,0.1-0.5,0.2c-0.6,0.4-0.8,1.2-0.4,1.8c0.4,0.6,1.2,0.8,1.8,0.4c0.6-0.4,0.8-1.2,0.4-1.8
		C985.9,354.1,985.4,353.9,984.9,354z M849.5,355.1c-0.8,0-1.7,0-3,0c-3.6,0.1-7,0.7-7.6,1.3c-2,2.1-3.8,13.4-2.4,15.1
		c0.7,0.8,1,2,0.6,2.7c-0.6,1,1.5,5.9,2.5,5.9c0.2,0,0-2.1-0.4-4.6c-1.4-8.8,2.3-10.8,4-2.2c1,4.8,3,5.1,3.1,0.4
		c0-2.3-0.9-4.3-2.8-5.9c-3.4-2.9-2.4-5.7,1.7-4.6c1.7,0.4,2.7,0.2,2.7-0.6c0-0.8-1.7-1.1-4.2-0.9c-2.9,0.2-4.4-0.2-4.8-1.3
		c-0.8-2.4,3.1-4.7,6.8-3.9c1.8,0.4,4.1,0.1,5.3-0.5C852.2,355.4,851.8,355.1,849.5,355.1z M515.2,355.1c-0.2,0-0.4,0.1-0.5,0.2
		c-0.6,0.4-0.8,1.2-0.4,1.8c0.4,0.6,1.2,0.8,1.8,0.4c0.6-0.4,0.8-1.2,0.4-1.8C516.2,355.3,515.7,355.1,515.2,355.1z M866.9,357.4
		c-0.2,0-0.4,0.1-0.5,0.2c-0.6,0.4-0.8,1.2-0.4,1.8c0.4,0.6,1.2,0.8,1.8,0.4c0.6-0.4,0.8-1.2,0.4-1.8
		C867.9,357.6,867.4,357.4,866.9,357.4z M241,358.6c-0.2,0-0.4,0.1-0.5,0.2c-0.6,0.4-0.8,1.2-0.4,1.8c0.4,0.6,1.2,0.8,1.8,0.4
		c0.6-0.4,0.8-1.2,0.4-1.8C242,358.7,241.5,358.5,241,358.6z M969.9,358.6c-0.2,0-0.4,0.1-0.5,0.2c-0.6,0.4-0.8,1.2-0.4,1.8
		c0.4,0.6,1.2,0.8,1.8,0.4c0.6-0.4,0.8-1.2,0.4-1.8C970.9,358.7,970.4,358.5,969.9,358.6z M236.4,358.7c-1.1,0-1.8,1.6-0.9,3
		c0.6,0.9,1.1,0.9,2,0s0.9-1.6,0-2.5C237.1,358.8,236.7,358.7,236.4,358.7z M245.6,359.8c-0.2,0-0.4,0.1-0.5,0.2
		c-0.6,0.4-0.8,1.2-0.4,1.8c0.4,0.6,1.2,0.8,1.8,0.4c0.6-0.4,0.8-1.2,0.4-1.8C246.6,359.9,246.1,359.7,245.6,359.8z M871.3,360.9
		c-1.8,0.1-0.5,1.8,3.1,3.2c2.8,1.1,2.9,1.3,1.1,2.6c-1.2,0.9-1.6,2-1,2.9c0.6,1,1.2,1.1,1.7,0.3c1.1-1.7,11.9,4,14.2,7.6
		c1.7,2.5,1.6,3-0.4,5.2c-1.8,2.1-1.9,2.4-0.3,1.8c1-0.4,3.8,0.3,6.1,1.5c4.7,2.5,8.9,2.9,8.5,0.9c-0.2-0.7,1.1-1.9,2.9-2.5
		c2.5-0.9,3.6-0.7,5.5,1c1.3,1.2,2.4,2.8,2.4,3.7s1.7,2,3.8,2.6c6,1.7,6.3,1.4,2.1-2.2c-2.2-1.9-4.1-4.6-4.2-6
		c-0.2-1.5-0.3-3-0.4-3.4c-0.2-1.8-13.3-9.6-20.4-12.1l-7.8-2.8l-2.7,2.5c-2.6,2.4-2.8,2.5-5,0.5c-1.2-1.1-2-2.8-1.6-3.7
		c0.6-1.7-0.1-2.1-5.8-3.3C872.3,360.9,871.7,360.8,871.3,360.9z M987.3,360.9c-0.2,0-0.4,0.1-0.5,0.2c-0.6,0.4-0.8,1.2-0.4,1.8
		c0.4,0.6,1.2,0.8,1.8,0.4c0.6-0.4,0.8-1.2,0.4-1.8C988.2,361,987.7,360.8,987.3,360.9z M779,362.1c-0.2,0-0.4,0.1-0.5,0.2
		c-0.6,0.4-0.8,1.2-0.4,1.8c0.4,0.6,1.2,0.8,1.8,0.4c0.6-0.4,0.8-1.2,0.4-1.8C780,362.2,779.5,362,779,362.1z M883.1,362.1
		c-0.2,0-0.4,0.1-0.5,0.2c-0.6,0.4-0.8,1.2-0.4,1.8c0.4,0.6,1.2,0.8,1.8,0.4c0.6-0.4,0.8-1.2,0.4-1.8
		C884.1,362.2,883.6,362,883.1,362.1z M901.6,362.1c-0.2,0-0.4,0.1-0.5,0.2c-0.6,0.4-0.8,1.2-0.4,1.8c0.4,0.6,1.2,0.8,1.8,0.4
		c0.6-0.4,0.8-1.2,0.4-1.8C902.6,362.2,902.1,362,901.6,362.1z M923.6,362.1c-0.2,0-0.4,0.1-0.5,0.2c-0.6,0.4-0.8,1.2-0.4,1.8
		c0.4,0.6,1.2,0.8,1.8,0.4c0.6-0.4,0.8-1.2,0.4-1.8C924.6,362.2,924.1,362,923.6,362.1z M866.9,362.1c-1.1,0-1.8,1.6-0.9,3
		c0.6,0.9,1.1,0.9,2,0c0.9-0.9,0.9-1.6,0-2.5C867.7,362.3,867.3,362.1,866.9,362.1z M512.9,363.2c-0.2,0-0.4,0.1-0.5,0.2
		c-0.6,0.4-0.8,1.2-0.4,1.8c0.4,0.6,1.2,0.8,1.8,0.4c0.6-0.4,0.8-1.2,0.4-1.8C513.9,363.4,513.4,363.1,512.9,363.2z M805.6,363.2
		c-0.2,0-0.4,0.1-0.5,0.2c-0.6,0.4-0.8,1.2-0.4,1.8c0.4,0.6,1.2,0.8,1.8,0.4c0.6-0.4,0.8-1.2,0.4-1.8
		C806.6,363.4,806.1,363.1,805.6,363.2z M914.4,363.2c-0.2,0-0.4,0.1-0.5,0.2c-0.6,0.4-0.8,1.2-0.4,1.8c0.4,0.6,1.2,0.8,1.8,0.4
		c0.6-0.4,0.8-1.2,0.4-1.8C915.3,363.4,914.9,363.1,914.4,363.2z M851.9,364.4c-0.2,0-0.4,0.1-0.5,0.2c-0.6,0.4-0.8,1.2-0.4,1.8
		c0.4,0.6,1.2,0.8,1.8,0.4c0.6-0.4,0.8-1.2,0.4-1.8C852.9,364.5,852.4,364.3,851.9,364.4z M856.5,364.4c-0.2,0-0.4,0.1-0.5,0.2
		c-0.6,0.4-0.8,1.2-0.4,1.8c0.4,0.6,1.2,0.8,1.8,0.4c0.6-0.4,0.8-1.2,0.4-1.8C857.5,364.5,857,364.3,856.5,364.4z M990.7,364.4
		c-0.2,0-0.4,0.1-0.5,0.2c-0.6,0.4-0.8,1.2-0.4,1.8c0.4,0.6,1.2,0.8,1.8,0.4c0.6-0.4,0.8-1.2,0.4-1.8
		C991.7,364.5,991.2,364.3,990.7,364.4z M995.4,365.5c-0.2,0-0.4,0.1-0.5,0.2c-0.6,0.4-0.8,1.2-0.4,1.8c0.4,0.6,1.2,0.8,1.8,0.4
		c0.6-0.4,0.8-1.2,0.4-1.8C996.3,365.7,995.8,365.5,995.4,365.5z M803.3,366.7c-0.2,0-0.4,0.1-0.5,0.2c-0.6,0.4-0.8,1.2-0.4,1.8
		c0.4,0.6,1.2,0.8,1.8,0.4c0.6-0.4,0.8-1.2,0.4-1.8C804.3,366.8,803.8,366.6,803.3,366.7z M930.6,366.8c-1-0.1-1.1,1.3,0.4,3.5
		c1.3,2,2.3,2.5,3.1,1.7c0.8-0.8,0.5-1.9-0.9-3.5C932,367.4,931.1,366.9,930.6,366.8z M781.3,367.5c-0.3-0.1-0.2,0.3,0.2,1.4
		c0.4,1.1,1.1,1.8,1.4,1.4c0.4-0.4,0-1.3-0.8-2.1C781.8,367.8,781.5,367.5,781.3,367.5z M864.3,367.5c-0.7,0-1.3,0.1-1.9,0.4
		c-1,0.4-1.4,1.2-1,1.9c0.9,1.5,6.9,0.9,6.9-0.7C868.3,368.1,866.3,367.4,864.3,367.5z M856.5,369c-0.2,0-0.4,0.1-0.5,0.2
		c-0.6,0.4-0.8,1.2-0.4,1.8c0.4,0.6,1.2,0.8,1.8,0.4c0.6-0.4,0.8-1.2,0.4-1.8C857.5,369.1,857,368.9,856.5,369z M656.4,371.3
		c-0.2,0-0.4,0.1-0.5,0.2c-0.6,0.4-0.8,1.2-0.4,1.8c0.4,0.6,1.2,0.8,1.8,0.4c0.6-0.4,0.8-1.2,0.4-1.8
		C657.3,371.5,656.9,371.2,656.4,371.3z M928.7,371.4c-0.5,0.1-1.1,0.4-2,1.2c-1.1,1-2.6,1.8-3.3,1.8c-1.7,0-2.9,2-2,3.5
		c1.1,1.9,2.8,1.4,5.9-1.7C929.8,373.6,930.1,371.2,928.7,371.4z M613.6,373.6c-0.2,0-0.4,0.1-0.5,0.2c-0.6,0.4-0.8,1.2-0.4,1.8
		c0.4,0.6,1.2,0.8,1.8,0.4c0.6-0.4,0.8-1.2,0.4-1.8C614.5,373.8,614.1,373.6,613.6,373.6z M875,374.8c-0.2,0-0.4,0.1-0.5,0.2
		c-0.6,0.4-0.8,1.2-0.4,1.8c0.4,0.6,1.2,0.8,1.8,0.4c0.6-0.4,0.8-1.2,0.4-1.8C876,374.9,875.5,374.7,875,374.8z M917.8,374.8
		c-0.2,0-0.4,0.1-0.5,0.2c-0.6,0.4-0.8,1.2-0.4,1.8c0.4,0.6,1.2,0.8,1.8,0.4c0.6-0.4,0.8-1.2,0.4-1.8
		C918.8,374.9,918.3,374.7,917.8,374.8z M850.7,376c-0.2,0-0.4,0.1-0.5,0.2c-0.6,0.4-0.8,1.2-0.4,1.8c0.4,0.6,1.2,0.8,1.8,0.4
		c0.6-0.4,0.8-1.2,0.4-1.8C851.7,376.1,851.2,375.9,850.7,376z M879.7,376c-0.2,0-0.4,0.1-0.5,0.2c-0.6,0.4-0.8,1.2-0.4,1.8
		c0.4,0.6,1.2,0.8,1.8,0.4c0.6-0.4,0.8-1.2,0.4-1.8C880.6,376.1,880.2,375.9,879.7,376z M937.5,376c-0.2,0-0.4,0.1-0.5,0.2
		c-0.6,0.4-0.8,1.2-0.4,1.8c0.4,0.6,1.2,0.8,1.8,0.4c0.6-0.4,0.8-1.2,0.4-1.8C938.5,376.1,938,375.9,937.5,376z M650.6,377.1
		c-0.2,0-0.4,0.1-0.5,0.2c-0.6,0.4-0.8,1.2-0.4,1.8c0.4,0.6,1.2,0.8,1.8,0.4c0.6-0.4,0.8-1.2,0.4-1.8
		C651.6,377.2,651.1,377,650.6,377.1z M612.4,378.3c-0.2,0-0.4,0.1-0.5,0.2c-0.6,0.4-0.8,1.2-0.4,1.8c0.4,0.6,1.2,0.8,1.8,0.4
		c0.6-0.4,0.8-1.2,0.4-1.8C613.4,378.4,612.9,378.2,612.4,378.3z M942.1,378.3c-0.2,0-0.4,0.1-0.5,0.2c-0.6,0.4-0.8,1.2-0.4,1.8
		c0.4,0.6,1.2,0.8,1.8,0.4c0.6-0.4,0.8-1.2,0.4-1.8C943.1,378.4,942.6,378.2,942.1,378.3z M799.2,378.7c-0.6,0-0.9,0.2-1.1,0.5
		c-1,1.6,3.2,3.8,9,4.7c9.1,1.5,11.3,1.9,11.8,2.5c0.9,0.9,2.5,0.7,2.5-0.3c0-1.9-7.6-6-10-5.4c-1.3,0.3-4.7-0.1-7.5-1.1
		C801.7,379,800.2,378.7,799.2,378.7z M821.4,379.2c-1.2,0-2.3,1.1-1.7,2.1c0.4,0.6,1.1,1.1,1.7,1.1c1.6,0,2.5-2.1,1.2-2.9
		C822.2,379.3,821.8,379.2,821.4,379.2z M826.4,379.4c-0.2,0-0.4,0.1-0.5,0.2c-0.6,0.4-0.8,1.2-0.4,1.8c0.4,0.6,1.2,0.8,1.8,0.4
		c0.6-0.4,0.8-1.2,0.4-1.8C827.4,379.5,826.9,379.3,826.4,379.4z M996.5,379.4c-0.2,0-0.4,0.1-0.5,0.2c-0.6,0.4-0.8,1.2-0.4,1.8
		c0.4,0.6,1.2,0.8,1.8,0.4c0.6-0.4,0.8-1.2,0.4-1.8C997.5,379.5,997,379.3,996.5,379.4z M947.5,380.4c-1.2,0-2.3,1.1-1.7,2.1
		c0.4,0.6,1.1,1.1,1.7,1.1c1.6,0,2.5-2.1,1.2-2.9C948.3,380.4,947.9,380.4,947.5,380.4z M843.8,380.6c-0.2,0-0.4,0.1-0.5,0.2
		c-0.6,0.4-0.8,1.2-0.4,1.8c0.4,0.6,1.2,0.8,1.8,0.4c0.6-0.4,0.8-1.2,0.4-1.8C844.8,380.7,844.3,380.5,843.8,380.6z M860,381.7
		c-0.2,0-0.4,0.1-0.5,0.2c-0.6,0.4-0.8,1.2-0.4,1.8c0.4,0.6,1.2,0.8,1.8,0.4c0.6-0.4,0.8-1.2,0.4-1.8
		C861,381.9,860.5,381.7,860,381.7z M870,382.7c-1.2,0-2.3,1.1-1.7,2.1c0.4,0.6,1.1,1.1,1.7,1.1c1.6,0,2.5-2.1,1.2-2.9
		C870.8,382.8,870.4,382.7,870,382.7z M943.3,382.9c-0.2,0-0.4,0.1-0.5,0.2c-0.6,0.4-0.8,1.2-0.4,1.8c0.4,0.6,1.2,0.8,1.8,0.4
		c0.6-0.4,0.8-1.2,0.4-1.8C944.3,383,943.8,382.8,943.3,382.9z M1002.3,382.9c-0.2,0-0.4,0.1-0.5,0.2c-0.6,0.4-0.8,1.2-0.4,1.8
		c0.4,0.6,1.2,0.8,1.8,0.4c0.6-0.4,0.8-1.2,0.4-1.8C1003.3,383,1002.8,382.8,1002.3,382.9z M953.3,383.8c-0.4,0-0.7,0.1-1.1,0.3
		c-1,0.6-0.9,1.3,0.1,2.5c1,1.2,1.8,1.3,2.6,0.5C956.1,385.8,954.8,383.9,953.3,383.8z M613.6,384.1c-0.2,0-0.4,0.1-0.5,0.2
		c-0.6,0.4-0.8,1.2-0.4,1.8c0.4,0.6,1.2,0.8,1.8,0.4c0.6-0.4,0.8-1.2,0.4-1.8C614.5,384.2,614.1,384,613.6,384.1z M864.6,384.1
		c-0.2,0-0.4,0.1-0.5,0.2c-0.6,0.4-0.8,1.2-0.4,1.8c0.4,0.6,1.2,0.8,1.8,0.4c0.6-0.4,0.8-1.2,0.4-1.8
		C865.6,384.2,865.1,384,864.6,384.1z M857.2,384.8c-2.9,0.4-9.7,6.1-8.7,7.8c0.5,0.8,2,0.5,4.7-1c5.4-3.2,6.9-5.1,5-6.6
		C858,384.8,857.6,384.8,857.2,384.8z M825.3,385.2c-0.2,0-0.4,0.1-0.5,0.2c-0.6,0.4-0.8,1.2-0.4,1.8c0.4,0.6,1.2,0.8,1.8,0.4
		c0.6-0.4,0.8-1.2,0.4-1.8C826.3,385.3,825.8,385.1,825.3,385.2z M848.4,385.2c-0.2,0-0.4,0.1-0.5,0.2c-0.6,0.4-0.8,1.2-0.4,1.8
		c0.4,0.6,1.2,0.8,1.8,0.4c0.6-0.4,0.8-1.2,0.4-1.8C849.4,385.3,848.9,385.1,848.4,385.2z M840.3,386.1c-0.5,0-1.1,0.1-1.5,0.4
		c-0.7,0.4-0.9,1.3-0.6,1.8c0.9,1.4,3.7,1.4,4.6-0.1C843.5,387.1,841.9,386.1,840.3,386.1z M830.8,386.4c-0.6,0-1.1,0.2-1.6,0.4
		c-0.5,0.2-0.6,0.9-0.3,1.4c0.8,1.3,5.9,0.9,5.2-0.5c-0.4-0.7-1.6-1.2-2.8-1.3C831.1,386.4,831,386.4,830.8,386.4z M950.2,387.5
		c-0.2,0-0.4,0.1-0.5,0.2c-0.6,0.4-0.8,1.2-0.4,1.8c0.4,0.6,1.2,0.8,1.8,0.4c0.6-0.4,0.8-1.2,0.4-1.8
		C951.2,387.6,950.7,387.4,950.2,387.5z M836.8,389.8c-0.2,0-0.4,0.1-0.5,0.2c-0.6,0.4-0.8,1.2-0.4,1.8c0.4,0.6,1.2,0.8,1.8,0.4
		c0.6-0.4,0.8-1.2,0.4-1.8C837.8,390,837.3,389.8,836.8,389.8z M843.8,391c-0.2,0-0.4,0.1-0.5,0.2c-0.6,0.4-0.8,1.2-0.4,1.8
		c0.4,0.6,1.2,0.8,1.8,0.4c0.6-0.4,0.8-1.2,0.4-1.8C844.8,391.1,844.3,390.9,843.8,391z M956,391c-0.2,0-0.4,0.1-0.5,0.2
		c-0.6,0.4-0.8,1.2-0.4,1.8c0.4,0.6,1.2,0.8,1.8,0.4c0.6-0.4,0.8-1.2,0.4-1.8C957,391.1,956.5,390.9,956,391z M930.6,393.3
		c-0.2,0-0.4,0.1-0.5,0.2c-0.6,0.4-0.8,1.2-0.4,1.8c0.4,0.6,1.2,0.8,1.8,0.4c0.6-0.4,0.8-1.2,0.4-1.8
		C931.5,393.4,931.1,393.2,930.6,393.3z M951.4,394.5c-0.2,0-0.4,0.1-0.5,0.2c-0.6,0.4-0.8,1.2-0.4,1.8c0.4,0.6,1.2,0.8,1.8,0.4
		c0.6-0.4,0.8-1.2,0.4-1.8C952.4,394.6,951.9,394.4,951.4,394.5z M872.9,395.4c-0.3,0.1-0.4,0.3-0.1,0.7c0.4,0.7-0.6,2.1-2.2,3.1
		c-1.6,1.1-2.7,2.3-2.4,2.8s-0.2,1.6-1.2,2.4c-1.3,1-1.4,1.8-0.5,2.9c0.7,0.8,0.8,1.7,0.3,2.1c-1.8,1.1-8.9-0.1-9.5-1.7
		c-0.9-2.2-3.5-2.5-3.5-0.4c0,1-1.2,2.3-2.8,3c-1.6,0.7-2.6,1.9-2.2,2.8c0.3,0.8,0.2,2.2-0.3,2.9c-0.6,1-1.3,0.8-2.4-0.7
		c-1.5-2.1-1.6-2.1-1.7,0.1c-0.1,1.2-0.1,2.9,0,3.6c0.2,1.4-6.8,7.3-8.7,7.3c-1.1,0-6.4,2.7-12.9,6.5c-4.2,2.5-5,6.4-1.9,9.9
		c1.1,1.3,1.6,2.9,1.1,4.2c-0.8,2-0.9,1.9-2.5-0.2c-1-1.3-1.7-1.6-1.7-0.8c0,0.8,1.1,3,2.4,4.9c2.7,3.8,6.2,18.4,5.4,22.6
		c-0.4,2.1,0.3,3.1,2.8,4.4c3.1,1.6,3.6,1.5,7.6-1.2c2.4-1.6,6-2.9,8-2.9c2.4,0,4.8-1.1,6.8-2.9c1.7-1.6,4.5-2.9,6.1-2.9
		c1.6,0,4.5-0.6,6.5-1.2c5.3-1.8,14.3,1.8,16.8,6.7c1,2,2.1,3.7,2.5,3.7c0.4,0,1.6-1.9,2.7-4.2c1.5-3.1,2.3-3.9,3.3-2.9
		c1,1,1,2.1,0,4.3c-1.8,3.9-1.7,4.6,0.3,2.9c1.2-1,1.8-1,2.4,0c0.4,0.7,0.5,1.6,0.1,2c-0.4,0.4,0.6,2.2,2.2,4c1.6,1.9,2.9,4.1,2.9,5
		c0,2.5,7.1,4,9.5,2c1.7-1.5,2.2-1.4,4,0.7c2.7,3,2.5,3,5.2-0.4c1.3-1.7,3.2-2.8,4.7-2.6c1.7,0.2,2.5-0.5,2.7-2.1
		c0.4-2.9,2.5-9.1,5.2-15c2.7-6,5.6-29.8,3.5-29.2c-1.1,0.3-7.1-3.9-7.1-5c0-0.5-1.3-2.3-2.9-4c-1.6-1.7-2.6-3.5-2.3-4
		c0.3-0.5-0.5-1.3-1.8-1.7c-3.2-1-6.9-8.7-6.9-14.2c0-3-0.8-5.2-2.2-6.5c-1.2-1.1-2.6-3.7-3-5.7c-0.4-2-1.1-4.1-1.4-4.7
		c-0.9-1.5-3.5,6-3.7,10.3c-0.1,3.5-4,13.3-5.3,13.3c-0.4,0-3.5-2.1-7.1-4.7c-6-4.4-6.4-5-5.6-8.4c0.4-2,1.2-4.2,1.8-4.8
		c1.4-1.5,1.3-4.4,0-3.6c-0.6,0.4-1.4,0.2-1.7-0.4c-0.4-0.6-1.6-1-2.7-1c-1.1,0.1-3.2-0.3-4.7-0.8
		C873.9,395.5,873.2,395.4,872.9,395.4z M620.5,396.8c-0.2,0-0.4,0.1-0.5,0.2c-0.6,0.4-0.8,1.2-0.4,1.8c0.4,0.6,1.2,0.8,1.8,0.4
		c0.6-0.4,0.8-1.2,0.4-1.8C621.5,396.9,621,396.7,620.5,396.8z M624,399.1c-0.2,0-0.4,0.1-0.5,0.2c-0.6,0.4-0.8,1.2-0.4,1.8
		c0.4,0.6,1.2,0.8,1.8,0.4c0.6-0.4,0.8-1.2,0.4-1.8C625,399.2,624.5,399,624,399.1z M638.1,400.2c-0.4,0.1-0.6,0.5-0.6,1.3
		c0,3.1-3.5,7.5-7.7,9.5c-4.6,2.2-6.5,6.1-5.5,11.4c0.5,2.6,0.1,4.7-1.2,6.8c-2,3.1-1.8,6,0.8,12.6c1.1,2.7,1.7,3.1,4.3,2.4
		c1.7-0.4,3.4-1.3,3.9-2c1.1-1.5,2.3-6.4,4.9-18.6c1.1-5.1,2.4-10.1,2.9-11.1c1.1-2.2,0.1-11.2-1.3-12.1
		C638.3,400.2,638.2,400.2,638.1,400.2z M627.4,402.6c-0.2,0-0.4,0.1-0.5,0.2c-0.6,0.4-0.8,1.2-0.4,1.8c0.4,0.6,1.2,0.8,1.8,0.4
		c0.6-0.4,0.8-1.2,0.4-1.8C628.4,402.7,627.9,402.5,627.4,402.6z M886.6,402.6c-0.2,0-0.4,0.1-0.5,0.2c-0.6,0.4-0.8,1.2-0.4,1.8
		c0.4,0.6,1.2,0.8,1.8,0.4c0.6-0.4,0.8-1.2,0.4-1.8C887.6,402.7,887.1,402.5,886.6,402.6z M1030.1,403.7c-0.2,0-0.4,0.1-0.5,0.2
		c-0.6,0.4-0.8,1.2-0.4,1.8c0.4,0.6,1.1,0.8,1.7,0.5c0.5-0.3,1.3-0.1,1.7,0.6c0.4,0.7,1.2,0.9,1.8,0.5c0.6-0.4,0.8-1.2,0.4-1.8
		c-0.4-0.6-1.1-0.8-1.7-0.5c-0.5,0.3-1.3,0.1-1.7-0.6C1031.1,403.9,1030.6,403.7,1030.1,403.7z M968.7,408.3c-0.2,0-0.4,0.1-0.5,0.2
		c-0.6,0.4-0.8,1.2-0.4,1.8c0.4,0.6,1.2,0.8,1.8,0.4c0.6-0.4,0.8-1.2,0.4-1.8C969.7,408.5,969.2,408.3,968.7,408.3z M652.9,411.8
		c-0.2,0-0.4,0.1-0.5,0.2c-0.6,0.4-0.8,1.2-0.4,1.8c0.4,0.6,1.2,0.8,1.8,0.4c0.6-0.4,0.8-1.2,0.4-1.8
		C653.9,411.9,653.4,411.7,652.9,411.8z M969.9,413c-0.2,0-0.4,0.1-0.5,0.2c-0.6,0.4-0.8,1.2-0.4,1.8c0.4,0.6,1.2,0.8,1.8,0.4
		c0.6-0.4,0.8-1.2,0.4-1.8C970.9,413.1,970.4,412.9,969.9,413z M1004.6,413c-0.2,0-0.4,0.1-0.5,0.2c-0.6,0.4-0.8,1.2-0.4,1.8
		c0.4,0.6,1.2,0.8,1.8,0.4c0.6-0.4,0.8-1.2,0.4-1.8C1005.6,413.1,1005.1,412.9,1004.6,413z M973.4,415.3c-0.2,0-0.4,0.1-0.5,0.2
		c-0.6,0.4-0.8,1.2-0.4,1.8c0.4,0.6,1.2,0.8,1.8,0.4c0.6-0.4,0.8-1.2,0.4-1.8C974.4,415.4,973.9,415.2,973.4,415.3z M75.6,416.4
		c-0.2,0-0.4,0.1-0.5,0.2c-0.6,0.4-0.8,1.2-0.4,1.8c0.4,0.6,1.2,0.8,1.8,0.4c0.6-0.4,0.8-1.2,0.4-1.8
		C76.6,416.6,76.1,416.4,75.6,416.4z M1001.1,416.4c-0.2,0-0.4,0.1-0.5,0.2c-0.6,0.4-0.8,1.2-0.4,1.8c0.4,0.6,1.2,0.8,1.8,0.4
		c0.6-0.4,0.8-1.2,0.4-1.8C1002.1,416.6,1001.6,416.4,1001.1,416.4z M79,418.8c-0.2,0-0.4,0.1-0.5,0.2c-0.6,0.4-0.8,1.2-0.4,1.8
		c0.4,0.6,1.2,0.8,1.8,0.4c0.6-0.4,0.8-1.2,0.4-1.8C80,418.9,79.5,418.7,79,418.8z M1022,424.5c-0.2,0-0.4,0.1-0.5,0.2
		c-0.6,0.4-0.8,1.2-0.4,1.8c0.4,0.6,1.2,0.8,1.8,0.4c0.6-0.4,0.8-1.2,0.4-1.8C1022.9,424.7,1022.5,424.5,1022,424.5z M111.4,426.9
		c-0.2,0-0.4,0.1-0.5,0.2c-0.6,0.4-0.8,1.2-0.4,1.8c0.4,0.6,1.2,0.8,1.8,0.4c0.6-0.4,0.8-1.2,0.4-1.8
		C112.4,427,111.9,426.8,111.4,426.9z M661,426.9c-0.2,0-0.4,0.1-0.5,0.2c-0.6,0.4-0.8,1.2-0.4,1.8c0.4,0.6,1.2,0.8,1.8,0.4
		c0.6-0.4,0.8-1.2,0.4-1.8C662,427,661.5,426.8,661,426.9z M964.4,426.9c-0.4,0-0.7,0.2-0.9,0.4c-0.8,0.8-0.4,1.8,1.5,3
		c3.1,2.2,4,2.3,5,0.8c0.9-1.4-3-4-5.2-4.2C964.7,426.9,964.6,426.9,964.4,426.9z M656.4,428c-0.2,0-0.4,0.1-0.5,0.2
		c-0.6,0.4-0.8,1.2-0.4,1.8c0.4,0.6,1.2,0.8,1.8,0.4c0.6-0.4,0.8-1.2,0.4-1.8C657.3,428.1,656.9,427.9,656.4,428z M1018.5,428
		c-0.2,0-0.4,0.1-0.5,0.2c-0.6,0.4-0.8,1.2-0.4,1.8c0.4,0.6,1.2,0.8,1.8,0.4c0.6-0.4,0.8-1.2,0.4-1.8
		C1019.5,428.1,1019,427.9,1018.5,428z M99.9,429.2c-0.2,0-0.4,0.1-0.5,0.2c-0.6,0.4-0.8,1.2-0.4,1.8c0.4,0.6,1.2,0.8,1.8,0.4
		c0.6-0.4,0.8-1.2,0.4-1.8C100.9,429.3,100.4,429.1,99.9,429.2z M118.4,433.8c-0.2,0-0.4,0.1-0.5,0.2c-0.6,0.4-0.8,1.2-0.4,1.8
		c0.4,0.6,1.2,0.8,1.8,0.4c0.6-0.4,0.8-1.2,0.4-1.8C119.4,433.9,118.9,433.7,118.4,433.8z M134.6,438.4c-0.2,0-0.4,0.1-0.5,0.2
		c-0.6,0.4-0.8,1.2-0.4,1.8s1.2,0.8,1.8,0.4c0.6-0.4,0.8-1.2,0.4-1.8C135.6,438.6,135.1,438.4,134.6,438.4z M145,440.7
		c-0.2,0-0.4,0.1-0.5,0.2c-0.6,0.4-0.8,1.2-0.4,1.8c0.4,0.6,1.2,0.8,1.8,0.4c0.6-0.4,0.8-1.2,0.4-1.8
		C146,440.9,145.5,440.7,145,440.7z M201.7,445.4c-0.2,0-0.4,0.1-0.5,0.2c-0.6,0.4-0.8,1.2-0.4,1.8c0.4,0.6,1.2,0.8,1.8,0.4
		c0.6-0.4,0.8-1.2,0.4-1.8C202.7,445.5,202.2,445.3,201.7,445.4z M187.8,447.7c-0.2,0-0.4,0.1-0.5,0.2c-0.6,0.4-0.8,1.2-0.4,1.8
		c0.4,0.6,1.2,0.8,1.8,0.4c0.6-0.4,0.8-1.2,0.4-1.8C188.8,447.8,188.3,447.6,187.8,447.7z M273.4,473.1c-0.2,0-0.4,0.1-0.5,0.2
		c-0.6,0.4-0.8,1.2-0.4,1.8c0.4,0.6,1.2,0.8,1.8,0.4c0.6-0.4,0.8-1.2,0.4-1.8C274.4,473.3,273.9,473.1,273.4,473.1z M987.4,477.7
		c-0.1,0-0.1,0-0.2,0c-0.3,0.3,0.4,2,1.7,3.8c3.6,5.1,4.2,8.2,2.2,11.3c-1.6,2.5-1.6,2.8,0.5,3.3c1.3,0.3,2.2,1.6,2.2,3
		c0,3.7,2.1,2.9,3.3-1.3c0.6-2.1,1.6-3.6,2.4-3.5c0.7,0.2,1.3-0.2,1.3-0.8c0-0.6,0.4-2,0.8-3.1c0.6-1.6,0.3-1.8-1.3-1.2
		c-1.5,0.6-2.2,0.1-2.7-1.6c-0.5-1.8-0.9-2-2.2-1c-1.2,1-1.8,0.8-2.4-0.8C992,482.8,988.4,477.8,987.4,477.7z M885.4,480.1
		c-0.2,0-0.4,0.1-0.5,0.2c-0.6,0.4-0.8,1.2-0.4,1.8c0.4,0.6,1.2,0.8,1.8,0.4c0.6-0.4,0.8-1.2,0.4-1.8
		C886.4,480.2,885.9,480,885.4,480.1z M916.7,495.1c-0.2,0-0.4,0.1-0.5,0.2c-0.6,0.4-0.8,1.2-0.4,1.8c0.4,0.6,1.2,0.8,1.8,0.4
		c0.6-0.4,0.8-1.2,0.4-1.8C917.7,495.2,917.2,495,916.7,495.1z M906.3,496.3c-0.2,0-0.4,0.1-0.5,0.2c-0.6,0.4-0.8,1.2-0.4,1.8
		c0.4,0.6,1.2,0.8,1.8,0.4c0.6-0.4,0.8-1.2,0.4-1.8C907.3,496.4,906.8,496.2,906.3,496.3z M910.4,500.8c-1.8,0.1-1.7,0.6-1,2.3
		c0.5,1.4,1.2,3.4,1.6,4.5c0.7,2.1,5.8,2.2,6,0.2c0.1-0.6,0.5-2,1-3.1c1.2-2.8,0.2-3.6-5.1-3.8C911.8,500.8,911,500.8,910.4,500.8z
		 M988,501.1c-1.8,0.2-4.6,2.9-4.6,4.8c0,0.7-1.4,2.4-3,3.7c-5,3.9-12.5,14.7-8.5,12.2c0.6-0.4,2.1-0.2,3.2,0.5
		c2.7,1.6,4.4,1.6,5.8-0.2c1.3-1.5,1.4-2,1.4-5c0-1,1.3-3.1,2.9-4.7c1.6-1.6,2.6-3.4,2.2-4s0.1-1.4,1.1-1.8c2.3-0.9,2.4-4.6,0.2-5.4
		c-0.1,0-0.2-0.1-0.3-0.1C988.3,501.1,988.1,501.1,988,501.1z M286.1,504.4c-1.1,0-1.8,1.6-0.9,3c0.6,0.9,1.1,0.9,2,0
		c0.9-0.9,0.9-1.6,0-2.5C286.9,504.6,286.5,504.4,286.1,504.4z M974.5,525.2c-0.2,0-0.4,0.1-0.5,0.2c-0.6,0.4-0.8,1.2-0.4,1.8
		c0.4,0.6,1.2,0.8,1.8,0.4c0.6-0.4,0.8-1.2,0.4-1.8C975.5,525.3,975,525.1,974.5,525.2z M283.8,526.4c-0.2,0-0.4,0.1-0.5,0.2
		c-0.6,0.4-0.8,1.2-0.4,1.8c0.4,0.6,1.2,0.8,1.8,0.4c0.6-0.4,0.8-1.2,0.4-1.8C284.8,526.5,284.3,526.3,283.8,526.4z M693.4,530
		c-1.4-0.1-1.9,1.6-0.4,3.4c1.8,2.1,2.8,2.1,4.6,0c1.1-1.4,1-2.3-0.1-1.6c0-0.1-0.2-0.1-0.4,0.2c-0.4-0.1-1.2-0.5-2-1.2
		C694.4,530.2,693.9,530,693.4,530z M283.8,532.1c-0.2,0-0.4,0.1-0.5,0.2c-0.6,0.4-0.8,1.2-0.4,1.8c0.4,0.6,1.2,0.8,1.8,0.4
		c0.6-0.4,0.8-1.2,0.4-1.8C284.8,532.3,284.3,532.1,283.8,532.1z M967.6,535.6c-0.2,0-0.4,0.1-0.5,0.2c-0.6,0.4-0.8,1.2-0.4,1.8
		c0.4,0.6,1.2,0.8,1.8,0.4c0.6-0.4,0.8-1.2,0.4-1.8C968.6,535.7,968.1,535.5,967.6,535.6z M283.8,537.9c-0.2,0-0.4,0.1-0.5,0.2
		c-0.6,0.4-0.8,1.2-0.4,1.8c0.4,0.6,1.2,0.8,1.8,0.4c0.6-0.4,0.8-1.2,0.4-1.8C284.8,538.1,284.3,537.8,283.8,537.9z M331.3,540.2
		c-0.2,0-0.4,0.1-0.5,0.2c-0.6,0.4-0.8,1.1-0.5,1.7c0.3,0.5,0.1,1.3-0.6,1.7c-0.7,0.4-0.9,1.2-0.5,1.8c0.4,0.6,1.2,0.8,1.8,0.4
		c0.6-0.4,0.8-1.1,0.5-1.7s-0.1-1.3,0.6-1.7s0.9-1.2,0.5-1.8C332.2,540.4,331.8,540.2,331.3,540.2z M326.2,541.2
		c-1.3,0.1-2.6,1.8-1.7,3.2c0.6,1,1.3,1,2.5-0.1c1.2-1,1.3-1.8,0.5-2.6C327,541.3,326.6,541.1,326.2,541.2z M287.8,545.9
		c-0.4,0-0.7,0.1-1,0.3c-1.1,0.7-0.9,1.3,0.8,2.5c1.2,0.9,2.1,1.8,1.9,2.1c-0.2,0.3-0.3,0.8-0.3,1.2s0.6,0.3,1.2-0.1
		c0.8-0.5,0.8-1.3-0.1-2.4c-0.7-0.9-0.9-1.6-0.4-1.6s0.3-0.6-0.4-1.3C289.1,546.1,288.4,545.9,287.8,545.9z M706.1,547.2
		c-0.2,0-0.4,0.1-0.5,0.2c-0.6,0.4-0.8,1.2-0.4,1.8c0.4,0.6,1.2,0.8,1.8,0.4c0.6-0.4,0.8-1.2,0.4-1.8
		C707.1,547.3,706.6,547.1,706.1,547.2z M300.8,548.1c-0.6,0.1-0.7,1.2-0.7,3c0.1,2.7-0.4,3.1-2.6,2.9c-1.5-0.2-2.4,0.2-2,0.9
		c0.4,0.6,2.2,1.2,4,1.2c1.8,0,3.6,0.5,4,1c0.7,1.2,2.8,1.1,4.9-0.2c0.9-0.6,0-2.2-2.7-4.9c-2.4-2.4-3.9-3.7-4.7-3.8
		C301,548.1,300.9,548.1,300.8,548.1z M390.9,551.8c-0.5,0-1,0.1-1.3,0.3c-0.8,0.5-0.5,1.3,0.9,2.3c2.5,1.8,4.8,2,5.7,0.4
		C396.9,553.7,393.2,551.9,390.9,551.8z M313.9,554.1c-0.2,0-0.4,0.1-0.5,0.2c-0.6,0.4-0.8,1.2-0.4,1.8c0.4,0.6,1.2,0.8,1.8,0.4
		s0.8-1.2,0.4-1.8C314.9,554.2,314.4,554,313.9,554.1z M300.7,558.6c-1.2,0-2.3,1.1-1.7,2.1c0.4,0.6,1.1,1.1,1.7,1.1
		c1.6,0,2.5-2.1,1.2-2.9C301.6,558.6,301.2,558.6,300.7,558.6z"/>
</g>
</svg>
